<mxfile host="app.diagrams.net" agent="Mozilla/5.0 (Windows NT 10.0; Win64; x64) AppleWebKit/537.36 (KHTML, like Gecko) Chrome/141.0.0.0 Safari/537.36" version="28.2.7">
  <diagram name="Page-1" id="g-RLM0aZ9QAsO2ExrJLK">
    <mxGraphModel dx="2497" dy="1415" grid="1" gridSize="10" guides="1" tooltips="1" connect="1" arrows="1" fold="1" page="1" pageScale="1" pageWidth="850" pageHeight="1100" math="0" shadow="0">
      <root>
        <mxCell id="0" />
        <mxCell id="1" parent="0" />
        <mxCell id="HEUI8vA9hFR7EpyzuyXa-12" value="" style="rounded=0;whiteSpace=wrap;html=1;fillColor=#e1d5e7;strokeColor=#9673a6;gradientColor=none;fillStyle=auto;" parent="1" vertex="1">
          <mxGeometry x="670" y="530" width="220" height="260" as="geometry" />
        </mxCell>
        <mxCell id="HEUI8vA9hFR7EpyzuyXa-2" value="" style="sketch=0;outlineConnect=0;fontColor=#232F3E;gradientColor=none;fillColor=#232F3D;strokeColor=none;dashed=0;verticalLabelPosition=bottom;verticalAlign=top;align=center;html=1;fontSize=12;fontStyle=0;aspect=fixed;pointerEvents=1;shape=mxgraph.aws4.client;" parent="1" vertex="1">
          <mxGeometry x="260" y="454" width="78" height="76" as="geometry" />
        </mxCell>
        <mxCell id="HEUI8vA9hFR7EpyzuyXa-4" style="edgeStyle=orthogonalEdgeStyle;rounded=0;orthogonalLoop=1;jettySize=auto;html=1;" parent="1" source="HEUI8vA9hFR7EpyzuyXa-3" target="HEUI8vA9hFR7EpyzuyXa-2" edge="1">
          <mxGeometry relative="1" as="geometry" />
        </mxCell>
        <mxCell id="HEUI8vA9hFR7EpyzuyXa-3" value="" style="sketch=0;outlineConnect=0;fontColor=#232F3E;gradientColor=none;fillColor=#232F3D;strokeColor=none;dashed=0;verticalLabelPosition=bottom;verticalAlign=top;align=center;html=1;fontSize=12;fontStyle=0;aspect=fixed;pointerEvents=1;shape=mxgraph.aws4.user;" parent="1" vertex="1">
          <mxGeometry x="30" y="452" width="78" height="78" as="geometry" />
        </mxCell>
        <mxCell id="HEUI8vA9hFR7EpyzuyXa-49" style="edgeStyle=orthogonalEdgeStyle;rounded=0;orthogonalLoop=1;jettySize=auto;html=1;" parent="1" source="HEUI8vA9hFR7EpyzuyXa-5" target="HEUI8vA9hFR7EpyzuyXa-12" edge="1">
          <mxGeometry relative="1" as="geometry">
            <Array as="points">
              <mxPoint x="499" y="630" />
              <mxPoint x="499" y="660" />
            </Array>
          </mxGeometry>
        </mxCell>
        <mxCell id="HEUI8vA9hFR7EpyzuyXa-5" value="" style="sketch=0;outlineConnect=0;fontColor=#232F3E;gradientColor=none;fillColor=#232F3D;strokeColor=none;dashed=0;verticalLabelPosition=bottom;verticalAlign=top;align=center;html=1;fontSize=12;fontStyle=0;aspect=fixed;pointerEvents=1;shape=mxgraph.aws4.client;" parent="1" vertex="1">
          <mxGeometry x="250" y="592" width="78" height="76" as="geometry" />
        </mxCell>
        <mxCell id="HEUI8vA9hFR7EpyzuyXa-6" style="edgeStyle=orthogonalEdgeStyle;rounded=0;orthogonalLoop=1;jettySize=auto;html=1;" parent="1" source="HEUI8vA9hFR7EpyzuyXa-7" target="HEUI8vA9hFR7EpyzuyXa-5" edge="1">
          <mxGeometry relative="1" as="geometry" />
        </mxCell>
        <mxCell id="HEUI8vA9hFR7EpyzuyXa-7" value="" style="sketch=0;outlineConnect=0;fontColor=#232F3E;gradientColor=none;fillColor=#232F3D;strokeColor=none;dashed=0;verticalLabelPosition=bottom;verticalAlign=top;align=center;html=1;fontSize=12;fontStyle=0;aspect=fixed;pointerEvents=1;shape=mxgraph.aws4.user;" parent="1" vertex="1">
          <mxGeometry x="20" y="590" width="78" height="78" as="geometry" />
        </mxCell>
        <mxCell id="HEUI8vA9hFR7EpyzuyXa-47" style="edgeStyle=orthogonalEdgeStyle;rounded=0;orthogonalLoop=1;jettySize=auto;html=1;entryX=0;entryY=0.75;entryDx=0;entryDy=0;" parent="1" source="HEUI8vA9hFR7EpyzuyXa-8" target="HEUI8vA9hFR7EpyzuyXa-12" edge="1">
          <mxGeometry relative="1" as="geometry" />
        </mxCell>
        <mxCell id="HEUI8vA9hFR7EpyzuyXa-8" value="" style="sketch=0;outlineConnect=0;fontColor=#232F3E;gradientColor=none;fillColor=#232F3D;strokeColor=none;dashed=0;verticalLabelPosition=bottom;verticalAlign=top;align=center;html=1;fontSize=12;fontStyle=0;aspect=fixed;pointerEvents=1;shape=mxgraph.aws4.client;" parent="1" vertex="1">
          <mxGeometry x="240" y="728.5" width="78" height="76" as="geometry" />
        </mxCell>
        <mxCell id="HEUI8vA9hFR7EpyzuyXa-9" style="edgeStyle=orthogonalEdgeStyle;rounded=0;orthogonalLoop=1;jettySize=auto;html=1;" parent="1" source="HEUI8vA9hFR7EpyzuyXa-10" target="HEUI8vA9hFR7EpyzuyXa-8" edge="1">
          <mxGeometry relative="1" as="geometry" />
        </mxCell>
        <mxCell id="HEUI8vA9hFR7EpyzuyXa-10" value="" style="sketch=0;outlineConnect=0;fontColor=#232F3E;gradientColor=none;fillColor=#232F3D;strokeColor=none;dashed=0;verticalLabelPosition=bottom;verticalAlign=top;align=center;html=1;fontSize=12;fontStyle=0;aspect=fixed;pointerEvents=1;shape=mxgraph.aws4.user;" parent="1" vertex="1">
          <mxGeometry x="30" y="728.5" width="78" height="78" as="geometry" />
        </mxCell>
        <mxCell id="HEUI8vA9hFR7EpyzuyXa-11" value="" style="sketch=0;points=[[0,0,0],[0.25,0,0],[0.5,0,0],[0.75,0,0],[1,0,0],[0,1,0],[0.25,1,0],[0.5,1,0],[0.75,1,0],[1,1,0],[0,0.25,0],[0,0.5,0],[0,0.75,0],[1,0.25,0],[1,0.5,0],[1,0.75,0]];outlineConnect=0;dashed=0;verticalLabelPosition=bottom;verticalAlign=top;align=center;html=1;fontSize=12;fontStyle=0;aspect=fixed;shape=mxgraph.aws4.resourceIcon;resIcon=mxgraph.aws4.api_gateway;fillColor=#e1d5e7;strokeColor=#9673a6;" parent="1" vertex="1">
          <mxGeometry x="750.5" y="491" width="59" height="59" as="geometry" />
        </mxCell>
        <mxCell id="HEUI8vA9hFR7EpyzuyXa-14" value="&lt;h1 style=&quot;margin-top: 0px;&quot;&gt;API GateWay&lt;/h1&gt;" style="text;html=1;whiteSpace=wrap;overflow=hidden;rounded=0;" parent="1" vertex="1">
          <mxGeometry x="700" y="541" width="160" height="51" as="geometry" />
        </mxCell>
        <mxCell id="HEUI8vA9hFR7EpyzuyXa-22" value="" style="shape=image;verticalLabelPosition=bottom;labelBackgroundColor=default;verticalAlign=top;aspect=fixed;imageAspect=0;image=data:image/png,iVBORw0KGgoAAAANSUhEUgAAAm0AAAJtCAYAAABkC0e+AABUdUlEQVR42u2dPWgd17q/hYsUKVykceNGjQq5MtLWluLLJX+CIYUJMRxMwCliCCYYg10cFwFzIKRQpUYpTFARUKEmBoOxCRjBKdTYRVwETBDEmKAiKi4KqDi+HHHRfz3KTM72tj62tGf2rLXm+cHDyfGX9p5Zs9Y77+fYmFJKKaWUUkopVbFOVYxSSimllOrV5OTkO91u9/Tc3Nx74X/PzszMjAcmOp3Ouenp6fOBmdnZ2Q/Cr10Kv3Yl/JlrgeuBW+HX7oRfuxv+ez7890JgMXAvsNTD8gH0/pl7xd9d4N/i3+Tf5mcUP+saP5vPwGfhM/HZ+Ix8Vj4zn734Dqf5Tt5ZpZRSSsWuUxgtU1NT7wKGDEYNhk5heF3FGCoMIwytpfDf98P/Pg6sBZ4H1gMbga3A68BOD7sN0fsZXhefbaP4rM+Lz/64+C4YgguFQcl3vcp3L67BONekvD6Fgad3TymllFL1CIMjGCRn8DQFY+QCRknhkcIYWyyMFwyZF4GXgc3C0Nlu2PhqwtjbLr77ZnEtuCZrxTVaLIy7a4Vhx7Wc4NpyjV1pSimllDpKp/o8ZRfwGBVG2VKfUbbZMkOsTgNvs8+o41rf5doXBt1fnroxPXRKKaVU+ww0DAHytAqP2fUiT2wl/O+zvlClxlUz/BWSLe4J92aee1V46M5zDzXklFJKqYyMszLHrMgvI/H+fmEIvCxCeRpJacE9e8k9LO7lfOGZ+yuHTmNOKaWUithAKyozz1LxWHhkFoqE//UW5pa1MdS6Xdzrx0Vl7PViLZy1AEIppZRq0Egjeb1oRXGlCG8+NudMDsiZe1x45K6wZlg7GnFKKaVUDSqrN0lOL3qWLRWFAZsaJ3JMNou1s8RaKtaU1atKKaXUEJ60MtSJkbaiF01q9sZR7HCrDKnqiVNKKaX2UZGPdqYoGLhBF/+iWGBLw0JGzFax9pZZi6xJ1qaTH5RSSrXaUGM0UtFBf7HHSNOTJjF54kojbrHo3XdOA04ppVTu2gt5Fk1T7/RUdtoPTVLqH1dWqN4p8uEMpSqllMrDm1aMf7pctOBYszeaZNYzbq1Y25cNoyqllErOUGOeJO0Vwv/eK5K8zU2T7HPhirV+r1j7ExpwSimlohPtEuhGXwwCLys9zU2TNufClRWpPBPjthRRSinVpE4VHrWrRd+0l+anieybB8ezsVQ8KxNj5sAppZQahaFG4nWRo7ZUeBM01EQGN+BeFM/OZYsYlFJKVa5wuJwOXCzGRT3XUBOpxIB7zjNVPFun3WmUUkqdSOTgFHMamUiw6sgokVpHa60WY7XOm/+mlFJqEO0NYi+q3ygo2PBAFRkpPHMrPIMOtldKKXWQV40RUneL7u/2UhNpuAcczyLPJM+m3jellGq59KqJJOl9U0op1RKdYn4iY3gKr5pFBSKJFC8Uz+wdnuExQ6dKKZWtV+307OzsBwy+LuYnegiKpAvP8CLPtJWnSimVj7FGCPRq4L7jpETyG5/Fs80zbuhUKaUSFaNzwkZ+wyHtIu0ZXl888+PugEopFbl6hrXfLZrgOv9TpH1zT58Xe4BD65VSKkZjjbYAxcSCdY01EY039gL2BPYGjTellGpYZX+1orjgpQeViOwDe8Oi/d6UUqo5z9qFsBHfc7yUiByj39s99g49b0opNRrPGsbaks1wRWQI422JvUTPm1JK1edZW9KzJiIVDqpf0vOmlFLVGWvni5w1PWsiUpfnjZy38xpvSil1fO2NmiqqQS0wEJGRFCyw5zgiSymlBlRPnzVHTYlIIyOyyj5v7shKKbWPinFTN4qmuB4cItI0NOm94XgspZT6j7F2OmyMV8IGuWpTXBGJsEnvKnuUg+mVUq0Vpfazs7MfFIPcnQ0qItEPpmfPsk2IUqpN2isyKCpCbd8hIqm1CVm0WEEp1YZQ6JnArbDpvXDzF5GEecFeZr6bUirLUGjY5C6btyYiueW7sbcZMlVKZREKLZrjMslgy01eRHLMdysmK5w3ZKqUSjYUGjayO/ZbE5G29HdjzzNkqpRKRoyBCZvWRUOhItLWkCl7oCOxlFJRiw7igQWrQkXEKtO9vdCpCkqp6EKhpwPXnGYgIvLWVIWrFioopaJQUWiwbINcEZF9YW9cLgoVlFJq9Jqbm3uv2+1et+eaiMjAvd2uOw5LKdWEd20l8NqNWERkYNgzV/S6KaVG4l3rdDo3bOMhIjJcexD2UvZUTxallN41ERG9bkqpNqmnMtTcNRGRenLdrpnrppQaSkXftXtWhoqI1F5hes++bkqpY4tO3gxBDm9+z9xMRURGQ7HnXnaaglJq0HDo2cC8Uw1ERJqZpsAezF7siaSUOlDT09MXwobx2E1TRKRxHrMnezIppfq9a6eLRrkv3ShFRKLhpQ15lVJ/KWwK4xYbiIhEX6Qw7omlVHt1Kry9XQwbwZqboohI9KyxZ7N3e3wp1b5w6K2wCWy4EYqIJMMGe7fhUqXaFw51soGISJqTFAyXKpV7OLSoDl0N7LjxiYgkC3v4alFdarhUqZxEo8ZiFJXVoSIieVWXXrMZr1L55K+dCQ/2QmDLDU5EJDu2ima8ZzzxlEpYnU7nXOC+4VARkbzDpez17PmefEolmL9GabizQ0VE2gN7vm1BlEpIU1NT7zrdQESk3XlunAWeiEpFrLm5ufeKYe9ONxARafEUhU6n8zVngiejUhEqPKQTgRX7r4mISHEWcCZMeEIqFZGmp6dnZhxHJSIib7PGGeFJqVTzOhUeyEuBF25MIiJyAJwRl8YsUFCqGRUNcyk4cH6oiIgcBXNLr9uIV6kRi+RSkkwtOBARkeM04rVAQakRKrwpnQ0P3pIFByIicsIChSXOEk9UpWoUVUDFhAM3HhEROTHFWWJlqVJ1yApRERGpmFUrS5WqVnsjqcLD9dwNRkREKub57OzsB2NWlio1nKjy6XQ6V2YcSSUiIvWxzlljZalSQxhsRUuPTTcUERGpmU1bgih1AjHoNzxAdyjPdiMREZFRtQTh7HHYvFIDKrzpnLYHm4iINMTesHnOIk9kpQ4RDQ/DA7NoDzYREWm4l9uiTXiVOtjDdqZomrvjhiEiIg2zUzThPeMJrdSbBhtTDlY02EREJDLDbcXpCUoVCg/EuFMOREQkVoozatwTW7XdYJsIPHZTEBGRyOGscuyVaqfCm8u58ACsuhGIiEgirHJ2eYIrDTYRERENN6Xi0fT09PkZB7+LiEi6rGm4KQ02ERGRRAw3zjRPdqXBJiIiosdNqcZy2DTYREREw00piw5EREQsTlDqRCr6sGmwiYhI9oabfdxUygbbuI1zRUSkZQ14nZyg0hJz2hxNJSIibYOzz1mlKiWD7czMn8PffYBFRKSNMGT+jBaBilpzc3PvhcW6FNjxoRURkZbCGbjEmahloGI22BY12ERERPbOwsVut3taC0FFpampqXc7nc7XYYG+9kEVERHZ4zVnI2ekloKKxmALC/NOYNsHVERE5A04G+9MTk6+o8WgGhWLsNvtXg8LcssHU0REZF+2OCs13FSTOtXpdK6ExbjpAykiInIonJWXOTs1H9TIFd4aLoYF+NIHUUREZCBezs7OfqAFoUaq6enpsPZmnvsAioiIHIvnnKFaEmokmvlznuiaD56IiMiJcE6pGklI1PFUIiIiQ+K4K1WreqYd+MCJiIgMz5LNd1XlsnmuiIhI5dh8V1Wrnl5sNs8VERGpoYfbmK1AVEWFB5cCGz5YIiIitcAZe0mLQw2lorXHCx8oERGRWnlhKxA1jIfN1h4iIiKjY81WIOqklaIrPkAiIiIjZYUzWEtEDVwp2u12560UFRERsaJUxatTVoqKiIg0ynY4i69ZUaqOMtgcAi8iItI8LzmTNdzUvup0OufCAnnmgyIiItI8nMmczVoo6g2FhXHGmaIiIiJxUcwoPaOlov4qPAgLYyGw4wMiIiISFTsUB1qYoMo8tmthUWz5YIiIiETJloUJiokHFyw8EBERib8wgTNby6WlCgtgPLDqgyAiIpIEq91u96wWTPsKD06Hm3/PPDYREZF08ts4uznDtWTalcd2a8aJByIiIqnxmjPc/Lb2eNlooLvhwhcREUmSjaLxrmpBHtuaC15ERCRpOMvHtWzyz2NzsYuIiKSP+W0Z57E5CF5ERCQfGCx/3fw2+7GJiIiI/dvUiMOiZ8NNfezCFhERyZLH9m/LQJOTk+8ws8x+bCIiIvn2b+Os58zX8kk4jy3cyMuBTRe0iIhI1nDWXza/Ld32HhPB8n7mQhYREcmf4syf0AJKs73HkotYRETENiAq7vYe12zvISIi0so2INcMk6bT3uN8uGkvXLgiIiKt5AW2gBZR5Jqbm3sv3KwVF6yIiEirWcEm0DKKOCza6XRuhBv12sUqIiLSal5jExgmjTssuu5CFREREWwCw6SGRUVERMQwqTphi4/rhkVFRESkP0xaDJVXVouKiIiI1aRq0Ca6yy5IEREROYTlqampd7WcbKIrIiIicbPd6XSuWk3akMINmAg8dyGKiIjIUTibtCFNTk6+Ey78gotQREREjsECNoSW1Ghz2S6GC7/p4hMREZFjsIkNoSU1OoPtTLjoqy48EREROQGr2BJaVCMoPggX+05gx0UnIiIiJwAb4o5FCaPpyeaoKhERERkGR1zVKfqrhIu85EITERGRCliyd1t9LT4uB7ZcZCIiIlIB2BSXtLAsPhARERGLElo5+eDWjAPhRUREpFoYKH/LooSK1Ol0zs04EF5ERETq4QW2hhZXNcUHiy4oERERqZFFixKG1Ozs7AczTj4QERGRetnE5tDyOnnxwelOp3PfhSQiIiJ1g82B7aEFdoLig3DxroSLuO1CEhERkRGwje1hUYItPkRERMQWIFl62W7Y4kNERERG3QIEG0Rv2+CTD8YDz104IiIi0gDYIONaZIN52e6Gi7XjohEREZEG2MEW0ds2WCPddReMiIiINMi6DXcP0eTk5DvdbnfehSIiIiJNe9uwSbBNtND20fT09PlwkV66UERERCQCXmKbaKHt42WbcVyViIiIxMWi3ra3vWwXwoXZcHGIiIhIRGxgo2ipvTkUfsmFISIiIhGy5DD5N71sDoUXERGRGNnU2/afXDa9bCIiIhK1t631uW3msomIiIi5bWnkst1zIYiIiEgC3GttbluwWGfMZRMREZGEvG0zbc1l08smIiIiKdG+vm2Fl83pByIiIpISL1vlbXPGqIiIiKRKq2aShi88EVj3xouIiEiCYMNMtMFmO9XpdO6GL7vjTRcREZEE2cGWwabJ3cs2HnjuDRcREZGEwZYZz9poC5bpDb1sIiIikoG37Ua2Btvc3Nx74UuueaNFREQkA9awbXL1sl0NX3DbmywiIiIZsI1tk53B1u12T4cvdt8bLCIiIrmAbYONk5XRNjs7+0H4clveYBEREcmILWycrNp8hC+16I2VUTM9PV0JXsu014DXQcTnqWYWs2n/0el0zs3YTFdGbJi9//77u//93/+9+//+3//bvXjx4u5HH320e+nSpT0+/vjj3U8++eSN/y1/D/izH3744d7f5d8Ib1EadQnyX//1X1nA+vN+uj5dk1Gzjq2Ti5ftjm0+pCrDjP/fa5BhcH3++ee7t2/f3v3HP/6xu7CwsPv999/v/vDDD7uPHj3a/ec//7n79OnT3Z9++mn3559/3v3ll192f/3117fg14E/w59dW1vbffLkye7Dhw/3/i3+Tf7tb775Zvfvf//77hdffLFn8GHc8VnYyPYzIr1/zcChwnp48OBB8rDuWGPe13y4efPm3r7iesyn/Qe2TvLetm63eybwzBsqJ/WccfjiKfv00093v/zyyz2jCQMKY2x9fX33999/393a2trd3t7e/fe//71bt/gZ//rXv3b/+OOPvZ+NwYdRyAbMZoZBhxGJMVlubBpxzcB94B6lLtbbV1995T3NZH/729/+trd3pSj2WV6QvZdvg62DzZN6aPRK+DKvvaEyiKHGf+M9I0SJgYYRxJsdnq+NjY2RGGVVCIMOrx2GJQYmBy4bNV45PHIacKMDbxsHTeri5YA15LpJe59jf2NPS1Hsv+zJhkYP5DU2T7IG29TU1LvhS6x4I+UwbxobQK+RRkgSAw3vQi5is8OQI/S6vLy8Z8ThOez3xLk26skb4prnIEL1HPqulXRD9vPz88nuba6/gVjB9knSaAs3Nnz+mQ1vovQbaxgr5INhvBBWxCuVgzdkUP3f//3fnmFK3hyGKmE8QsBWZ9Wz5ngpIISduv73f/93Lz1AT0ea6zDlcD0vnHp6B2ID2yfJAoROp3PXGyi91ZwYamVyOJsXxov6M08Eo6I04Ho9cK6hatYghSM55Ldh7H/22WeujcTWHxXpvKSlKHKGKZxwzQ3cbPducgUJFiBI+YCzWZWVUq9evUomL60p/c///M9eLhxeSIoZynYjrqnhQ1N4qXIIu5NCQH6k6yKNfZAQ/XfffZfkSyreXfPYWlCQUBQgOGe0pV41Nilc6TzsFBFoqJ0shEqFGZs9npWygMF1NlwSOC8POeRIepCmAxXlqaZ/0DbJPLZjs51UQYIFCO011ni4KShYWVnJIhQVk/cNY4MQn9Wnw61TQvTk5+SwJlgProP423uQs5ui+NzmsZ2Y5WQKEsINPm8BQrtCoIRq6N1D2IYqSVVfbgn5gL3Gm+vwZI1NMXpSF2F00g9cB7b3qOOlgOfEezlUQcL5VPLZbnnD2uFZw1gj94oEW3If1GiEYYznjbCpOW8ny28jvJh62J4Q+rfffmuYNOIcyhT3RdaV4fdKcttupWCwnQ4fdtUblv8bJHkaGGs59VNLTYSgyXmjYMG1ebw1zAsH+To5hElJSfC+2t6jKoON58JCl0pYxSaK3Wi7GD7opjcr3yooDgjCoBpr8YgcLTyetApxo23HOKFeUexDLzrvve09zGOLik1somgNtsnJyXfCB5z3RuW3CeEmJxRHSM6ctTiFEU3+DJMW7PE2OORipr6m8Y4wLo2XKu+p7T2GyZk1j63yEOk8tlGsXraz4UM+90blBW/w5M3Q1FPFL2ZU0sDYMv3BD1nWd+qNnjE8HeTtS8BJVbaRoQm697FSnmMbRWm0hQ93ecbh8FkdZmxAhF6cXJCWSH7G60aYQ6/b0WudEWJUYuYQJie/0fvdXDuZVNt7/Pjjj77o1QM20eUox1aFD7bkDcoDDnt6rbVpHmiOIl+LghHbgxx94BL+x0uZeph0eXnZ3EYbN5vHFhdL0Y21Ch9qIvDCm5O+d42E9lTfFtXbwvAmxwZvkpvy4bD2Uy+w4X7zPbyfoyXV9h5lWN29oVawjSZiG1t11dBo2hBW4S1d71p+wgND+K8sUpD9X1rwUJHQn3o6AB5WPSejbe+RYs4vRib5nOax1R8ixUaKbWyVodGEK0Np40Humsq/SIG3ahvy5tmuoVeE6sxRGk0+ZKrrhTw2+7GNLkQaTRVp+DDjgZfelDTzMObn57MY6aMGE2X93HMP9Pwao/Z7Uagi9p5aeaw3NgqwkcZjafVxzdBomuFQ3sYdP9U+kbdFKNw8t8NHEKWe34ZnlZC499j2Hv0vbraHGX2IFFspltDoijckLfAkGA5VhEdsEXFwfluq1YD991ivqu09StGPzXm1jbGCzWTVqAy80ZBwSguIV69eabGoPZGPY4HC/s8LBm3qLzd40gmHe0hX394jxbCoeWwtryLtdDpXwofY8Wak4Tlg88Y1rlSvaMqK99Vn5e3nhiKd1HM+qWzk/npQt7u9h3lsjbODzdTorNHwIe55I9J4M6RXl0Pe1WEb+hdffOEzs09+G+N9Us/9pOWLHpZqilR+++235O6/Y86i4V5jVaTdbveModE0Whgw3YBcBqUOE4nreJZ8dt5+6Xn48GHS97acLWmYtH3jzso8NvuxxREixXZqctbotjch3k2GYe+PHj1ydqgaWHgRNNzefpYIK6U+KYQwL95UvW3HB4Mn1fYeT5480csaD9hMjcwiZdbogjcg7iRqHlYNNnUSj5uh0v1bPKSe30bhCd53D/Dj7ac3b95MMh/YPLYoWRj5LNIiNLrmxY/XYEvRja/iMtxMXn87vy1Vb0spPruhsuO396BYJ8U8NroFeB+jY23kIdKwkC8YGo3bYNPDpoYVB5XtQN7Oa8KDnbLwGOE50iDPt71HmcfG1Abvc3whUmyoUeez3fHCx5nDlvqBouISfcrwNLjx/+c5w5DFE5n6fWW/8L4eDqPAUqwc5hxw4knU3Bl1q4/HXvT4PAAUHShVxwFgHtSbfPXVV7vb29tJh0m///57PTGH7KmfffZZku09yGNzfFn0PB5Z649Op3Mu/MB1L3o8mwuVQal26K7i8OHwZMA33o+nT5/uPnjwYO9AIjxAQ2EOWHI7SCQnLFTCrwFv07RDoJcd7VEwUggNsmGTeN72/nZcY66L45D+88xh7LBeUn7meG7MecqrvYd5bMmwPrLpCMFouzrjgPioJh2kfngcR4QqGMOFYcX3xuCiRQUVUhivXA8OVJLGy55UXKfD6E00J0Gbv8+/g3eJZHw2QYw6DGOMOQ67thnIXHeuAddHw+0/PRCpxkxZtDEx/J1Hew/z2JLiNbbUqEKji17weDYXDtKcPUFsRBhpvPXyXWlFQbEFXp9+g6yOg7kXNkMOakIPeO8w4jj0Ug6T+Rbfzg75vcKLykuK9/RPUm3vYR5bcizWHiKlTDXwzIttXk3dhhrzEjGK+I54AjCY6jbSjmPElZ45jDg8fXj98MKlPu7oKGFAk+vjwZB+snpvmJTnTCP8z+r7FNt7kBpiHltaYEvV3vojLIjws2a2vODNby54nFJ/w+8Xb7d41DgE2TxLN3/MG1H5+TDgeMvlLR1jM7d70ytCglYevpmigLcq5ZB525uwpnwf9YAnyxY2Vd35bDfCD9rxYjff7JGS/VxEEQGFAxiiZbJ77MbaYQYcYWsOQIogCJ/mOPfVysO32+2k/kxSwNPmYhNeFlNLNbFZctLsYFPVPbpq2QvdfKVoLq09CLWx4WDglAnuuRwY5fcgfMphQFVrTsabIbX9vd8pj7nCYPnmm29s72Eem4yO5dpGWnW73bPms8VR1ZT64U++GjlgGGuEFXPecEpDlI0VIwdvTC7GG3k0zjV8c8wV3tWU89swXNqUs5hyew/z2LLJaztbi9EWNqQPzGdrFvIWUqxq6vXOkDPCRpO7sXaQ540DgoM99Y76htQOHnvENUlZP/74455Hvw33NNV5suax5ZPXhm1VS2g0WIO3vMDNHQZ4NEgWTlF4lkheJ0mfZN82H/DldycvkbywlMNpCK9SG0NqR+WcpliB2HtPebEo+xzm3t4jtWcQA5NIRVlRL8l7225VHiKdmpp6N/zjK17g5t7eU81jo8iA/mpl3oUemf/cV8LdtAvBoE258pDcRMOkb95bjAG8ISkXB9GDLtd7mnJ7D0K55rFlxQo2VuX92cI//MKLa57Mcd4G2VzY+NsWCj1JTg0hmpS9brQ5MUz6duPrlPPbcjUOett7pJjHZp/E7HhReb+2sEAumM/WXMd13npTy7fAfe+Q8cHvM4YtXrdU20ZQeWiOzduV3uSHpSrSGjA8cwyTUtGdWmNyK7azZRMbq2pP2y37szWz6adW1UT1GYe3MypP3u8Lr1WKHhoMTpvuvp2LmnLRCd5fWpnk1IonxfYeGNBlHpvPV3792oq8tkrnjS55YZsJi6bUHoJDG8+g92/4HEbufWqVwuXA6jYksB+36jvl/DZ6DOZgjJepCPQ2M1QtkbFU2RzSIp9tzYs6+rdB+pmlIsJAJPa6qVQXLr19+/Zekn9qCezm3Lyd34aXJNVik7JaMfWu+zxThHtTuw/O+20Fa5XltYWFcp6Yqxd1tJ6Whw8fJuNdIZxn/lo94LlMrcKNPmVtb+3S/0zzfKTYwLUUXl8qYlO+D+SMplbsYx5bq/Lazlc1b/SKF3S08JCmMAOPN1Z6jbWlEWeTeVGEqFI6aDjgXRPp51L1ipeHFL3pZXuP1Ip8evux+SzlD7ZWVU11572go01ET8GzgocNg802D6Mz3FLy1PBZXRv7v5ClVrXYK575lIyIlNt7mMfWuia780M32S2KEB57QUeXc5HCbFE+3/LysodyA532acSbgvAUG9bZ34Dg2UlVGJyptXZJ0VA2j62VPB66GIFBpjbVHd2GzkzOFHqykbPkG2BzhlsqoVI+p+tkf296SuHufv3yyy976zD2+1ruqakV85jH1uomu2erGBJvEcIIIOSQggsfl729uJoPlaYSQqeJqfftbeh9llrT7N5cK4qPYi42Kftcptbeo8wTdq5oO4sRhh4eH6y+6zbVHc0GwyYee2UThoIzJuOZlJGCB4Hkb71t+/PNN98kO+Yq9vB32d4jpT6X5UuxlfitbrJ7fagihPCPLHgh64c31thbfNAzDsPS+xUP9HGL3dDHKNHbdnBrHzxWqfZvY9JDrC9xKbb3MI9NsLlOXIwwNzf3nkUIo9m82WBiTpTls3Hw2uk+vga8KQwlN7ft8FYUqfXh6xUvmzEVJJU5g6m19zCPTcpiBGyvExlt4S+PB9a9iPW/bcc+VNoci/i9NbHntlFxqNF28Etbal6hXk8qYd6YohapVef25rH5jLQebK7xk05CCH93ZtuL2G4vWy5zB3P31sTuWSj7tnnP8sm/KkXD4FjCeim296CNj3usFGxje510EsJVixDqrxh99OhRtJsJb//ksbmZpGH8xzxgnoOUz+haStfjfpio0mxyMkrZ3oM8Ow1eSbkYAdvrpJWjTkIYQcVorActb/00+jWPLQ0Y5h17Y2bCuIaADm/lQg+0FMW6w1vYxH5RtvdIzeg1j032o5iMcPzK0WDt3fcC1rfJxN6XjbCopedprSnuV8xNW/Hc4g1xTR18D8n9S3XMFX3nmvDMpxheLvPYYu51J82A7XXsClKqF4K198wLWK8rP9bkYwd+p7uuuG9//PFHtAcV3kDv1eEvcymMsjssd3GUlcKpFnKQx+ZLsRzgaXt27ArSsJDOh7/80gtYH9999120ByseQMNY6R76VM/F2vuL9hYmXR9+DzF6MH5SDZNidBKut73HwXlsNMf2GZADeIkNdtx2H5esHK232i/W3BU2FENY6edGcR9jPdRt/3H0PSQ5PbWZmaXI0x1F0Un5gpKSmCRhs2k5qoIUG+wk46u8eDXBQxtr+MPig3xaSMTqbSNh3L5/ebav6M2Jrdujmtr1Yc83j00GDJEea5zVKStH6y3tjzX0sb6+vucFdENJf51xYMbqzbUgYfBQN4d8iuKFgRSQOtIsUm3vYR6bHLOCdLBihKmpqXfDX1rxwtXX5iPGt8MmS/alHubn56P06HKgs9a8R4MZ3xz2KYqCGObj2t7jz9nN5rHJMVjBFrNyNIKwVaxvzry16mXT2zZKr0OTzVhTuo8c9rTTSFEUnlS5r6Qyb7dXzm6WWitIZ/6cObrhhWtXAYKtGPL1tsWY28ZBpudhcEOF+Z4ksacYJqVYoIocxjJSkVp7D2c3ywnABhsftN3HhfCHt7xo1RttJM7GGK7CdU/FoQdofmvuk08+iTb3xxeFwSF5PeZm3EcZ6FQMV+E5jrl59EEeZVvcyAnYwhY7zszR11606svTY50zymEwir5KYk/AXtFfyyHyx/PUp9aTrLfIaZgXwxSLMsxjkyF4PfAM0vAH73rB6umdFWNeioO829HzK8YZt3ymJsYepQzPaqr5bcyexWPYhvYe9mOTIWFw/N1Bc9qWvGDVH5zkpMQYGiXcgLfDgzPftcdBGauX1yrSkyXipzjm6iSGTPnCm1p7D/L47McmQ7I0ULsPB8W359AkSRhj0vvUjnzKGCvu6FnoS8Pxez0+ePAgSW8bUx4G7dFXftdYXzgOexE2j02GBVvsyLYf3W73TPjDa16wdoRGGXVkAUJ72n+QVxRjiNQ1eLI9JdZK9KOEETaIoY5XkernlNp7OFdUKmQNm+yo0OhE4IUXq1rwcsQoxwm1K6wW45xGvL2EzDzkjg+Na2PMVTxKGGEYY4f1LUuxvYd5bFIx2GITR7X7CH9mZtOLVe1hGWMow8Oyfd4Zkthj9FqQoG7j0eNDxTdtU2KdMXtUZSUFMvvtPym29yj70ZnHJhWyiU12lKftElULXqxqw1IxJtHyBksPLzeYdq1FOtTHJj6TOUAnu6dMlXjy5EmSYVI+935TMVJs72Eem9RRQYpNdlRO2zUvVLWb6s2bN6MsVWfDNAG8fZ6ZGEOkzKi09cfJ95gUh6ejg+Yd04g3pfYe9mOTusAmO8xmO2WPtuohfBGjyCnx/rSzijTGcUhWMQ+fN5uSodPr8S8N9rLAIsaCGfPYpKEKUnq1ndrXYpucnHwn/KFFL1S1pfm0NIixYk/PRjvXJF31Y6xkJu/TopiT31euHZMvUsxvY9TTRx99lFx7D64102TMY5MaWcQ2s0fbiDZScsZirH6iVcDFixfdaFoIB0yMLxKE91yTw+03GD4YQKkJ4weDk1BpSu09zGOTRnu18Rv2aKt2EyU3I8bO5Xg1rNZrbzUzh2OMeW3mBQ2/53ANybFKTRhrKYV38VYbrZBR9Go70Gibm5t7zx5t1RJrBZT5QxbHxPYyweexBU01cB1jzFvMRVxb9lBffGUUvdqwzQ5q9zEeeOlFyjsMxeHoG2K7jTaSvWP0xlDZ6j0a/v6y95BrpeqReWwyQrDJxm2sO6J8thjL8BmzYn82e3vFmPvkHNJqe/L99NNPWljmsUmuDXaLxrpbXqRqNk26z8eYo8HBuF9DS2kXTCGIsRjBF4rq9qDUxkCZxybyFlsHNtjtdDpXw29ue5GqgZyHWF375mJ4oFOMEFt7CHKFLEaotugktYHr5rGJvME2ttlB0xBuzTjCqhLomRRrTgmHtYeiRhvDxmNMVqdJrOuz2l6RMc4+No9NZCB2sM0O8rQ5DaHCjTLGfBLeuD0UpSxGoM1GbKJfl96M6vNrY5w5m4rYy81jkwZ7td09KKdtwQtUXRJwjF3nnfEovY1YY1yj5Fw6GaF6aPNiftvJ89hcQ9IgCweNsFry4lSXABxjEQIbEB4WjTbXKMUoMXqDy8kI3qd6mirH2Ow7VhGZsKelRMDSW6Osut3uaUdYVXcg0twyxs2RA5HD2vvkGiU/58cff4zyxeLTTz/1xaImQz3Gex6jKNKhwtoWNBJBePQ+Ntp+0xAee4Gq2Ry//fbbaHMzOKy9T0IIkma2sQkPNUUSHpT15TLG2D/SPDaRA3n81lSEYMWdnXHuaGVhiFirtZ48ebJ3WLMRSbthrcb4coGHgzYVHpb1wUzklOZ8NpXH5hqUSFjDRttvhNVzL041IYgYu82jR48e7SWg4/Lnc0o74f5DjIPjETN7rSCt18tKlW5sffpiEG1weGlw/UlEYJuN9xttE4F1L87wRtvHH3+8+8svv0T7Bkl1ngjEGibDI2wuUb37FMUeMc5GblrksdmPTSID22yiv0fbufCLG16c4TdDkqgtrVfq5KKnGB5hD85696rPPvts99WrVy64njw2XrpddxIZG9ho/cPiz884d7Sydh+W1St1cvHS4wzS0UCzbfPb/lxz5rFJpGxho/UbbeHXZ157cYY32kjyVUqdXLz0OIN0dK1fqCJuc36beWwSOa+x0d4w2sJi/WDGuaOVwMOvlDq5MCB4+dFoG90El6dPn7Z2vdmPTSJnBxutvxDhkkZbNe0+qMpSSg0nKlvdU0ab1hHjWLO6ZR6bpGC0YaP1FyJc0Wgbnvfff3/vrU0pNZwI2bmnjPaFk5FNjG5qizBSv/zyS++/RG+0YaP1N9e95oWppv+RZfRKDS/GLZljNFpvGyHCtrx0YpyaxyapgI3Wb7Rd98JUY7TFOIRbqdREjhXPk/vK6PtMtmEPM49NEjParvcbbbe8MMPDJuBcP6WGFw2q7dXWjOFGyDDnXpMYpbaUkcSMtlv9hQh3vDDVVGHZrFKp4cVzxHBzD9Zm8tsoBMmx3yTGKEap60oS405/IcJdL8rwRhtvbxsbG564Sg0pksTp2O/h2twMZWYV5yT7sUmqYKP12mynut3uvBemmhFWbSybV6pq/fHHH3aob3g/w9O5vr6ezZoiT5KZq64pSTA8Oo+t9pfRFn5xwQsz/CZHF3fnjipVjVfk9u3bHrANQ5NjDGhDoyKNstBvtC16UapJ4M1lg1OqSTEVgbmYHrDN7mn0nvz222+zyW+zma4kymK/0XbPizL8Bnfz5k2HLytVkWj26uHa/L5GSDGXMVe8DKysrOzNXHVtSULc6zfalrwow29uhHM02pSqRo6yiqfAihYsOYXe//GPf3h/JSWWNNpq2NzI/2BDUEoNL8JyVvo5JaEO0VLG6mTRaGv5BkcOTptm9ylVp7777juNtob7tRGizvVF9MmTJ1aTSrJG27IXRaNNqZj0/fff7yXCu780s5/hicq57yTFFXhzXWOSAMsabTUZbTl2EVeqCZEwzvxRPSHNFB/885//zH6NbW1t7RWQucZEo01Pm1JqCJFLZZWfbT7q1s8//+wsUtFosxBBKaXRlmbrIjxQrjURjTb7tCmlPEgjbu+B56ltsg2IaLQ5EUEpNYQePHig0TbC/YtrnWN7j0H122+/2QZEkjHabPnh7FGlotLDhw812kYInqa2p3dQfGEbELFPW4tK5DXalNLTZnuPNNXbBsR1JxptmW98f/vb33Z///13T1ulKpA5bbb3aEK2AZEUjDYHxlew+V26dGkvL0IpNbzKPm3uL/VRtvdgkLr6j2wDIpHx1sD4RS/K8Hz44Ye7v/76qzueUhVoeXlZo832Ho16epm9quEmEbDYb7QteFGGh1BOzOXyNP5lgxZJAUcM1Wuwffzxx61s73Gc/ZLZq64XiYCFN4y2brc770UZHrwCMeeGMCCZtiRffPGFSPRgVLiv2N6jSVGcQVcAvW3SJNhovUbbWKfTueuFqSY/hDYFsYoB3LOzs3sbkEgKuK/Y3qNp8SL+0UcfuR6lMbDRxnoVfvGOF2Z4MIjIw4lV33333d5n9F6JtLu9hwVTg4siDfZOQ/XSIHfeMNq63e4tL0o1Rht5OBptImJ7j3zEpJvbt2+7jqSp8OitfqPtuhemGkhc1WgTEdt75KVffvllrxenYVJpwGi73m+0XfPCVFdCH3tOm/dKpH2wNzmxZTgxpcM2INKA0XbtDaOt0+lcCb+x48UZ3mij0ohS8Vj7XpmXIWJ7DzVcGxBffmWE7GCj9RciXNJoq2Zz/PTTT6N9m6XDvEabSPvae/Dsq2rEqELbgMgojTZstDeMtvDW8IFGW3VvtOvr69G69u0wL2J7DzWc1tbWbAMiIzPasNHeMNrCwgu/PvPai1NNddbTp0+j3GhorqvRJtKu9h6vXr3SyqqpDYj7qYyA19ho/Ubb+fAbW16c4TdJHuJHjx5FudFgTBIq8V6J2N5DDd8G5O9//7vrTepmCxutvxDhXPiNDS9ONVClGaNIRNZoE8mfsmfkv//97yQMIMK329vbyRlupMLYBkRqZgMbrb8QYSKw7sWp5g13fn4+yl5IhEk+/PBD75NIC1oPpdLeoww1LiwsRFt5f5gYXWgbEKkRbLOJfqNtPPDci1PNhonLPMbEX6qeKJRwcxHJuxjqp59+SsboIW2DpH4MH/JuU2wDwou6bUCkJrDNxvub654Nv7jmxaku+Zd8h9jEmzefTaNNxPYesexJX3755d5nL/fOjY2NJNuAfPHFF+6tUgdr2GhvGG1zc3Pvhd947MWpZuO8dOnS3kMcY+JsuUF6r0TybO+RSm4YYVHy7no9VPw3XqsUw6R4DNn73V+lYh5jo/V72k53Op37XpxqjDbc/DGGJ9gIv/rqKzcVEdt7RNnrrNw/f/zxxyTbgFCEZhsQqRJsM2y0N4y2ycnJd8JvLnmBqoGH9ocffohyYyHZV6NNJC+DjQKjlPLBCIseFE4sDdDffvvNNiAiwTbDRhvrV/iNBS9OdWAcxSjeBL0/Irb3aEp8zv6w6H4w4zPFMOmvv/5qGxCpkoWx/dTpdO56cap78719+3aUmyjl6SQru6GI5LHXkKeaSnsPRMNfGv8etgelHCZFNFi3DYhUFB69u6/R1u12b804f7TS/JIYN1KSZY/aMEXE9h6jDovu9/0+/fTTPc9Vim1AiLbYBkSGZAfb7CBP29XwB7a9SNVVkP7yyy/RbSaU03/yyScabSK29xh5WPQkhkyqYdLjGKgiB7CNbbav0RZ+89KM80crLUaIMTGYjfPzzz93IxFJHCrBUxr9RFiUgonj7D1lmPTBgwdJhkltAyJDgk12aV+jjSnyQZtepOpgNEuMYrP3/oik62UjbJhSew/6Vp70ZTHlMKltQGRINrHNDvK0McrqpRepuo2V0u8YixEwJr1HIrb3iDks2g+Ng2McD3iU8Ib6oiwnBJtsfF+jrZiK8MKLVN3mStl3jOOsCFP45ieSZnsPDKBU2nsgDMzjhkUPC5PivUqxDQjeQsOkckxevDUNodTU1NS7M84frdRoo0rz559/jnIDMc9CxPYeMYdFD3oRTjFMimhfMqzxKq1jDdvsQKPNUVbVbrCxTkZwBqmI7T1GERZljmjVbS9SK8CoOkwsrerRdv9Ao60YZbXohap2o6VcPTZ3Pp+HzdR7JJJONfry8nJSRkoVYdGDWp3EOiZwkDYgvjDLMVjcd4RVoVNORajeaKNPz9bWVnSbh5MRRGzvUWc/SBqM17G/pB4mxVtqeooM6GljGsKpg4w2piJc80JVn9cWY5NdhjG7cYjY3qNq0Qh3FJ78VMOkRDrwmvLS7BqXw8AmGztMM3822HWUVcXVXni1YtxYb968qdEmYnuPyhPuRzF3M+UwqW1AZACwxS4darTZYLceyGuLUbzteX9EbO9RpQe/rrDoQWHSGCMZtgGRCji4sW6Pp23CXm3VbyxsYjG68WlH8tFHH7lpiNjeoxLvPS+o5vs1W6wh+fRowyY71Gjrdrtn7NVW/eaLYRRjqT4bnSFSEdt7VKFHjx6NJCy6X5h0ZWUlSaPNNiByWI82bLJDjTZ7tdUX5mD+XKwh0vfff9/71ELDIEa8N2m296BQoqlQHz/zk08+STZMahsQOXaPtr4Q6ZIXrPpNhTmkMc7NY7Plrd4No11wzwkrxQRe3yY8Nbb3GE7sa8wFbfq6scemGibFq+o+LH0sjQ0ie7XVF+4gSTfGPBQ2XDeLdq1HQjKx6enTp3stctq6Fsv2Hqn1H2MeaNPGdtl0Fw9lirNJ+cyEeO2dKWXlaNGjbSCj7Wr4C6+9aNWHPCiFj1EMkNfD0a61SP5RbOLQamtuT9neI9Y94jBPPRWcMewd5ctxjPOeU/JYShS8xhYbyGgLC/9C+AtbXrTq4YGMtWeQORXt8vrGlv9TjlZr6xpMsb1HrEZGymFSjOBRtUyRqNnCFhvIaAt/eDyw4UWrJ/Tx+++/RxviwAPjvWpHK4nY8is5ZBn51sbDKsX2HuWeEVtXf64l+xiFXymGSW0DIgXYYOMDGW1zc3PvdbvdZ160enIuYu1uzoHR1kOzbR6db7/9Nrr1R75nG3sG8n0ZJ5daew/y7mIJi+YWJsXbyjNKVb/7cTvBBsMWG8hoo8Q0/KUVL1w9mwkhoFhDIIyEMRE2b8hdJOE/NpHL1cZZjCkmz6cwgok97Pbt27t//PFHkobb1taWPTTbzcpA7T4KnQpW3rwXrZ6NhLfTWMMgbBSff/65G0XG64/7y32OTaMYMG57j/a83OUQJsVTaBuQ1nra5rHFBjXamIxw3QtXX4g0xsq9mPNUpDoIu8R2iLUxny3V9h4UsMQaFs0l9NxbnIOBbGV/K42262PHUfhLlwLbXrx6NhLerumPFmvog7CCm0R+6y7WcWoYAhyubVlzfE8O4tTae1C8EntYdL9rTZgxRu/yICr7aLqHtQpsr0vHMtrCQj8f/tJLL159SbLr6+vRbhRtb3Ka67rDGI8xnxJvQpv6s6XY3iPlnFcS+r/77rtkw6QU6dgGpFW8xAY7ltFmBWn9m3ass0jL6iWHGNvceVQhILw3bfKypdjeA28o8z1TvE+ph0kRDdB9kbZy9NBiBAfH158QHnMC8sbGhm93Ga03csZiDBFhvKRqDJzUeIixeveosCgNa3MwllMNk9oGpD1gex2rCKGnGMEK0ppzWnh7ill4ZkyCzaP4hdCWa6z59h6pVTPmNBMz9TCpbUBaVTl6fBUzSHe8iO0sSCiTYA2T5uFli9Gry+H5zTff2N7DsKiezgFFG5C2eKZbys7AM0f3KUaYsYK0/mq+2Lt2E75yLqlVinWF4FNpH9HG9h4YmKmHRfcjxZzC3hcd24DkXTmK7XUio23mzxmk617EesGTFbtI4LXJY7rendjmjPaGRnOfd5tqew/EpIYcJ6SUo9xSDZMSAWmTh7plYHONn8hoo3oh/OXHXsR6N3Q8Da9evYr+7Y6mu77dpbW2CKMQ3op1TaXW82uY9h4xp0EcFIbL9UWtjHKsra0lGyalDYjTa7Lk8UkqR/+qIA3/wIIXsf5NPYXk2N7qJe9bGsUHJJDHuq4IFeaem5Nqew/mddLTrw25nqmGSRGFbBifGm5ZsXCiytG+cVYWI4zA2/b7778nsZnTndvChPjhPsUaFkVUUeb8ApBy0jv3hrB17sZAGSZNrclxr7eaF/423Ku2FCEce3xVv8Ki/iD8Q5tezPpL0WNuttsrjMvc38JTBw8CSf4xG/85zxotPZ0pDitv05DyHMKkbfCKtohNbK6hjLZg9Z0N/9ALL+ZoqstiPmj7q/4I+3jv4vTaxl6RTFiH/Ejbe2gAGCYdXuSttqEKuwW8wOYaymibnJx8x2IEc9sOyklis/PexRWOi71hMwn5ORcglIZzzLOFjwqLtnHvTXEWrIVi+RUhYHONDalTTkYY7WZPVVAqwnDT4xZPmCeFthK0j8k1ebps7/Ho0aPkDn7uC0Z/Gw99vjNzPWN/4TnqZcg2IGlTTEI4NazRxmSEK15Q3/gOEkYmIRU+u295zRlsKRgKeATm5+dt7xFhWLTt45HKedApFIQdlm9sG5B0wdYaq0JhAZy3GGG0Ia7Yc5L6RT4I1YpWMTWzXvCwpRBWJ2SYqzcn1dyo3gpEX5rTDpMiiipsA5JmEQK2ViVGW7fbPRP+wTUv6miTmFN7WyfpmvJ58ypGG05PJaSTs5ct5fYebQ6L7ncfP/zww6TDpBrhybKGrVWJ0VYUIyx5UUebF5Pi2BsMTRJiHWg8mrYeHLipCO9xjsYB34cDMsX2HltbW3thUZ+nvMKkhLtznBmbOUtVFCH0ettu2WR39BtHqmXoGBMUKJjnVv26oKcfnthU2sOUb/85J0lzQKbW3qP0yDjhJM8wqW1A0mqq2+l0boxVqXDjL4R/eMuLO/pu3akONcbgZOOjKsuNo7oKN9ZEagYCYcMc82xSbu/BPTEseniY9MmTJ7spyzYgSeWzXajUaCvy2myy20CeTEohsH7xpkp+CKE83ujdPE4OzZc5RFIz4jEwcwzVpNzeg7AonnCfx6OjHSl5tPdLVyGP1LGDSTTVPVOp0TY1NfVu+IdXvLij3zjIOSFHIWXhdSMUgxFafi/v72D3n3FIhEPpiZfq2z7fIUdPOAdiagVDvEjhrTUsOhjc45TDpOTm5TwyLhNWsLHGKtapIq/NCzxiSHLG4El54+hNRscAIfTgJnK4scb/Enr74YcfkguHlsJL8dlnn2UZFuUgTDFZ3ZYQxw+TplgU1n/PDYVH3VT3ViVNdQ8YHm9eW0PNU1NsJ3CQy56QKR5EPDB8PzeT/9zrMneNN/xUvWulR4ecxtxCMym398Djrdfl+PebF4+Uw6SorSPKEmBr6CHxhw2PDzzzIvtmX4UI+T58+HAvt6ZMlm3rYVJ+d97qyf/CIEjds4phnptHNeX2HmVY1Pymk0H1c2qh8P791jYgUXrZng09JP6wEGn4IcteaHNoqk5UJ/yA5w3jrU05b+X35HszCgxD51//+lfy9zTncToptvcoQ2RWcrevd2avqHK2DUh0LNcSGu2ZQ3rDfm3NbhzkOOUoDkIOFsZh0Zy37PGWYz5U+Z0Is5Hjx/fOwVgrPTo5Vqyl3N7DsGg1958KbmYtpyyqnW0DknF/tn36tc2Y19bsxvHxxx8n3QbkKBF24mBcXl7eC53iHcjBgCs/OyFDvFAUl9AAM4cCk957l2NvqPKFiXC+uYWGSVOOdtgGJK58NmyqWo02eomY12b/oFEJ7xMVpxg4hE/xTJWbTWnExWgc9H82DnzuGYcnXrVUq0GPEi8TuY4wS7X1AyF3w6Ia73peo81nO1Or0VbMIV30gjcPYbXU+7cdN3yKB44Nk7ddjCCMuN48uKaMuN6fjVGJN41QGnlqJK1jzKQ6kuw4eWw5NmxNuQjIHl31hUlfvXqV9PPqRIwoWKh03ugheW1Xww977QVvduOgOSaem9wKE47j5qclBsnBVMVhxHJAET6mlQhVfvt55aqgLAzhZ2A04l3CYMGYJKyLN40DM9URZCcxqMlFzDGPLdV2O6w99gf3y3pgvaeeh2obkEZ5jS01NgqFH3Qu/MB1L3ocrnqMhJzyoobJ3WE8D2FjQqqMfOLacHBh0BFexaij5xJvynjCMLYAQ4+3zhL+P/BngL/D3+Xf4N/i3+TfJvREXhoGGoZLW4y0/uuO0Zzb5l+29yA0n+J9NSxa/95L/mbqL1vsZ97TRsCGmhiJ0VaESB970ePYPNiYU8+xGKWBwUaFkUUVGJ46Qq4YXhh6wH8Dv04IhD+LMdhWj+ZR3hyqmXOtRku1vUfOLVdiqyZOuQE24vPzEutaGTmPRxIaLRV+4B0velwd2nmzVmqUwpuZ40iklNt75NpyxTBpfSLFxNGCI+fO2CgVbu6F8EO3vfDxHDKE+cilUmpU4TdCyDkabGXoK8WwKIa0B/DoyKF3JlEE28KMlG1sqJEabZSphh+85sWPzzuQcw83FYdIzM+5s3qq7T0Ii5J/qcFmmPS4oro9x+rvSFmrvdXHASOtFrz48cEGkstweRWvwZbrAUzBSYo9EG2a2nwLptTDpLzw5+g9j7HVR62jqw7Ja7tsiDTeNz8NN6WH7fjtPVJNMSAvyfFEza0d2gzlMGKQqnjbgNQbGsV2GmtCRYj0hTch3hw3ixNUlTlsrKlcn5eU23vgGTQsGsfLMpXnKcs2ILXzoonQaG/rj3vehLirSmkH0sb+YaoasXYYMp179/RU23sQFqWps2FRw6RVyTYgtXJvpK0+9mm0eyV8iB1vRNx93HB522dMHVck46+srGTdpDV1D4lh0fjCpDwzqcsq5FrYwWYaa1J09DVEmkYLA0q62zSrVA0fJmHSQc4GQertPWgQbVg0ztSU1MOkZRsQxiV6X6sLjY5sCsJBmpqaejd8iBVvRhqzSnHds9ErdZhoHUHTUPK8cjcIqLhM0QtNCI6wqPub4fa6ZBuQylnBZhprWt1u99qMA+STgfE2Vpaqg8QoLzbq3HOkOIh4FlJs74HIVTUsGn+YNPV8YtuAVMZrbKWxGBQ+zHjgpTclnQ2Fh5DydPPcVCkOF/Kjcm6am0t7DxPF09lnUw+TIoxPjFDX21BgI41HYbQVIdIlb0p6b4KEVwiFqXaLXEfy19qSeJxyew9etAhdu48ZJh1lfqtrbmiWGq0a3aeK9Koh0vQMN0JghIjowZXi2B41vPAE3L59uxX5a70HaapFORRNGBZN6wWB6v3U9erVK4tehgiNYiONxSSrSNNvC4KnhcRT1Q7hscEAKMOhbdiMU2/vQVi0DeHrHMOk5IqmLtuAJFw1esAsUkOkiVeXMndRr1v+4vAn3NEmj01ve48URbWoIap0wZudesslzgVe7jkrNNyOFxptZNbogLNIDZFm4HWjDYKtQfITuSkUoJQD39u28ZLDmWrxDffNsGjaYdLvv/8++T1ka2tr9+bNm67DY4RGZ5qaNTpA64+z4cM99yblketGdRoHhQ150xcJ95Tuk8vVxiqwsr1HqkU36+vrhkUzGSvIc5i6CPXaBmRgnmMbRWm0URkRPty8NymvClPeqgiZpj5Pr63CY0pncw6MNnrXUm/vwXPnAO+8wqR4q1IXL/S2ATkabKKoqkb38bZdDB9005uVz4FX5gJxcPCW6PD5NERRCeEYPDR4Ttu6uZJ/k2p7Dw/HPNdjDmFScywHYhObaCxmhQ94OnzQVW9WnuCxIC8I97jFCvEaaxz0hAPb1MYjxwRww6KGSWP34tsG5FBWsYnGYlf4kLe8WfluOKXxxlsWG4/GWzzGGp3LqQAujbU2b6apt/egaMSwaL5rk7STHPKFSZ2heE3Dbd/Q6K2xFBRu3vnwgTe8afkbbzysHCw8uKl3/U5VNL2keSdvvHrW3mzvgccxVTk6qB1TOVJ/6SXtwDYg+7KBLZSE0VaMtVrxprUr540h4xySVOiZ91Z/PgleTlqz9OasuWn+CdeDMH6qxTN4Bz/55BPvZwvCpE+fPk1+P7INyL4sYwuNpaJOp3MlfOhtb1y7jDfeHjEiqFZkM7LitFptbGzsGca07sDL2cZq0Nzbe+Cx5v56L9uxVnnZzaGalDxnXzT+YhsbaCwldbvdM4Fn3rx2h07ZkKiUwnNg+PRkwvgg/IznCIPYfLWj23twvVIVoW7usfezPZNoCC+mHp3g89sA+q9ctmfYQGOJ6VSwNO/6YOp9I1SFAYf7HAOONzI9cIdvfhQVMOeP8Ce5auQ26VXLv72HYdH2vmjkECZl2ggvl22/p9g+UY6tGqAgYcaCBOk34NigCF8RQsUjwhzMthtxVJFhzPKmSmEHHrXyjdUDvB2NSw2LGiblZS110QaE/b3F+xYFCDNjKcqCBDnMgCsrqPAs4IUjRPDjjz/uPfQcYLm2EuF78f3wqmCk8WZKmw6M2d6CAo21460p1lGq7T0Mi0ouYVLU8jYgK0kVIBxQkOAQeRnIiMO7VHri6APHQcYGwGHMW2hqGxoGGjlpeNEwSAnd4UljriubWm9+mkZae9t7OMtRUh+31p/iwV7XwhZEr5MrQLAgQaow4HqNGPK5KI0ntwuPHJ4pcuMwgmh7gWcOg44Q4yg9dPwcwrr8XH4+n4PPUxpnGJ2EPPjcfP5+A01Drdr2HuTTpBoWJazrvRT2A7zuOYRJ27iuUy1AeKsgIXyZO4EdH0qpypDjoMYIwqDDY0UOGJsdmwTGEvlyhBrw1OGBefjw4V5iP1473mQxrgAPRz/l75EYzJ/n7z169Gjv3+HfwyDj3+fnkIPEz+Xn8zn4PHwuPl//Z/de1rM28FBxnxj5hEc2NVinhkWl9yWE/SXFtdwLz+ODBw/aFCbFxrmTZAHCPiHSc+HLrPtAyiiMun5DiVwRjClCaB9++OHeJkIYAvCA9VP+Hn+OP8/fK42xQX6ejBbuz373MRXKymCRkjK6kAMtWt/r2DpjmQhv26IPo8Ro2A2K1zHfe9s03kfJbU23cG0vZuFlKzU7O/tB+FJbPpAiIiKSEVvBQL0wlpO63e7pTqdz35srIiIiGTXTvY+NM5abwhe7OuM8UhEREckD5oxeHctRc3Nz74UvuOZNFhERkQxYw7YZy1XBIr1h+w8RERFJvc0HNs1Yzgpfcjzw3JstIiIiCYMtMz6WuU4Fy/Su3jYRERFJ2Mt2N6s2H4d42yZmbLYrIiIiaYINMzHWBk1OTr7T7XbnvekiIiKSGtgw2DJjbdH09HT43jMvvfkiIiKSEC+xYcbaJCzU8MXvefNFREQkIRZb5WXr87ZtugBEREQkATZa52UrNTU19a7eNhEREUmEe9guY20VQ1axXF0IIiIiErmX7cJYm1Xkti25GERERCRmL1src9kO8LaZ2yYiIiIxstl6L1tfbpveNhEREYmRpVbnspnbJiIiIuaypZvbtujiEBERkYhYNJdtf2/b+RmnJIiIiEgcMP3gvBba4TNJd1woIiIi0iA7rZsxelx1Op1z4UKtu1hERESkQdaxSbTMDtepcJHu6m0TERGRprxs2CLYJJplRyhcrPHAcxeNiIiINAA2yLgW2eDethvhgr124YiIiMgIeY0NopftGOp2u2fChVt18YiIiMgIWcUG0RI7vrftSrh42y4gERERGQHb2B562U7mbTsdLt59F5GIiIjUDTYHtocW2Ak1Ozv7wYzD5EVERKReNrE5tLyGHybveCsRERGpk0WHwlfXcPeFC0pERERq4IWNdCssSuh2u7dsASIiIiJVt/jAxrD4wBYgIiIiYouPVk5KuBzYcoGJiIhIBWBTXNLCqq8oYclFJiIiIhWwZPFBjZqenj4fLvK6C01ERESGYB2bQsuq5qKEcKHvBHZccCIiInICsCHuWHxgUYKIiIhYfKB6DLeLM05KEBERkeOxiQ2hJTVCTU5OvhMu/IKLT0RERI7BAjaEltToW4BMBJ67AEVEROQout3uM2wHLaiGihI6nc7VcAO2XYwiIiJyCNvYDBYfNN+7bdnFKCIiIoewbE+2eHq3OVBeRERE9uOFPdniqia9PuNAeREREXkTBsJf11KKSHNzc++FG7Pi4hQREZEeVrARtJTiDJM64kpERETAUVWRV5PeMEwqIiJiWLQIi1otaphUREREDIsqq0lFRETEatE2hEm73e61GZvuioiItI1tbADDomm1ADkdbtw9F6+IiEiruIcNoCWUmMKNmyjmjLmIRUREMsfZoomHScPNuxzYdDGLiIhkDWf9ZcOiCWtycvKdYHnPhxu544IWERHJkh3Oes58LZ/089vOhhv62EUtIiKSJY8567V48mkDciHc1JcubBERkax4Gc74GS2d/NqAXLcNiIiISFbtPZx6YBsQERERsb2HarINyHhgzYUuIiKSNJzl41o2+XvcLoYbveGCFxERSZINznItmvbkt90KN/21C19ERCQpXnOGm8fWzvw2+7eJiIgk0o/NPLZ2929b9SEQERFJglX7sdm/zf5tIiIi8fdju6DlYn7btbAYtnwgREREomSLs9o8NjU2NTX1rvNJRURE4sxjc66o6s9vO9PpdO77cIiIiMQDZzNntJaKekNhYZwLC+OZD4mIiEjzcCZzNmuhqIPy2y5amCAiItJ84UHRQNc8NnVkYYKD5UVERJph28IDddzCBCcmiIiIjJbXnU7na85iLRI1kObm5t4LC2fFh0dERGSkrHAGa4moYyksnInAmg+QiIjISODMHdcCUSfS9PR0WD8zL3yQREREauUFZ66WhxrW43YpsOEDJSIiUgucsZe0OFRVFaXXZxx1JSIiUjWMqLpupaiqtKKUahYrSkVERKwUVZErvAmcDgtsyYdMRESkEu5xtmphqLoMt7POKBURERmOYqboWS0LVXdhAq1AVn3oRERETgRn6IQWhRqJilYgz33wREREjsVzW3uokWt2dvaDGYfLi4iIDMo6Z6cWhGpCp8ICvBzY9EEUERE5shfb5TFbe6imNDk5+Y493ERERI7uxcaZqeWgGjfcwoK8E9j2wRQREXkDzsY7GmwqGtl8V0RE5C1snqviVNF8dzGw44MqIiIth7Nwwea5KlrNzc29N/Pn1AQNNxERabPBtsSZqGWgYve4nQmLdcWHVkREWsoKZ6EWgUrFcHPclYiItA7HU6kkFRbveOCxD7GIiLQEzrxxLQCVquHmnFIREWkDzhNV6avT6ZzTcBMREQ02pdIx3NZ8sEVEJDPWOOM86ZWGm4iIiAabUqPX9PT0eQ03ERHJwWDjTPNkVxpuIiIietiUsjhBRETkpEUHGmxKw01ERESDTSkNNxERkSEb59rWQ7VbRQNeJyeIiIgGm1IJGG7jzioVEZHI2CnOJkdTKdUrBuyGB2OFh8SNQkREmjbYOJMc/q7UwYbbmfCQLGm4iYhIwwbbEmeSJ7NSh2hubu698LAsBF67cYiIyIjh7FngLPJEVmowj9vpTqfzdXhwtt1ARERkRGxz9nAGeRIrdQxNTU29Gx6gO4EtNxIREakZzpo7nD2ewEqdQJOTk++EN57r4UHadEMREZGa2AxnzTXOHE9epYbTqU6ncyU8VC/dWEREpGJecsZw1njcKlWR4Rbegi6Gh+u5G4yIiFTEc84WDTalatD09HR4xmbW3GhERGRIVsOZct6TVakaxbzSokO1vdxEROSkUw4cS6XUKFRMT7hnLzcRETlmD7Z7Ns1VasSi8aG93ERExB5sSiUg+ukULUE23JBEROQANjgr7MGmVPM6FR7IS4EXbkwiItIHZ8OlMStElYrHcCsqS1fdoEREpChWo0J0RoNNqQgVHtDxwLKVpSIirTfYOAvGPRmVilg9BQrOLBURaR9b4Qy4y1ngiahUAipmll6bcfSViEibeOkMUaUSzXObnZ39wAkKIiKtYI093/w1pRIWExTCw7xiI14RkWwb5q6w13viKWWem4iIxJu/9rX5a0plmOcWHu4r9nMTEcmj/xp7uvlrSmWsop/bYzc8EZFkeVz0X1NK5a5i4PzijHNLRURSgj17kT3ck0ypFqlnbum6G6GISPSsOz9UqXaL8VcXinCpUxREROKcbkA49MKY7TyUUkW4dMHqUhGRuKpD2ZsNhyql3lBRXXrV6lIRkWiqQ69aHaqUOixcej5sFPdtxisi0kyzXPZg9mLDoUqpI0WjxrBx3AlsuIGKiIwM9tw7NstVSh3b61bMLl21SEFEpPZig1VnhyqlhhIJsIF5ixREROopNmCPtdhAKVWJSIQNG8vlsKk8c4MVEamGYk+9bLGBUqpyhc1lopikoNdNRGS4Vh7spROeLEqpWr1uDCnW6yYicjLvmoPelVKj9rqNF2+Km27EIiJHslk0MR/3BFFKjVzMwOvJdbPCVERkn8rQMnfNuaFKqSi8bkWFqV43EZEe71qxN+pdU0rFI/IzwuZ0cebP4fNOUxCRVk81YC9kTzR3TSkVrejkHTaqW2HDWnfjFpEWss4e6FQDpVQq2pthGjav5cC2m7iItAD2umVnhiqlkhRJt5S2h41szUIFEcl4BNUae52FBkqp5MV4lrCh3Q0b20s3eBHJiJfsbY6gUkrlGjJdcqKCiGQw0WDJUKhSKvuQKf2KAquGTEUkwVDoqj3XlFJtC5me6XQ6N8Lm91zjTUQSMNaes2exd7mDK6VaKZpOho3wa/PdRCTivLWvbZCrlFJjfzbmLfLd7jlVQUQimhV6j73JBrlKKbWP8UYH8fBWe9/+biLSVL819iCnGSil1AAKm+XpoljhscabiIywOS57ziX2IHdipZQ6hhgDUzTnXdV4E5EajbVV9hpHTymlVAXGW3jzveZkBRGpepIBe4vGmlJKVR82PRO4Xhhvrz10ROQEvC6Mteu271BKqdEYb9eKsKnGm4gMaqytsndorCmlVAPGW6fTuWrOm4gMkLN2VWNNKaXiMN6uFJVfzjUVkXI+6GP2Bo01pZSKz3ijVcilwLJNekVa3RR32dYdSimVgBjkPD09fSFs2ouOxxJpz7gpnnmefYe5K6VUYirHYxVzAx1ML5LvIPevHTellFJ56BTDnot2IavmvYlkka+2WjzTDHI/5TanlFKZqSfvbSmw4eEnkpRXbaN4ds1XU0qptqjIeyN0etdmvSLxN8PlWeWZNV9NKaXa7X07WwyoX9b7JhING8UzeZln1J1KKaXUX+opXND7JhKBV83CAqWUUoN638h9uxd4oQEnUquh9qJ41i7pVVNKKXVSlZWn18Lb//2icaetQ0SGLyrY5Jkq5ghbAaqUUqpS79tpQjbhgLlTtA5x6oLI8acV8Ozc4VmyAlQppdSoDLgLPQacvd9EDumpVhhqFzTUlFJKNaVTc3Nz73EYFZMX9MCJFB61YlLBBZ6RMcOfSimlIvPAnenxwD0u2haYAydtaXz7uMejdsYdQSmlVBLqaeB7IxxkK8VAaw04yclQY02vsMZtfKuUUiobAy4cbhNFE9/Fbrf7zDCqpBj2LNbuYrGWJzTUlFJK5ay9PLjZ2dkPwgF4q8cLZy84ibGH2p43jbXKmjU/TSmlVGtVDLEfLxqLzhd5QeuGUqUhI42197hYi5eKPoVWfCqllFL9ItzU6XTOEX7qqUglyXtbo0IqZrtYW6vFWmPNnTPkqZRSSh1fpwpP3ERpxBWTGZ5rxMkJjbTnrKHSSGNtFZ40Q55KKaVU1Z44QlbkFxWVqUvFgPuXNvmVvqa2L4u1scRaYc2wdvSkKaWUUg1543pDqkWPuNKQ2yzylMyPy7v1xuviXq8V9/5OX6hTL5pSSikVoyYnJ9+huWkR+rpYeOQWiyKH50Uek9WqaRYKbBT3kHu5yL3lHhf3+gz33idAKaWUysOYO1uM3bpSeGRKY+5F4a3Z1qBr3DDbLu7Fi9I4415xz4ppA2c1zpRSSql2GnKnez1zgetFy4flov3Ds6IVhDlz1eacrRfXFsNsmWteXPu/PGfcGw00pZRSSh2pwqA7S35UMVeVXKkbRfUhCe73e4y6jT5v3U4Lc8tKL9lGaZQVFb9LRfUvoerLhbfzHNfWPmhKKaWUqlOn8ACR6I7RQad8vEOlYRd+7Rpd9AvjbqE08OgJVhh5z3sMva0eI2+nYWOv9zO8Lj7bRvFZnxeffbU0xPhufEe+K9+5NMi4FlwTrg3XqPCWWRCglFJKqbjVG4bFu1RMgZgoPHjnAzNFS4pL4deuYgAVSfa3inyur4uQ7UKR43WvMJpKlg+g98/cK/7uAv9WYVDeKYzLG8XPvMpn4LPwmfhsRWXuRDEd4KxhS6WUUkqpw3WqYpRSKgn9fxwI+CN8ZKSJAAAAAElFTkSuQmCC;imageBackground=none;" parent="1" vertex="1">
          <mxGeometry x="880" y="777" width="23" height="23" as="geometry" />
        </mxCell>
        <mxCell id="HEUI8vA9hFR7EpyzuyXa-26" value="" style="sketch=0;outlineConnect=0;fillColor=light-dark(#0050ef, #996500);strokeColor=#001DBC;dashed=0;verticalLabelPosition=bottom;verticalAlign=top;align=center;html=1;fontSize=12;fontStyle=0;aspect=fixed;pointerEvents=1;shape=mxgraph.aws4.endpoint;fontColor=#ffffff;" parent="1" vertex="1">
          <mxGeometry x="690" y="710.5" width="18" height="18" as="geometry" />
        </mxCell>
        <mxCell id="HEUI8vA9hFR7EpyzuyXa-28" value="" style="group" parent="1" vertex="1" connectable="0">
          <mxGeometry x="1080" y="590" width="111" height="114.5" as="geometry" />
        </mxCell>
        <mxCell id="HEUI8vA9hFR7EpyzuyXa-25" value="&lt;h1 style=&quot;margin-top: 0px;&quot;&gt;&lt;font style=&quot;font-size: 15px;&quot;&gt;Core Services&lt;/font&gt;&lt;/h1&gt;" style="text;html=1;whiteSpace=wrap;overflow=hidden;rounded=0;container=0;" parent="HEUI8vA9hFR7EpyzuyXa-28" vertex="1">
          <mxGeometry y="71" width="111" height="43.5" as="geometry" />
        </mxCell>
        <mxCell id="HEUI8vA9hFR7EpyzuyXa-15" value="" style="sketch=0;outlineConnect=0;fontColor=#232F3E;gradientColor=none;fillColor=#232F3D;strokeColor=none;dashed=0;verticalLabelPosition=bottom;verticalAlign=top;align=center;html=1;fontSize=12;fontStyle=0;aspect=fixed;pointerEvents=1;shape=mxgraph.aws4.servers;container=0;" parent="HEUI8vA9hFR7EpyzuyXa-28" vertex="1">
          <mxGeometry x="4" width="78" height="78" as="geometry" />
        </mxCell>
        <mxCell id="HEUI8vA9hFR7EpyzuyXa-16" value="" style="shape=image;verticalLabelPosition=bottom;labelBackgroundColor=default;verticalAlign=top;aspect=fixed;imageAspect=0;image=data:image/png,iVBORw0KGgoAAAANSUhEUgAAAm0AAAJtCAYAAABkC0e+AABUdUlEQVR42u2dPWgd17q/hYsUKVykceNGjQq5MtLWluLLJX+CIYUJMRxMwCliCCYYg10cFwFzIKRQpUYpTFARUKEmBoOxCRjBKdTYRVwETBDEmKAiKi4KqDi+HHHRfz3KTM72tj62tGf2rLXm+cHDyfGX9p5Zs9Y77+fYmFJKKaWUUkopVbFOVYxSSimllOrV5OTkO91u9/Tc3Nx74X/PzszMjAcmOp3Ouenp6fOBmdnZ2Q/Cr10Kv3Yl/JlrgeuBW+HX7oRfuxv+ez7890JgMXAvsNTD8gH0/pl7xd9d4N/i3+Tf5mcUP+saP5vPwGfhM/HZ+Ix8Vj4zn734Dqf5Tt5ZpZRSSsWuUxgtU1NT7wKGDEYNhk5heF3FGCoMIwytpfDf98P/Pg6sBZ4H1gMbga3A68BOD7sN0fsZXhefbaP4rM+Lz/64+C4YgguFQcl3vcp3L67BONekvD6Fgad3TymllFL1CIMjGCRn8DQFY+QCRknhkcIYWyyMFwyZF4GXgc3C0Nlu2PhqwtjbLr77ZnEtuCZrxTVaLIy7a4Vhx7Wc4NpyjV1pSimllDpKp/o8ZRfwGBVG2VKfUbbZMkOsTgNvs8+o41rf5doXBt1fnroxPXRKKaVU+ww0DAHytAqP2fUiT2wl/O+zvlClxlUz/BWSLe4J92aee1V46M5zDzXklFJKqYyMszLHrMgvI/H+fmEIvCxCeRpJacE9e8k9LO7lfOGZ+yuHTmNOKaWUithAKyozz1LxWHhkFoqE//UW5pa1MdS6Xdzrx0Vl7PViLZy1AEIppZRq0Egjeb1oRXGlCG8+NudMDsiZe1x45K6wZlg7GnFKKaVUDSqrN0lOL3qWLRWFAZsaJ3JMNou1s8RaKtaU1atKKaXUEJ60MtSJkbaiF01q9sZR7HCrDKnqiVNKKaX2UZGPdqYoGLhBF/+iWGBLw0JGzFax9pZZi6xJ1qaTH5RSSrXaUGM0UtFBf7HHSNOTJjF54kojbrHo3XdOA04ppVTu2gt5Fk1T7/RUdtoPTVLqH1dWqN4p8uEMpSqllMrDm1aMf7pctOBYszeaZNYzbq1Y25cNoyqllErOUGOeJO0Vwv/eK5K8zU2T7HPhirV+r1j7ExpwSimlohPtEuhGXwwCLys9zU2TNufClRWpPBPjthRRSinVpE4VHrWrRd+0l+anieybB8ezsVQ8KxNj5sAppZQahaFG4nWRo7ZUeBM01EQGN+BeFM/OZYsYlFJKVa5wuJwOXCzGRT3XUBOpxIB7zjNVPFun3WmUUkqdSOTgFHMamUiw6sgokVpHa60WY7XOm/+mlFJqEO0NYi+q3ygo2PBAFRkpPHMrPIMOtldKKXWQV40RUneL7u/2UhNpuAcczyLPJM+m3jellGq59KqJJOl9U0op1RKdYn4iY3gKr5pFBSKJFC8Uz+wdnuExQ6dKKZWtV+307OzsBwy+LuYnegiKpAvP8CLPtJWnSimVj7FGCPRq4L7jpETyG5/Fs80zbuhUKaUSFaNzwkZ+wyHtIu0ZXl888+PugEopFbl6hrXfLZrgOv9TpH1zT58Xe4BD65VSKkZjjbYAxcSCdY01EY039gL2BPYGjTellGpYZX+1orjgpQeViOwDe8Oi/d6UUqo5z9qFsBHfc7yUiByj39s99g49b0opNRrPGsbaks1wRWQI422JvUTPm1JK1edZW9KzJiIVDqpf0vOmlFLVGWvni5w1PWsiUpfnjZy38xpvSil1fO2NmiqqQS0wEJGRFCyw5zgiSymlBlRPnzVHTYlIIyOyyj5v7shKKbWPinFTN4qmuB4cItI0NOm94XgspZT6j7F2OmyMV8IGuWpTXBGJsEnvKnuUg+mVUq0Vpfazs7MfFIPcnQ0qItEPpmfPsk2IUqpN2isyKCpCbd8hIqm1CVm0WEEp1YZQ6JnArbDpvXDzF5GEecFeZr6bUirLUGjY5C6btyYiueW7sbcZMlVKZREKLZrjMslgy01eRHLMdysmK5w3ZKqUSjYUGjayO/ZbE5G29HdjzzNkqpRKRoyBCZvWRUOhItLWkCl7oCOxlFJRiw7igQWrQkXEKtO9vdCpCkqp6EKhpwPXnGYgIvLWVIWrFioopaJQUWiwbINcEZF9YW9cLgoVlFJq9Jqbm3uv2+1et+eaiMjAvd2uOw5LKdWEd20l8NqNWERkYNgzV/S6KaVG4l3rdDo3bOMhIjJcexD2UvZUTxallN41ERG9bkqpNqmnMtTcNRGRenLdrpnrppQaSkXftXtWhoqI1F5hes++bkqpY4tO3gxBDm9+z9xMRURGQ7HnXnaaglJq0HDo2cC8Uw1ERJqZpsAezF7siaSUOlDT09MXwobx2E1TRKRxHrMnezIppfq9a6eLRrkv3ShFRKLhpQ15lVJ/KWwK4xYbiIhEX6Qw7omlVHt1Kry9XQwbwZqboohI9KyxZ7N3e3wp1b5w6K2wCWy4EYqIJMMGe7fhUqXaFw51soGISJqTFAyXKpV7OLSoDl0N7LjxiYgkC3v4alFdarhUqZxEo8ZiFJXVoSIieVWXXrMZr1L55K+dCQ/2QmDLDU5EJDu2ima8ZzzxlEpYnU7nXOC+4VARkbzDpez17PmefEolmL9GabizQ0VE2gN7vm1BlEpIU1NT7zrdQESk3XlunAWeiEpFrLm5ufeKYe9ONxARafEUhU6n8zVngiejUhEqPKQTgRX7r4mISHEWcCZMeEIqFZGmp6dnZhxHJSIib7PGGeFJqVTzOhUeyEuBF25MIiJyAJwRl8YsUFCqGRUNcyk4cH6oiIgcBXNLr9uIV6kRi+RSkkwtOBARkeM04rVAQakRKrwpnQ0P3pIFByIicsIChSXOEk9UpWoUVUDFhAM3HhEROTHFWWJlqVJ1yApRERGpmFUrS5WqVnsjqcLD9dwNRkREKub57OzsB2NWlio1nKjy6XQ6V2YcSSUiIvWxzlljZalSQxhsRUuPTTcUERGpmU1bgih1AjHoNzxAdyjPdiMREZFRtQTh7HHYvFIDKrzpnLYHm4iINMTesHnOIk9kpQ4RDQ/DA7NoDzYREWm4l9uiTXiVOtjDdqZomrvjhiEiIg2zUzThPeMJrdSbBhtTDlY02EREJDLDbcXpCUoVCg/EuFMOREQkVoozatwTW7XdYJsIPHZTEBGRyOGscuyVaqfCm8u58ACsuhGIiEgirHJ2eYIrDTYRERENN6Xi0fT09PkZB7+LiEi6rGm4KQ02ERGRRAw3zjRPdqXBJiIiosdNqcZy2DTYREREw00piw5EREQsTlDqRCr6sGmwiYhI9oabfdxUygbbuI1zRUSkZQ14nZyg0hJz2hxNJSIibYOzz1mlKiWD7czMn8PffYBFRKSNMGT+jBaBilpzc3PvhcW6FNjxoRURkZbCGbjEmahloGI22BY12ERERPbOwsVut3taC0FFpampqXc7nc7XYYG+9kEVERHZ4zVnI2ekloKKxmALC/NOYNsHVERE5A04G+9MTk6+o8WgGhWLsNvtXg8LcssHU0REZF+2OCs13FSTOtXpdK6ExbjpAykiInIonJWXOTs1H9TIFd4aLoYF+NIHUUREZCBezs7OfqAFoUaq6enpsPZmnvsAioiIHIvnnKFaEmokmvlznuiaD56IiMiJcE6pGklI1PFUIiIiQ+K4K1WreqYd+MCJiIgMz5LNd1XlsnmuiIhI5dh8V1Wrnl5sNs8VERGpoYfbmK1AVEWFB5cCGz5YIiIitcAZe0mLQw2lorXHCx8oERGRWnlhKxA1jIfN1h4iIiKjY81WIOqklaIrPkAiIiIjZYUzWEtEDVwp2u12560UFRERsaJUxatTVoqKiIg0ynY4i69ZUaqOMtgcAi8iItI8LzmTNdzUvup0OufCAnnmgyIiItI8nMmczVoo6g2FhXHGmaIiIiJxUcwoPaOlov4qPAgLYyGw4wMiIiISFTsUB1qYoMo8tmthUWz5YIiIiETJloUJiokHFyw8EBERib8wgTNby6WlCgtgPLDqgyAiIpIEq91u96wWTPsKD06Hm3/PPDYREZF08ts4uznDtWTalcd2a8aJByIiIqnxmjPc/Lb2eNlooLvhwhcREUmSjaLxrmpBHtuaC15ERCRpOMvHtWzyz2NzsYuIiKSP+W0Z57E5CF5ERCQfGCx/3fw2+7GJiIiI/dvUiMOiZ8NNfezCFhERyZLH9m/LQJOTk+8ws8x+bCIiIvn2b+Os58zX8kk4jy3cyMuBTRe0iIhI1nDWXza/Ld32HhPB8n7mQhYREcmf4syf0AJKs73HkotYRETENiAq7vYe12zvISIi0so2INcMk6bT3uN8uGkvXLgiIiKt5AW2gBZR5Jqbm3sv3KwVF6yIiEirWcEm0DKKOCza6XRuhBv12sUqIiLSal5jExgmjTssuu5CFREREWwCw6SGRUVERMQwqTphi4/rhkVFRESkP0xaDJVXVouKiIiI1aRq0Ca6yy5IEREROYTlqampd7WcbKIrIiIicbPd6XSuWk3akMINmAg8dyGKiIjIUTibtCFNTk6+Ey78gotQREREjsECNoSW1Ghz2S6GC7/p4hMREZFjsIkNoSU1OoPtTLjoqy48EREROQGr2BJaVCMoPggX+05gx0UnIiIiJwAb4o5FCaPpyeaoKhERERkGR1zVKfqrhIu85EITERGRCliyd1t9LT4uB7ZcZCIiIlIB2BSXtLAsPhARERGLElo5+eDWjAPhRUREpFoYKH/LooSK1Ol0zs04EF5ERETq4QW2hhZXNcUHiy4oERERqZFFixKG1Ozs7AczTj4QERGRetnE5tDyOnnxwelOp3PfhSQiIiJ1g82B7aEFdoLig3DxroSLuO1CEhERkRGwje1hUYItPkRERMQWIFl62W7Y4kNERERG3QIEG0Rv2+CTD8YDz104IiIi0gDYIONaZIN52e6Gi7XjohEREZEG2MEW0ds2WCPddReMiIiINMi6DXcP0eTk5DvdbnfehSIiIiJNe9uwSbBNtND20fT09PlwkV66UERERCQCXmKbaKHt42WbcVyViIiIxMWi3ra3vWwXwoXZcHGIiIhIRGxgo2ipvTkUfsmFISIiIhGy5DD5N71sDoUXERGRGNnU2/afXDa9bCIiIhK1t631uW3msomIiIi5bWnkst1zIYiIiEgC3GttbluwWGfMZRMREZGEvG0zbc1l08smIiIiKdG+vm2Fl83pByIiIpISL1vlbXPGqIiIiKRKq2aShi88EVj3xouIiEiCYMNMtMFmO9XpdO6GL7vjTRcREZEE2cGWwabJ3cs2HnjuDRcREZGEwZYZz9poC5bpDb1sIiIikoG37Ua2Btvc3Nx74UuueaNFREQkA9awbXL1sl0NX3DbmywiIiIZsI1tk53B1u12T4cvdt8bLCIiIrmAbYONk5XRNjs7+0H4clveYBEREcmILWycrNp8hC+16I2VUTM9PV0JXsu014DXQcTnqWYWs2n/0el0zs3YTFdGbJi9//77u//93/+9+//+3//bvXjx4u5HH320e+nSpT0+/vjj3U8++eSN/y1/D/izH3744d7f5d8Ib1EadQnyX//1X1nA+vN+uj5dk1Gzjq2Ti5ftjm0+pCrDjP/fa5BhcH3++ee7t2/f3v3HP/6xu7CwsPv999/v/vDDD7uPHj3a/ec//7n79OnT3Z9++mn3559/3v3ll192f/3117fg14E/w59dW1vbffLkye7Dhw/3/i3+Tf7tb775Zvfvf//77hdffLFn8GHc8VnYyPYzIr1/zcChwnp48OBB8rDuWGPe13y4efPm3r7iesyn/Qe2TvLetm63eybwzBsqJ/WccfjiKfv00093v/zyyz2jCQMKY2x9fX33999/393a2trd3t7e/fe//71bt/gZ//rXv3b/+OOPvZ+NwYdRyAbMZoZBhxGJMVlubBpxzcB94B6lLtbbV1995T3NZH/729/+trd3pSj2WV6QvZdvg62DzZN6aPRK+DKvvaEyiKHGf+M9I0SJgYYRxJsdnq+NjY2RGGVVCIMOrx2GJQYmBy4bNV45PHIacKMDbxsHTeri5YA15LpJe59jf2NPS1Hsv+zJhkYP5DU2T7IG29TU1LvhS6x4I+UwbxobQK+RRkgSAw3vQi5is8OQI/S6vLy8Z8ThOez3xLk26skb4prnIEL1HPqulXRD9vPz88nuba6/gVjB9knSaAs3Nnz+mQ1vovQbaxgr5INhvBBWxCuVgzdkUP3f//3fnmFK3hyGKmE8QsBWZ9Wz5ngpIISduv73f/93Lz1AT0ea6zDlcD0vnHp6B2ID2yfJAoROp3PXGyi91ZwYamVyOJsXxov6M08Eo6I04Ho9cK6hatYghSM55Ldh7H/22WeujcTWHxXpvKSlKHKGKZxwzQ3cbPducgUJFiBI+YCzWZWVUq9evUomL60p/c///M9eLhxeSIoZynYjrqnhQ1N4qXIIu5NCQH6k6yKNfZAQ/XfffZfkSyreXfPYWlCQUBQgOGe0pV41Nilc6TzsFBFoqJ0shEqFGZs9npWygMF1NlwSOC8POeRIepCmAxXlqaZ/0DbJPLZjs51UQYIFCO011ni4KShYWVnJIhQVk/cNY4MQn9Wnw61TQvTk5+SwJlgProP423uQs5ui+NzmsZ2Y5WQKEsINPm8BQrtCoIRq6N1D2IYqSVVfbgn5gL3Gm+vwZI1NMXpSF2F00g9cB7b3qOOlgOfEezlUQcL5VPLZbnnD2uFZw1gj94oEW3If1GiEYYznjbCpOW8ny28jvJh62J4Q+rfffmuYNOIcyhT3RdaV4fdKcttupWCwnQ4fdtUblv8bJHkaGGs59VNLTYSgyXmjYMG1ebw1zAsH+To5hElJSfC+2t6jKoON58JCl0pYxSaK3Wi7GD7opjcr3yooDgjCoBpr8YgcLTyetApxo23HOKFeUexDLzrvve09zGOLik1somgNtsnJyXfCB5z3RuW3CeEmJxRHSM6ctTiFEU3+DJMW7PE2OORipr6m8Y4wLo2XKu+p7T2GyZk1j63yEOk8tlGsXraz4UM+90blBW/w5M3Q1FPFL2ZU0sDYMv3BD1nWd+qNnjE8HeTtS8BJVbaRoQm697FSnmMbRWm0hQ93ecbh8FkdZmxAhF6cXJCWSH7G60aYQ6/b0WudEWJUYuYQJie/0fvdXDuZVNt7/Pjjj77o1QM20eUox1aFD7bkDcoDDnt6rbVpHmiOIl+LghHbgxx94BL+x0uZeph0eXnZ3EYbN5vHFhdL0Y21Ch9qIvDCm5O+d42E9lTfFtXbwvAmxwZvkpvy4bD2Uy+w4X7zPbyfoyXV9h5lWN29oVawjSZiG1t11dBo2hBW4S1d71p+wgND+K8sUpD9X1rwUJHQn3o6AB5WPSejbe+RYs4vRib5nOax1R8ixUaKbWyVodGEK0Np40Humsq/SIG3ahvy5tmuoVeE6sxRGk0+ZKrrhTw2+7GNLkQaTRVp+DDjgZfelDTzMObn57MY6aMGE2X93HMP9Pwao/Z7Uagi9p5aeaw3NgqwkcZjafVxzdBomuFQ3sYdP9U+kbdFKNw8t8NHEKWe34ZnlZC499j2Hv0vbraHGX2IFFspltDoijckLfAkGA5VhEdsEXFwfluq1YD991ivqu09StGPzXm1jbGCzWTVqAy80ZBwSguIV69eabGoPZGPY4HC/s8LBm3qLzd40gmHe0hX394jxbCoeWwtryLtdDpXwofY8Wak4Tlg88Y1rlSvaMqK99Vn5e3nhiKd1HM+qWzk/npQt7u9h3lsjbODzdTorNHwIe55I9J4M6RXl0Pe1WEb+hdffOEzs09+G+N9Us/9pOWLHpZqilR+++235O6/Y86i4V5jVaTdbveModE0Whgw3YBcBqUOE4nreJZ8dt5+6Xn48GHS97acLWmYtH3jzso8NvuxxREixXZqctbotjch3k2GYe+PHj1ydqgaWHgRNNzefpYIK6U+KYQwL95UvW3HB4Mn1fYeT5480csaD9hMjcwiZdbogjcg7iRqHlYNNnUSj5uh0v1bPKSe30bhCd53D/Dj7ac3b95MMh/YPLYoWRj5LNIiNLrmxY/XYEvRja/iMtxMXn87vy1Vb0spPruhsuO396BYJ8U8NroFeB+jY23kIdKwkC8YGo3bYNPDpoYVB5XtQN7Oa8KDnbLwGOE50iDPt71HmcfG1Abvc3whUmyoUeez3fHCx5nDlvqBouISfcrwNLjx/+c5w5DFE5n6fWW/8L4eDqPAUqwc5hxw4knU3Bl1q4/HXvT4PAAUHShVxwFgHtSbfPXVV7vb29tJh0m///57PTGH7KmfffZZku09yGNzfFn0PB5Z649Op3Mu/MB1L3o8mwuVQal26K7i8OHwZMA33o+nT5/uPnjwYO9AIjxAQ2EOWHI7SCQnLFTCrwFv07RDoJcd7VEwUggNsmGTeN72/nZcY66L45D+88xh7LBeUn7meG7MecqrvYd5bMmwPrLpCMFouzrjgPioJh2kfngcR4QqGMOFYcX3xuCiRQUVUhivXA8OVJLGy55UXKfD6E00J0Gbv8+/g3eJZHw2QYw6DGOMOQ67thnIXHeuAddHw+0/PRCpxkxZtDEx/J1Hew/z2JLiNbbUqEKji17weDYXDtKcPUFsRBhpvPXyXWlFQbEFXp9+g6yOg7kXNkMOakIPeO8w4jj0Ug6T+Rbfzg75vcKLykuK9/RPUm3vYR5bcizWHiKlTDXwzIttXk3dhhrzEjGK+I54AjCY6jbSjmPElZ45jDg8fXj98MKlPu7oKGFAk+vjwZB+snpvmJTnTCP8z+r7FNt7kBpiHltaYEvV3vojLIjws2a2vODNby54nFJ/w+8Xb7d41DgE2TxLN3/MG1H5+TDgeMvlLR1jM7d70ytCglYevpmigLcq5ZB525uwpnwf9YAnyxY2Vd35bDfCD9rxYjff7JGS/VxEEQGFAxiiZbJ77MbaYQYcYWsOQIogCJ/mOPfVysO32+2k/kxSwNPmYhNeFlNLNbFZctLsYFPVPbpq2QvdfKVoLq09CLWx4WDglAnuuRwY5fcgfMphQFVrTsabIbX9vd8pj7nCYPnmm29s72Eem4yO5dpGWnW73bPms8VR1ZT64U++GjlgGGuEFXPecEpDlI0VIwdvTC7GG3k0zjV8c8wV3tWU89swXNqUs5hyew/z2LLJaztbi9EWNqQPzGdrFvIWUqxq6vXOkDPCRpO7sXaQ540DgoM99Y76htQOHnvENUlZP/74455Hvw33NNV5suax5ZPXhm1VS2g0WIO3vMDNHQZ4NEgWTlF4lkheJ0mfZN82H/DldycvkbywlMNpCK9SG0NqR+WcpliB2HtPebEo+xzm3t4jtWcQA5NIRVlRL8l7225VHiKdmpp6N/zjK17g5t7eU81jo8iA/mpl3oUemf/cV8LdtAvBoE258pDcRMOkb95bjAG8ISkXB9GDLtd7mnJ7D0K55rFlxQo2VuX92cI//MKLa57Mcd4G2VzY+NsWCj1JTg0hmpS9brQ5MUz6duPrlPPbcjUOett7pJjHZp/E7HhReb+2sEAumM/WXMd13npTy7fAfe+Q8cHvM4YtXrdU20ZQeWiOzduV3uSHpSrSGjA8cwyTUtGdWmNyK7azZRMbq2pP2y37szWz6adW1UT1GYe3MypP3u8Lr1WKHhoMTpvuvp2LmnLRCd5fWpnk1IonxfYeGNBlHpvPV3792oq8tkrnjS55YZsJi6bUHoJDG8+g92/4HEbufWqVwuXA6jYksB+36jvl/DZ6DOZgjJepCPQ2M1QtkbFU2RzSIp9tzYs6+rdB+pmlIsJAJPa6qVQXLr19+/Zekn9qCezm3Lyd34aXJNVik7JaMfWu+zxThHtTuw/O+20Fa5XltYWFcp6Yqxd1tJ6Whw8fJuNdIZxn/lo94LlMrcKNPmVtb+3S/0zzfKTYwLUUXl8qYlO+D+SMplbsYx5bq/Lazlc1b/SKF3S08JCmMAOPN1Z6jbWlEWeTeVGEqFI6aDjgXRPp51L1ipeHFL3pZXuP1Ip8evux+SzlD7ZWVU11572go01ET8GzgocNg802D6Mz3FLy1PBZXRv7v5ClVrXYK575lIyIlNt7mMfWuia780M32S2KEB57QUeXc5HCbFE+3/LysodyA532acSbgvAUG9bZ34Dg2UlVGJyptXZJ0VA2j62VPB66GIFBpjbVHd2GzkzOFHqykbPkG2BzhlsqoVI+p+tkf296SuHufv3yyy976zD2+1ruqakV85jH1uomu2erGBJvEcIIIOSQggsfl729uJoPlaYSQqeJqfftbeh9llrT7N5cK4qPYi42Kftcptbeo8wTdq5oO4sRhh4eH6y+6zbVHc0GwyYee2UThoIzJuOZlJGCB4Hkb71t+/PNN98kO+Yq9vB32d4jpT6X5UuxlfitbrJ7fagihPCPLHgh64c31thbfNAzDsPS+xUP9HGL3dDHKNHbdnBrHzxWqfZvY9JDrC9xKbb3MI9NsLlOXIwwNzf3nkUIo9m82WBiTpTls3Hw2uk+vga8KQwlN7ft8FYUqfXh6xUvmzEVJJU5g6m19zCPTcpiBGyvExlt4S+PB9a9iPW/bcc+VNoci/i9NbHntlFxqNF28Etbal6hXk8qYd6YohapVef25rH5jLQebK7xk05CCH93ZtuL2G4vWy5zB3P31sTuWSj7tnnP8sm/KkXD4FjCeim296CNj3usFGxje510EsJVixDqrxh99OhRtJsJb//ksbmZpGH8xzxgnoOUz+haStfjfpio0mxyMkrZ3oM8Ow1eSbkYAdvrpJWjTkIYQcVorActb/00+jWPLQ0Y5h17Y2bCuIaADm/lQg+0FMW6w1vYxH5RtvdIzeg1j032o5iMcPzK0WDt3fcC1rfJxN6XjbCopedprSnuV8xNW/Hc4g1xTR18D8n9S3XMFX3nmvDMpxheLvPYYu51J82A7XXsClKqF4K198wLWK8rP9bkYwd+p7uuuG9//PFHtAcV3kDv1eEvcymMsjssd3GUlcKpFnKQx+ZLsRzgaXt27ArSsJDOh7/80gtYH9999120ByseQMNY6R76VM/F2vuL9hYmXR9+DzF6MH5SDZNidBKut73HwXlsNMf2GZADeIkNdtx2H5esHK232i/W3BU2FENY6edGcR9jPdRt/3H0PSQ5PbWZmaXI0x1F0Un5gpKSmCRhs2k5qoIUG+wk46u8eDXBQxtr+MPig3xaSMTqbSNh3L5/ebav6M2Jrdujmtr1Yc83j00GDJEea5zVKStH6y3tjzX0sb6+vucFdENJf51xYMbqzbUgYfBQN4d8iuKFgRSQOtIsUm3vYR6bHLOCdLBihKmpqXfDX1rxwtXX5iPGt8MmS/alHubn56P06HKgs9a8R4MZ3xz2KYqCGObj2t7jz9nN5rHJMVjBFrNyNIKwVaxvzry16mXT2zZKr0OTzVhTuo8c9rTTSFEUnlS5r6Qyb7dXzm6WWitIZ/6cObrhhWtXAYKtGPL1tsWY28ZBpudhcEOF+Z4ksacYJqVYoIocxjJSkVp7D2c3ywnABhsftN3HhfCHt7xo1RttJM7GGK7CdU/FoQdofmvuk08+iTb3xxeFwSF5PeZm3EcZ6FQMV+E5jrl59EEeZVvcyAnYwhY7zszR11606svTY50zymEwir5KYk/AXtFfyyHyx/PUp9aTrLfIaZgXwxSLMsxjkyF4PfAM0vAH73rB6umdFWNeioO829HzK8YZt3ymJsYepQzPaqr5bcyexWPYhvYe9mOTIWFw/N1Bc9qWvGDVH5zkpMQYGiXcgLfDgzPftcdBGauX1yrSkyXipzjm6iSGTPnCm1p7D/L47McmQ7I0ULsPB8W359AkSRhj0vvUjnzKGCvu6FnoS8Pxez0+ePAgSW8bUx4G7dFXftdYXzgOexE2j02GBVvsyLYf3W73TPjDa16wdoRGGXVkAUJ72n+QVxRjiNQ1eLI9JdZK9KOEETaIoY5XkernlNp7OFdUKmQNm+yo0OhE4IUXq1rwcsQoxwm1K6wW45xGvL2EzDzkjg+Na2PMVTxKGGEYY4f1LUuxvYd5bFIx2GITR7X7CH9mZtOLVe1hGWMow8Oyfd4Zkthj9FqQoG7j0eNDxTdtU2KdMXtUZSUFMvvtPym29yj70ZnHJhWyiU12lKftElULXqxqw1IxJtHyBksPLzeYdq1FOtTHJj6TOUAnu6dMlXjy5EmSYVI+935TMVJs72Eem9RRQYpNdlRO2zUvVLWb6s2bN6MsVWfDNAG8fZ6ZGEOkzKi09cfJ95gUh6ejg+Yd04g3pfYe9mOTusAmO8xmO2WPtuohfBGjyCnx/rSzijTGcUhWMQ+fN5uSodPr8S8N9rLAIsaCGfPYpKEKUnq1ndrXYpucnHwn/KFFL1S1pfm0NIixYk/PRjvXJF31Y6xkJu/TopiT31euHZMvUsxvY9TTRx99lFx7D64102TMY5MaWcQ2s0fbiDZScsZirH6iVcDFixfdaFoIB0yMLxKE91yTw+03GD4YQKkJ4weDk1BpSu09zGOTRnu18Rv2aKt2EyU3I8bO5Xg1rNZrbzUzh2OMeW3mBQ2/53ANybFKTRhrKYV38VYbrZBR9Go70Gibm5t7zx5t1RJrBZT5QxbHxPYyweexBU01cB1jzFvMRVxb9lBffGUUvdqwzQ5q9zEeeOlFyjsMxeHoG2K7jTaSvWP0xlDZ6j0a/v6y95BrpeqReWwyQrDJxm2sO6J8thjL8BmzYn82e3vFmPvkHNJqe/L99NNPWljmsUmuDXaLxrpbXqRqNk26z8eYo8HBuF9DS2kXTCGIsRjBF4rq9qDUxkCZxybyFlsHNtjtdDpXw29ue5GqgZyHWF375mJ4oFOMEFt7CHKFLEaotugktYHr5rGJvME2ttlB0xBuzTjCqhLomRRrTgmHtYeiRhvDxmNMVqdJrOuz2l6RMc4+No9NZCB2sM0O8rQ5DaHCjTLGfBLeuD0UpSxGoM1GbKJfl96M6vNrY5w5m4rYy81jkwZ7td09KKdtwQtUXRJwjF3nnfEovY1YY1yj5Fw6GaF6aPNiftvJ89hcQ9IgCweNsFry4lSXABxjEQIbEB4WjTbXKMUoMXqDy8kI3qd6mirH2Ow7VhGZsKelRMDSW6Osut3uaUdYVXcg0twyxs2RA5HD2vvkGiU/58cff4zyxeLTTz/1xaImQz3Gex6jKNKhwtoWNBJBePQ+Ntp+0xAee4Gq2Ry//fbbaHMzOKy9T0IIkma2sQkPNUUSHpT15TLG2D/SPDaRA3n81lSEYMWdnXHuaGVhiFirtZ48ebJ3WLMRSbthrcb4coGHgzYVHpb1wUzklOZ8NpXH5hqUSFjDRttvhNVzL041IYgYu82jR48e7SWg4/Lnc0o74f5DjIPjETN7rSCt18tKlW5sffpiEG1weGlw/UlEYJuN9xttE4F1L87wRtvHH3+8+8svv0T7Bkl1ngjEGibDI2wuUb37FMUeMc5GblrksdmPTSID22yiv0fbufCLG16c4TdDkqgtrVfq5KKnGB5hD85696rPPvts99WrVy64njw2XrpddxIZG9ho/cPiz884d7Sydh+W1St1cvHS4wzS0UCzbfPb/lxz5rFJpGxho/UbbeHXZ157cYY32kjyVUqdXLz0OIN0dK1fqCJuc36beWwSOa+x0d4w2sJi/WDGuaOVwMOvlDq5MCB4+dFoG90El6dPn7Z2vdmPTSJnBxutvxDhkkZbNe0+qMpSSg0nKlvdU0ab1hHjWLO6ZR6bpGC0YaP1FyJc0Wgbnvfff3/vrU0pNZwI2bmnjPaFk5FNjG5qizBSv/zyS++/RG+0YaP1N9e95oWppv+RZfRKDS/GLZljNFpvGyHCtrx0YpyaxyapgI3Wb7Rd98JUY7TFOIRbqdREjhXPk/vK6PtMtmEPM49NEjParvcbbbe8MMPDJuBcP6WGFw2q7dXWjOFGyDDnXpMYpbaUkcSMtlv9hQh3vDDVVGHZrFKp4cVzxHBzD9Zm8tsoBMmx3yTGKEap60oS405/IcJdL8rwRhtvbxsbG564Sg0pksTp2O/h2twMZWYV5yT7sUmqYKP12mynut3uvBemmhFWbSybV6pq/fHHH3aob3g/w9O5vr6ezZoiT5KZq64pSTA8Oo+t9pfRFn5xwQsz/CZHF3fnjipVjVfk9u3bHrANQ5NjDGhDoyKNstBvtC16UapJ4M1lg1OqSTEVgbmYHrDN7mn0nvz222+zyW+zma4kymK/0XbPizL8Bnfz5k2HLytVkWj26uHa/L5GSDGXMVe8DKysrOzNXHVtSULc6zfalrwow29uhHM02pSqRo6yiqfAihYsOYXe//GPf3h/JSWWNNpq2NzI/2BDUEoNL8JyVvo5JaEO0VLG6mTRaGv5BkcOTptm9ylVp7777juNtob7tRGizvVF9MmTJ1aTSrJG27IXRaNNqZj0/fff7yXCu780s5/hicq57yTFFXhzXWOSAMsabTUZbTl2EVeqCZEwzvxRPSHNFB/885//zH6NbW1t7RWQucZEo01Pm1JqCJFLZZWfbT7q1s8//+wsUtFosxBBKaXRlmbrIjxQrjURjTb7tCmlPEgjbu+B56ltsg2IaLQ5EUEpNYQePHig0TbC/YtrnWN7j0H122+/2QZEkjHabPnh7FGlotLDhw812kYInqa2p3dQfGEbELFPW4tK5DXalNLTZnuPNNXbBsR1JxptmW98f/vb33Z///13T1ulKpA5bbb3aEK2AZEUjDYHxlew+V26dGkvL0IpNbzKPm3uL/VRtvdgkLr6j2wDIpHx1sD4RS/K8Hz44Ye7v/76qzueUhVoeXlZo832Ho16epm9quEmEbDYb7QteFGGh1BOzOXyNP5lgxZJAUcM1Wuwffzxx61s73Gc/ZLZq64XiYCFN4y2brc770UZHrwCMeeGMCCZtiRffPGFSPRgVLiv2N6jSVGcQVcAvW3SJNhovUbbWKfTueuFqSY/hDYFsYoB3LOzs3sbkEgKuK/Y3qNp8SL+0UcfuR6lMbDRxnoVfvGOF2Z4MIjIw4lV33333d5n9F6JtLu9hwVTg4siDfZOQ/XSIHfeMNq63e4tL0o1Rht5OBptImJ7j3zEpJvbt2+7jqSp8OitfqPtuhemGkhc1WgTEdt75KVffvllrxenYVJpwGi73m+0XfPCVFdCH3tOm/dKpH2wNzmxZTgxpcM2INKA0XbtDaOt0+lcCb+x48UZ3mij0ohS8Vj7XpmXIWJ7DzVcGxBffmWE7GCj9RciXNJoq2Zz/PTTT6N9m6XDvEabSPvae/Dsq2rEqELbgMgojTZstDeMtvDW8IFGW3VvtOvr69G69u0wL2J7DzWc1tbWbAMiIzPasNHeMNrCwgu/PvPai1NNddbTp0+j3GhorqvRJtKu9h6vXr3SyqqpDYj7qYyA19ho/Ubb+fAbW16c4TdJHuJHjx5FudFgTBIq8V6J2N5DDd8G5O9//7vrTepmCxutvxDhXPiNDS9ONVClGaNIRNZoE8mfsmfkv//97yQMIMK329vbyRlupMLYBkRqZgMbrb8QYSKw7sWp5g13fn4+yl5IhEk+/PBD75NIC1oPpdLeoww1LiwsRFt5f5gYXWgbEKkRbLOJfqNtPPDci1PNhonLPMbEX6qeKJRwcxHJuxjqp59+SsboIW2DpH4MH/JuU2wDwou6bUCkJrDNxvub654Nv7jmxaku+Zd8h9jEmzefTaNNxPYesexJX3755d5nL/fOjY2NJNuAfPHFF+6tUgdr2GhvGG1zc3Pvhd947MWpZuO8dOnS3kMcY+JsuUF6r0TybO+RSm4YYVHy7no9VPw3XqsUw6R4DNn73V+lYh5jo/V72k53Op37XpxqjDbc/DGGJ9gIv/rqKzcVEdt7RNnrrNw/f/zxxyTbgFCEZhsQqRJsM2y0N4y2ycnJd8JvLnmBqoGH9ocffohyYyHZV6NNJC+DjQKjlPLBCIseFE4sDdDffvvNNiAiwTbDRhvrV/iNBS9OdWAcxSjeBL0/Irb3aEp8zv6w6H4w4zPFMOmvv/5qGxCpkoWx/dTpdO56cap78719+3aUmyjl6SQru6GI5LHXkKeaSnsPRMNfGv8etgelHCZFNFi3DYhUFB69u6/R1u12b804f7TS/JIYN1KSZY/aMEXE9h6jDovu9/0+/fTTPc9Vim1AiLbYBkSGZAfb7CBP29XwB7a9SNVVkP7yyy/RbSaU03/yyScabSK29xh5WPQkhkyqYdLjGKgiB7CNbbav0RZ+89KM80crLUaIMTGYjfPzzz93IxFJHCrBUxr9RFiUgonj7D1lmPTBgwdJhkltAyJDgk12aV+jjSnyQZtepOpgNEuMYrP3/oik62UjbJhSew/6Vp70ZTHlMKltQGRINrHNDvK0McrqpRepuo2V0u8YixEwJr1HIrb3iDks2g+Ng2McD3iU8Ib6oiwnBJtsfF+jrZiK8MKLVN3mStl3jOOsCFP45ieSZnsPDKBU2nsgDMzjhkUPC5PivUqxDQjeQsOkckxevDUNodTU1NS7M84frdRoo0rz559/jnIDMc9CxPYeMYdFD3oRTjFMimhfMqzxKq1jDdvsQKPNUVbVbrCxTkZwBqmI7T1GERZljmjVbS9SK8CoOkwsrerRdv9Ao60YZbXohap2o6VcPTZ3Pp+HzdR7JJJONfry8nJSRkoVYdGDWp3EOiZwkDYgvjDLMVjcd4RVoVNORajeaKNPz9bWVnSbh5MRRGzvUWc/SBqM17G/pB4mxVtqeooM6GljGsKpg4w2piJc80JVn9cWY5NdhjG7cYjY3qNq0Qh3FJ78VMOkRDrwmvLS7BqXw8AmGztMM3822HWUVcXVXni1YtxYb968qdEmYnuPyhPuRzF3M+UwqW1AZACwxS4darTZYLceyGuLUbzteX9EbO9RpQe/rrDoQWHSGCMZtgGRCji4sW6Pp23CXm3VbyxsYjG68WlH8tFHH7lpiNjeoxLvPS+o5vs1W6wh+fRowyY71Gjrdrtn7NVW/eaLYRRjqT4bnSFSEdt7VKFHjx6NJCy6X5h0ZWUlSaPNNiByWI82bLJDjTZ7tdUX5mD+XKwh0vfff9/71ELDIEa8N2m296BQoqlQHz/zk08+STZMahsQOXaPtr4Q6ZIXrPpNhTmkMc7NY7Plrd4No11wzwkrxQRe3yY8Nbb3GE7sa8wFbfq6scemGibFq+o+LH0sjQ0ie7XVF+4gSTfGPBQ2XDeLdq1HQjKx6enTp3stctq6Fsv2Hqn1H2MeaNPGdtl0Fw9lirNJ+cyEeO2dKWXlaNGjbSCj7Wr4C6+9aNWHPCiFj1EMkNfD0a61SP5RbOLQamtuT9neI9Y94jBPPRWcMewd5ctxjPOeU/JYShS8xhYbyGgLC/9C+AtbXrTq4YGMtWeQORXt8vrGlv9TjlZr6xpMsb1HrEZGymFSjOBRtUyRqNnCFhvIaAt/eDyw4UWrJ/Tx+++/RxviwAPjvWpHK4nY8is5ZBn51sbDKsX2HuWeEVtXf64l+xiFXymGSW0DIgXYYOMDGW1zc3PvdbvdZ160enIuYu1uzoHR1kOzbR6db7/9Nrr1R75nG3sG8n0ZJ5daew/y7mIJi+YWJsXbyjNKVb/7cTvBBsMWG8hoo8Q0/KUVL1w9mwkhoFhDIIyEMRE2b8hdJOE/NpHL1cZZjCkmz6cwgok97Pbt27t//PFHkobb1taWPTTbzcpA7T4KnQpW3rwXrZ6NhLfTWMMgbBSff/65G0XG64/7y32OTaMYMG57j/a83OUQJsVTaBuQ1nra5rHFBjXamIxw3QtXX4g0xsq9mPNUpDoIu8R2iLUxny3V9h4UsMQaFs0l9NxbnIOBbGV/K42262PHUfhLlwLbXrx6NhLerumPFmvog7CCm0R+6y7WcWoYAhyubVlzfE8O4tTae1C8EntYdL9rTZgxRu/yICr7aLqHtQpsr0vHMtrCQj8f/tJLL159SbLr6+vRbhRtb3Ka67rDGI8xnxJvQpv6s6XY3iPlnFcS+r/77rtkw6QU6dgGpFW8xAY7ltFmBWn9m3ass0jL6iWHGNvceVQhILw3bfKypdjeA28o8z1TvE+ph0kRDdB9kbZy9NBiBAfH158QHnMC8sbGhm93Ga03csZiDBFhvKRqDJzUeIixeveosCgNa3MwllMNk9oGpD1gex2rCKGnGMEK0ppzWnh7ill4ZkyCzaP4hdCWa6z59h6pVTPmNBMz9TCpbUBaVTl6fBUzSHe8iO0sSCiTYA2T5uFli9Gry+H5zTff2N7DsKiezgFFG5C2eKZbys7AM0f3KUaYsYK0/mq+2Lt2E75yLqlVinWF4FNpH9HG9h4YmKmHRfcjxZzC3hcd24DkXTmK7XUio23mzxmk617EesGTFbtI4LXJY7rendjmjPaGRnOfd5tqew/EpIYcJ6SUo9xSDZMSAWmTh7plYHONn8hoo3oh/OXHXsR6N3Q8Da9evYr+7Y6mu77dpbW2CKMQ3op1TaXW82uY9h4xp0EcFIbL9UWtjHKsra0lGyalDYjTa7Lk8UkqR/+qIA3/wIIXsf5NPYXk2N7qJe9bGsUHJJDHuq4IFeaem5Nqew/mddLTrw25nqmGSRGFbBifGm5ZsXCiytG+cVYWI4zA2/b7778nsZnTndvChPjhPsUaFkVUUeb8ApBy0jv3hrB17sZAGSZNrclxr7eaF/423Ku2FCEce3xVv8Ki/iD8Q5tezPpL0WNuttsrjMvc38JTBw8CSf4xG/85zxotPZ0pDitv05DyHMKkbfCKtohNbK6hjLZg9Z0N/9ALL+ZoqstiPmj7q/4I+3jv4vTaxl6RTFiH/Ejbe2gAGCYdXuSttqEKuwW8wOYaymibnJx8x2IEc9sOyklis/PexRWOi71hMwn5ORcglIZzzLOFjwqLtnHvTXEWrIVi+RUhYHONDalTTkYY7WZPVVAqwnDT4xZPmCeFthK0j8k1ebps7/Ho0aPkDn7uC0Z/Gw99vjNzPWN/4TnqZcg2IGlTTEI4NazRxmSEK15Q3/gOEkYmIRU+u295zRlsKRgKeATm5+dt7xFhWLTt45HKedApFIQdlm9sG5B0wdYaq0JhAZy3GGG0Ia7Yc5L6RT4I1YpWMTWzXvCwpRBWJ2SYqzcn1dyo3gpEX5rTDpMiiipsA5JmEQK2ViVGW7fbPRP+wTUv6miTmFN7WyfpmvJ58ypGG05PJaSTs5ct5fYebQ6L7ncfP/zww6TDpBrhybKGrVWJ0VYUIyx5UUebF5Pi2BsMTRJiHWg8mrYeHLipCO9xjsYB34cDMsX2HltbW3thUZ+nvMKkhLtznBmbOUtVFCH0ettu2WR39BtHqmXoGBMUKJjnVv26oKcfnthU2sOUb/85J0lzQKbW3qP0yDjhJM8wqW1A0mqq2+l0boxVqXDjL4R/eMuLO/pu3akONcbgZOOjKsuNo7oKN9ZEagYCYcMc82xSbu/BPTEseniY9MmTJ7spyzYgSeWzXajUaCvy2myy20CeTEohsH7xpkp+CKE83ujdPE4OzZc5RFIz4jEwcwzVpNzeg7AonnCfx6OjHSl5tPdLVyGP1LGDSTTVPVOp0TY1NfVu+IdXvLij3zjIOSFHIWXhdSMUgxFafi/v72D3n3FIhEPpiZfq2z7fIUdPOAdiagVDvEjhrTUsOhjc45TDpOTm5TwyLhNWsLHGKtapIq/NCzxiSHLG4El54+hNRscAIfTgJnK4scb/Enr74YcfkguHlsJL8dlnn2UZFuUgTDFZ3ZYQxw+TplgU1n/PDYVH3VT3ViVNdQ8YHm9eW0PNU1NsJ3CQy56QKR5EPDB8PzeT/9zrMneNN/xUvWulR4ecxtxCMym398Djrdfl+PebF4+Uw6SorSPKEmBr6CHxhw2PDzzzIvtmX4UI+T58+HAvt6ZMlm3rYVJ+d97qyf/CIEjds4phnptHNeX2HmVY1Pymk0H1c2qh8P791jYgUXrZng09JP6wEGn4IcteaHNoqk5UJ/yA5w3jrU05b+X35HszCgxD51//+lfy9zTncToptvcoQ2RWcrevd2avqHK2DUh0LNcSGu2ZQ3rDfm3NbhzkOOUoDkIOFsZh0Zy37PGWYz5U+Z0Is5Hjx/fOwVgrPTo5Vqyl3N7DsGg1958KbmYtpyyqnW0DknF/tn36tc2Y19bsxvHxxx8n3QbkKBF24mBcXl7eC53iHcjBgCs/OyFDvFAUl9AAM4cCk957l2NvqPKFiXC+uYWGSVOOdtgGJK58NmyqWo02eomY12b/oFEJ7xMVpxg4hE/xTJWbTWnExWgc9H82DnzuGYcnXrVUq0GPEi8TuY4wS7X1AyF3w6Ia73peo81nO1Or0VbMIV30gjcPYbXU+7cdN3yKB44Nk7ddjCCMuN48uKaMuN6fjVGJN41QGnlqJK1jzKQ6kuw4eWw5NmxNuQjIHl31hUlfvXqV9PPqRIwoWKh03ugheW1Xww977QVvduOgOSaem9wKE47j5qclBsnBVMVhxHJAET6mlQhVfvt55aqgLAzhZ2A04l3CYMGYJKyLN40DM9URZCcxqMlFzDGPLdV2O6w99gf3y3pgvaeeh2obkEZ5jS01NgqFH3Qu/MB1L3ocrnqMhJzyoobJ3WE8D2FjQqqMfOLacHBh0BFexaij5xJvynjCMLYAQ4+3zhL+P/BngL/D3+Xf4N/i3+TfJvREXhoGGoZLW4y0/uuO0Zzb5l+29yA0n+J9NSxa/95L/mbqL1vsZ97TRsCGmhiJ0VaESB970ePYPNiYU8+xGKWBwUaFkUUVGJ46Qq4YXhh6wH8Dv04IhD+LMdhWj+ZR3hyqmXOtRku1vUfOLVdiqyZOuQE24vPzEutaGTmPRxIaLRV+4B0velwd2nmzVmqUwpuZ40iklNt75NpyxTBpfSLFxNGCI+fO2CgVbu6F8EO3vfDxHDKE+cilUmpU4TdCyDkabGXoK8WwKIa0B/DoyKF3JlEE28KMlG1sqJEabZSphh+85sWPzzuQcw83FYdIzM+5s3qq7T0Ii5J/qcFmmPS4oro9x+rvSFmrvdXHASOtFrz48cEGkstweRWvwZbrAUzBSYo9EG2a2nwLptTDpLzw5+g9j7HVR62jqw7Ja7tsiDTeNz8NN6WH7fjtPVJNMSAvyfFEza0d2gzlMGKQqnjbgNQbGsV2GmtCRYj0hTch3hw3ixNUlTlsrKlcn5eU23vgGTQsGsfLMpXnKcs2ILXzoonQaG/rj3vehLirSmkH0sb+YaoasXYYMp179/RU23sQFqWps2FRw6RVyTYgtXJvpK0+9mm0eyV8iB1vRNx93HB522dMHVck46+srGTdpDV1D4lh0fjCpDwzqcsq5FrYwWYaa1J09DVEmkYLA0q62zSrVA0fJmHSQc4GQertPWgQbVg0ztSU1MOkZRsQxiV6X6sLjY5sCsJBmpqaejd8iBVvRhqzSnHds9ErdZhoHUHTUPK8cjcIqLhM0QtNCI6wqPub4fa6ZBuQylnBZhprWt1u99qMA+STgfE2Vpaqg8QoLzbq3HOkOIh4FlJs74HIVTUsGn+YNPV8YtuAVMZrbKWxGBQ+zHjgpTclnQ2Fh5DydPPcVCkOF/Kjcm6am0t7DxPF09lnUw+TIoxPjFDX21BgI41HYbQVIdIlb0p6b4KEVwiFqXaLXEfy19qSeJxyew9etAhdu48ZJh1lfqtrbmiWGq0a3aeK9Koh0vQMN0JghIjowZXi2B41vPAE3L59uxX5a70HaapFORRNGBZN6wWB6v3U9erVK4tehgiNYiONxSSrSNNvC4KnhcRT1Q7hscEAKMOhbdiMU2/vQVi0DeHrHMOk5IqmLtuAJFw1esAsUkOkiVeXMndRr1v+4vAn3NEmj01ve48URbWoIap0wZudesslzgVe7jkrNNyOFxptZNbogLNIDZFm4HWjDYKtQfITuSkUoJQD39u28ZLDmWrxDffNsGjaYdLvv/8++T1ka2tr9+bNm67DY4RGZ5qaNTpA64+z4cM99yblketGdRoHhQ150xcJ95Tuk8vVxiqwsr1HqkU36+vrhkUzGSvIc5i6CPXaBmRgnmMbRWm0URkRPty8NymvClPeqgiZpj5Pr63CY0pncw6MNnrXUm/vwXPnAO+8wqR4q1IXL/S2ATkabKKoqkb38bZdDB9005uVz4FX5gJxcPCW6PD5NERRCeEYPDR4Ttu6uZJ/k2p7Dw/HPNdjDmFScywHYhObaCxmhQ94OnzQVW9WnuCxIC8I97jFCvEaaxz0hAPb1MYjxwRww6KGSWP34tsG5FBWsYnGYlf4kLe8WfluOKXxxlsWG4/GWzzGGp3LqQAujbU2b6apt/egaMSwaL5rk7STHPKFSZ2heE3Dbd/Q6K2xFBRu3vnwgTe8afkbbzysHCw8uKl3/U5VNL2keSdvvHrW3mzvgccxVTk6qB1TOVJ/6SXtwDYg+7KBLZSE0VaMtVrxprUr540h4xySVOiZ91Z/PgleTlqz9OasuWn+CdeDMH6qxTN4Bz/55BPvZwvCpE+fPk1+P7INyL4sYwuNpaJOp3MlfOhtb1y7jDfeHjEiqFZkM7LitFptbGzsGca07sDL2cZq0Nzbe+Cx5v56L9uxVnnZzaGalDxnXzT+YhsbaCwldbvdM4Fn3rx2h07ZkKiUwnNg+PRkwvgg/IznCIPYfLWj23twvVIVoW7usfezPZNoCC+mHp3g89sA+q9ctmfYQGOJ6VSwNO/6YOp9I1SFAYf7HAOONzI9cIdvfhQVMOeP8Ce5auQ26VXLv72HYdH2vmjkECZl2ggvl22/p9g+UY6tGqAgYcaCBOk34NigCF8RQsUjwhzMthtxVJFhzPKmSmEHHrXyjdUDvB2NSw2LGiblZS110QaE/b3F+xYFCDNjKcqCBDnMgCsrqPAs4IUjRPDjjz/uPfQcYLm2EuF78f3wqmCk8WZKmw6M2d6CAo21460p1lGq7T0Mi0ouYVLU8jYgK0kVIBxQkOAQeRnIiMO7VHri6APHQcYGwGHMW2hqGxoGGjlpeNEwSAnd4UljriubWm9+mkZae9t7OMtRUh+31p/iwV7XwhZEr5MrQLAgQaow4HqNGPK5KI0ntwuPHJ4pcuMwgmh7gWcOg44Q4yg9dPwcwrr8XH4+n4PPUxpnGJ2EPPjcfP5+A01Drdr2HuTTpBoWJazrvRT2A7zuOYRJ27iuUy1AeKsgIXyZO4EdH0qpypDjoMYIwqDDY0UOGJsdmwTGEvlyhBrw1OGBefjw4V5iP1473mQxrgAPRz/l75EYzJ/n7z169Gjv3+HfwyDj3+fnkIPEz+Xn8zn4PHwuPl//Z/de1rM28FBxnxj5hEc2NVinhkWl9yWE/SXFtdwLz+ODBw/aFCbFxrmTZAHCPiHSc+HLrPtAyiiMun5DiVwRjClCaB9++OHeJkIYAvCA9VP+Hn+OP8/fK42xQX6ejBbuz373MRXKymCRkjK6kAMtWt/r2DpjmQhv26IPo8Ro2A2K1zHfe9s03kfJbU23cG0vZuFlKzU7O/tB+FJbPpAiIiKSEVvBQL0wlpO63e7pTqdz35srIiIiGTXTvY+NM5abwhe7OuM8UhEREckD5oxeHctRc3Nz74UvuOZNFhERkQxYw7YZy1XBIr1h+w8RERFJvc0HNs1Yzgpfcjzw3JstIiIiCYMtMz6WuU4Fy/Su3jYRERFJ2Mt2N6s2H4d42yZmbLYrIiIiaYINMzHWBk1OTr7T7XbnvekiIiKSGtgw2DJjbdH09HT43jMvvfkiIiKSEC+xYcbaJCzU8MXvefNFREQkIRZb5WXr87ZtugBEREQkATZa52UrNTU19a7eNhEREUmEe9guY20VQ1axXF0IIiIiErmX7cJYm1Xkti25GERERCRmL1src9kO8LaZ2yYiIiIxstl6L1tfbpveNhEREYmRpVbnspnbJiIiIuaypZvbtujiEBERkYhYNJdtf2/b+RmnJIiIiEgcMP3gvBba4TNJd1woIiIi0iA7rZsxelx1Op1z4UKtu1hERESkQdaxSbTMDtepcJHu6m0TERGRprxs2CLYJJplRyhcrPHAcxeNiIiINAA2yLgW2eDethvhgr124YiIiMgIeY0NopftGOp2u2fChVt18YiIiMgIWcUG0RI7vrftSrh42y4gERERGQHb2B562U7mbTsdLt59F5GIiIjUDTYHtocW2Ak1Ozv7wYzD5EVERKReNrE5tLyGHybveCsRERGpk0WHwlfXcPeFC0pERERq4IWNdCssSuh2u7dsASIiIiJVt/jAxrD4wBYgIiIiYouPVk5KuBzYcoGJiIhIBWBTXNLCqq8oYclFJiIiIhWwZPFBjZqenj4fLvK6C01ERESGYB2bQsuq5qKEcKHvBHZccCIiInICsCHuWHxgUYKIiIhYfKB6DLeLM05KEBERkeOxiQ2hJTVCTU5OvhMu/IKLT0RERI7BAjaEltToW4BMBJ67AEVEROQout3uM2wHLaiGihI6nc7VcAO2XYwiIiJyCNvYDBYfNN+7bdnFKCIiIoewbE+2eHq3OVBeRERE9uOFPdniqia9PuNAeREREXkTBsJf11KKSHNzc++FG7Pi4hQREZEeVrARtJTiDJM64kpERETAUVWRV5PeMEwqIiJiWLQIi1otaphUREREDIsqq0lFRETEatE2hEm73e61GZvuioiItI1tbADDomm1ADkdbtw9F6+IiEiruIcNoCWUmMKNmyjmjLmIRUREMsfZoomHScPNuxzYdDGLiIhkDWf9ZcOiCWtycvKdYHnPhxu544IWERHJkh3Oes58LZ/089vOhhv62EUtIiKSJY8567V48mkDciHc1JcubBERkax4Gc74GS2d/NqAXLcNiIiISFbtPZx6YBsQERERsb2HarINyHhgzYUuIiKSNJzl41o2+XvcLoYbveGCFxERSZINznItmvbkt90KN/21C19ERCQpXnOGm8fWzvw2+7eJiIgk0o/NPLZ2929b9SEQERFJglX7sdm/zf5tIiIi8fdju6DlYn7btbAYtnwgREREomSLs9o8NjU2NTX1rvNJRURE4sxjc66o6s9vO9PpdO77cIiIiMQDZzNntJaKekNhYZwLC+OZD4mIiEjzcCZzNmuhqIPy2y5amCAiItJ84UHRQNc8NnVkYYKD5UVERJph28IDddzCBCcmiIiIjJbXnU7na85iLRI1kObm5t4LC2fFh0dERGSkrHAGa4moYyksnInAmg+QiIjISODMHdcCUSfS9PR0WD8zL3yQREREauUFZ66WhxrW43YpsOEDJSIiUgucsZe0OFRVFaXXZxx1JSIiUjWMqLpupaiqtKKUahYrSkVERKwUVZErvAmcDgtsyYdMRESkEu5xtmphqLoMt7POKBURERmOYqboWS0LVXdhAq1AVn3oRERETgRn6IQWhRqJilYgz33wREREjsVzW3uokWt2dvaDGYfLi4iIDMo6Z6cWhGpCp8ICvBzY9EEUERE5shfb5TFbe6imNDk5+Y493ERERI7uxcaZqeWgGjfcwoK8E9j2wRQREXkDzsY7GmwqGtl8V0RE5C1snqviVNF8dzGw44MqIiIth7Nwwea5KlrNzc29N/Pn1AQNNxERabPBtsSZqGWgYve4nQmLdcWHVkREWsoKZ6EWgUrFcHPclYiItA7HU6kkFRbveOCxD7GIiLQEzrxxLQCVquHmnFIREWkDzhNV6avT6ZzTcBMREQ02pdIx3NZ8sEVEJDPWOOM86ZWGm4iIiAabUqPX9PT0eQ03ERHJwWDjTPNkVxpuIiIietiUsjhBRETkpEUHGmxKw01ERESDTSkNNxERkSEb59rWQ7VbRQNeJyeIiIgGm1IJGG7jzioVEZHI2CnOJkdTKdUrBuyGB2OFh8SNQkREmjbYOJMc/q7UwYbbmfCQLGm4iYhIwwbbEmeSJ7NSh2hubu698LAsBF67cYiIyIjh7FngLPJEVmowj9vpTqfzdXhwtt1ARERkRGxz9nAGeRIrdQxNTU29Gx6gO4EtNxIREakZzpo7nD2ewEqdQJOTk++EN57r4UHadEMREZGa2AxnzTXOHE9epYbTqU6ncyU8VC/dWEREpGJecsZw1njcKlWR4Rbegi6Gh+u5G4yIiFTEc84WDTalatD09HR4xmbW3GhERGRIVsOZct6TVakaxbzSokO1vdxEROSkUw4cS6XUKFRMT7hnLzcRETlmD7Z7Ns1VasSi8aG93ERExB5sSiUg+ukULUE23JBEROQANjgr7MGmVPM6FR7IS4EXbkwiItIHZ8OlMStElYrHcCsqS1fdoEREpChWo0J0RoNNqQgVHtDxwLKVpSIirTfYOAvGPRmVilg9BQrOLBURaR9b4Qy4y1ngiahUAipmll6bcfSViEibeOkMUaUSzXObnZ39wAkKIiKtYI093/w1pRIWExTCw7xiI14RkWwb5q6w13viKWWem4iIxJu/9rX5a0plmOcWHu4r9nMTEcmj/xp7uvlrSmWsop/bYzc8EZFkeVz0X1NK5a5i4PzijHNLRURSgj17kT3ck0ypFqlnbum6G6GISPSsOz9UqXaL8VcXinCpUxREROKcbkA49MKY7TyUUkW4dMHqUhGRuKpD2ZsNhyql3lBRXXrV6lIRkWiqQ69aHaqUOixcej5sFPdtxisi0kyzXPZg9mLDoUqpI0WjxrBx3AlsuIGKiIwM9tw7NstVSh3b61bMLl21SEFEpPZig1VnhyqlhhIJsIF5ixREROopNmCPtdhAKVWJSIQNG8vlsKk8c4MVEamGYk+9bLGBUqpyhc1lopikoNdNRGS4Vh7spROeLEqpWr1uDCnW6yYicjLvmoPelVKj9rqNF2+Km27EIiJHslk0MR/3BFFKjVzMwOvJdbPCVERkn8rQMnfNuaFKqSi8bkWFqV43EZEe71qxN+pdU0rFI/IzwuZ0cebP4fNOUxCRVk81YC9kTzR3TSkVrejkHTaqW2HDWnfjFpEWss4e6FQDpVQq2pthGjav5cC2m7iItAD2umVnhiqlkhRJt5S2h41szUIFEcl4BNUae52FBkqp5MV4lrCh3Q0b20s3eBHJiJfsbY6gUkrlGjJdcqKCiGQw0WDJUKhSKvuQKf2KAquGTEUkwVDoqj3XlFJtC5me6XQ6N8Lm91zjTUQSMNaes2exd7mDK6VaKZpOho3wa/PdRCTivLWvbZCrlFJjfzbmLfLd7jlVQUQimhV6j73JBrlKKbWP8UYH8fBWe9/+biLSVL819iCnGSil1AAKm+XpoljhscabiIywOS57ziX2IHdipZQ6hhgDUzTnXdV4E5EajbVV9hpHTymlVAXGW3jzveZkBRGpepIBe4vGmlJKVR82PRO4Xhhvrz10ROQEvC6Mteu271BKqdEYb9eKsKnGm4gMaqytsndorCmlVAPGW6fTuWrOm4gMkLN2VWNNKaXiMN6uFJVfzjUVkXI+6GP2Bo01pZSKz3ijVcilwLJNekVa3RR32dYdSimVgBjkPD09fSFs2ouOxxJpz7gpnnmefYe5K6VUYirHYxVzAx1ML5LvIPevHTellFJ56BTDnot2IavmvYlkka+2WjzTDHI/5TanlFKZqSfvbSmw4eEnkpRXbaN4ds1XU0qptqjIeyN0etdmvSLxN8PlWeWZNV9NKaXa7X07WwyoX9b7JhING8UzeZln1J1KKaXUX+opXND7JhKBV83CAqWUUoN638h9uxd4oQEnUquh9qJ41i7pVVNKKXVSlZWn18Lb//2icaetQ0SGLyrY5Jkq5ghbAaqUUqpS79tpQjbhgLlTtA5x6oLI8acV8Ozc4VmyAlQppdSoDLgLPQacvd9EDumpVhhqFzTUlFJKNaVTc3Nz73EYFZMX9MCJFB61YlLBBZ6RMcOfSimlIvPAnenxwD0u2haYAydtaXz7uMejdsYdQSmlVBLqaeB7IxxkK8VAaw04yclQY02vsMZtfKuUUiobAy4cbhNFE9/Fbrf7zDCqpBj2LNbuYrGWJzTUlFJK5ay9PLjZ2dkPwgF4q8cLZy84ibGH2p43jbXKmjU/TSmlVGtVDLEfLxqLzhd5QeuGUqUhI42197hYi5eKPoVWfCqllFL9ItzU6XTOEX7qqUglyXtbo0IqZrtYW6vFWmPNnTPkqZRSSh1fpwpP3ERpxBWTGZ5rxMkJjbTnrKHSSGNtFZ40Q55KKaVU1Z44QlbkFxWVqUvFgPuXNvmVvqa2L4u1scRaYc2wdvSkKaWUUg1543pDqkWPuNKQ2yzylMyPy7v1xuviXq8V9/5OX6hTL5pSSikVoyYnJ9+huWkR+rpYeOQWiyKH50Uek9WqaRYKbBT3kHu5yL3lHhf3+gz33idAKaWUysOYO1uM3bpSeGRKY+5F4a3Z1qBr3DDbLu7Fi9I4415xz4ppA2c1zpRSSql2GnKnez1zgetFy4flov3Ds6IVhDlz1eacrRfXFsNsmWteXPu/PGfcGw00pZRSSh2pwqA7S35UMVeVXKkbRfUhCe73e4y6jT5v3U4Lc8tKL9lGaZQVFb9LRfUvoerLhbfzHNfWPmhKKaWUqlOn8ACR6I7RQad8vEOlYRd+7Rpd9AvjbqE08OgJVhh5z3sMva0eI2+nYWOv9zO8Lj7bRvFZnxeffbU0xPhufEe+K9+5NMi4FlwTrg3XqPCWWRCglFJKqbjVG4bFu1RMgZgoPHjnAzNFS4pL4deuYgAVSfa3inyur4uQ7UKR43WvMJpKlg+g98/cK/7uAv9WYVDeKYzLG8XPvMpn4LPwmfhsRWXuRDEd4KxhS6WUUkqpw3WqYpRSKgn9fxwI+CN8ZKSJAAAAAElFTkSuQmCC;imageBackground=none;container=0;" parent="HEUI8vA9hFR7EpyzuyXa-28" vertex="1">
          <mxGeometry x="72" y="59.5" width="21" height="21" as="geometry" />
        </mxCell>
        <mxCell id="HEUI8vA9hFR7EpyzuyXa-29" value="" style="group" parent="1" vertex="1" connectable="0">
          <mxGeometry x="1100" y="800" width="100" height="98" as="geometry" />
        </mxCell>
        <mxCell id="HEUI8vA9hFR7EpyzuyXa-17" value="" style="sketch=0;points=[[0,0,0],[0.25,0,0],[0.5,0,0],[0.75,0,0],[1,0,0],[0,1,0],[0.25,1,0],[0.5,1,0],[0.75,1,0],[1,1,0],[0,0.25,0],[0,0.5,0],[0,0.75,0],[1,0.25,0],[1,0.5,0],[1,0.75,0]];outlineConnect=0;dashed=0;verticalLabelPosition=bottom;verticalAlign=top;align=center;html=1;fontSize=12;fontStyle=0;aspect=fixed;shape=mxgraph.aws4.resourceIcon;resIcon=mxgraph.aws4.cognito;fillColor=none;strokeColor=#d79b00;" parent="HEUI8vA9hFR7EpyzuyXa-29" vertex="1">
          <mxGeometry width="80" height="80" as="geometry" />
        </mxCell>
        <mxCell id="HEUI8vA9hFR7EpyzuyXa-23" value="&lt;h1 style=&quot;margin-top: 0px;&quot;&gt;&lt;font style=&quot;font-size: 15px;&quot;&gt;AWS Cognito&lt;/font&gt;&lt;/h1&gt;" style="text;html=1;whiteSpace=wrap;overflow=hidden;rounded=0;" parent="HEUI8vA9hFR7EpyzuyXa-29" vertex="1">
          <mxGeometry y="58" width="100" height="40" as="geometry" />
        </mxCell>
        <mxCell id="HEUI8vA9hFR7EpyzuyXa-30" value="/login" style="text;html=1;whiteSpace=wrap;strokeColor=none;fillColor=none;align=center;verticalAlign=middle;rounded=0;" parent="1" vertex="1">
          <mxGeometry x="700" y="704.5" width="60" height="30" as="geometry" />
        </mxCell>
        <mxCell id="HEUI8vA9hFR7EpyzuyXa-31" value="" style="sketch=0;outlineConnect=0;fillColor=light-dark(#0050ef, #996500);strokeColor=#001DBC;dashed=0;verticalLabelPosition=bottom;verticalAlign=top;align=center;html=1;fontSize=12;fontStyle=0;aspect=fixed;pointerEvents=1;shape=mxgraph.aws4.endpoint;fontColor=#ffffff;" parent="1" vertex="1">
          <mxGeometry x="690" y="753" width="18" height="18" as="geometry" />
        </mxCell>
        <mxCell id="HEUI8vA9hFR7EpyzuyXa-32" value="/signup" style="text;html=1;whiteSpace=wrap;strokeColor=none;fillColor=none;align=center;verticalAlign=middle;rounded=0;" parent="1" vertex="1">
          <mxGeometry x="700" y="747" width="60" height="30" as="geometry" />
        </mxCell>
        <mxCell id="HEUI8vA9hFR7EpyzuyXa-33" style="edgeStyle=orthogonalEdgeStyle;rounded=0;orthogonalLoop=1;jettySize=auto;html=1;exitX=1;exitY=0.5;exitDx=0;exitDy=0;entryX=0;entryY=0.5;entryDx=0;entryDy=0;entryPerimeter=0;" parent="1" source="HEUI8vA9hFR7EpyzuyXa-30" target="HEUI8vA9hFR7EpyzuyXa-17" edge="1">
          <mxGeometry relative="1" as="geometry">
            <Array as="points">
              <mxPoint x="1020" y="720" />
              <mxPoint x="1020" y="840" />
            </Array>
          </mxGeometry>
        </mxCell>
        <mxCell id="HEUI8vA9hFR7EpyzuyXa-34" style="edgeStyle=orthogonalEdgeStyle;rounded=0;orthogonalLoop=1;jettySize=auto;html=1;exitX=1;exitY=0.5;exitDx=0;exitDy=0;entryX=0;entryY=0.75;entryDx=0;entryDy=0;entryPerimeter=0;" parent="1" source="HEUI8vA9hFR7EpyzuyXa-32" target="HEUI8vA9hFR7EpyzuyXa-17" edge="1">
          <mxGeometry relative="1" as="geometry">
            <Array as="points">
              <mxPoint x="760" y="860" />
            </Array>
          </mxGeometry>
        </mxCell>
        <mxCell id="HEUI8vA9hFR7EpyzuyXa-36" value="" style="sketch=0;outlineConnect=0;fontColor=#232F3E;gradientColor=none;fillColor=#232F3D;strokeColor=none;dashed=0;verticalLabelPosition=bottom;verticalAlign=top;align=center;html=1;fontSize=12;fontStyle=0;aspect=fixed;pointerEvents=1;shape=mxgraph.aws4.authenticated_user;" parent="1" vertex="1">
          <mxGeometry x="610" y="880" width="30" height="30" as="geometry" />
        </mxCell>
        <mxCell id="HEUI8vA9hFR7EpyzuyXa-37" value="" style="sketch=0;outlineConnect=0;fontColor=#232F3E;gradientColor=none;fillColor=light-dark(#FFFFFF, #8a5c0a);strokeColor=none;dashed=0;verticalLabelPosition=bottom;verticalAlign=top;align=center;html=1;fontSize=12;fontStyle=0;aspect=fixed;pointerEvents=1;shape=mxgraph.aws4.addon;" parent="1" vertex="1">
          <mxGeometry x="404" y="777" width="25.36" height="13" as="geometry" />
        </mxCell>
        <mxCell id="HEUI8vA9hFR7EpyzuyXa-53" style="edgeStyle=orthogonalEdgeStyle;rounded=0;orthogonalLoop=1;jettySize=auto;html=1;entryX=0;entryY=0.25;entryDx=0;entryDy=0;fillColor=#1ba1e2;strokeColor=#006EAF;" parent="1" source="HEUI8vA9hFR7EpyzuyXa-42" target="HEUI8vA9hFR7EpyzuyXa-25" edge="1">
          <mxGeometry relative="1" as="geometry" />
        </mxCell>
        <mxCell id="HEUI8vA9hFR7EpyzuyXa-42" value="/train_data" style="text;html=1;whiteSpace=wrap;strokeColor=none;fillColor=none;align=center;verticalAlign=middle;rounded=0;" parent="1" vertex="1">
          <mxGeometry x="710" y="660" width="60" height="30" as="geometry" />
        </mxCell>
        <mxCell id="HEUI8vA9hFR7EpyzuyXa-43" value="" style="sketch=0;outlineConnect=0;fillColor=#0050ef;strokeColor=#001DBC;dashed=0;verticalLabelPosition=bottom;verticalAlign=top;align=center;html=1;fontSize=12;fontStyle=0;aspect=fixed;pointerEvents=1;shape=mxgraph.aws4.endpoint;fontColor=#ffffff;" parent="1" vertex="1">
          <mxGeometry x="690" y="666" width="18" height="18" as="geometry" />
        </mxCell>
        <mxCell id="HEUI8vA9hFR7EpyzuyXa-46" style="edgeStyle=orthogonalEdgeStyle;rounded=0;orthogonalLoop=1;jettySize=auto;html=1;" parent="1" source="HEUI8vA9hFR7EpyzuyXa-44" target="HEUI8vA9hFR7EpyzuyXa-15" edge="1">
          <mxGeometry relative="1" as="geometry" />
        </mxCell>
        <mxCell id="HEUI8vA9hFR7EpyzuyXa-44" value="/play" style="text;html=1;whiteSpace=wrap;strokeColor=none;fillColor=none;align=center;verticalAlign=middle;rounded=0;" parent="1" vertex="1">
          <mxGeometry x="700" y="615" width="60" height="30" as="geometry" />
        </mxCell>
        <mxCell id="HEUI8vA9hFR7EpyzuyXa-45" value="" style="sketch=0;outlineConnect=0;fillColor=light-dark(#0050ef, #bec8d4);strokeColor=#001DBC;dashed=0;verticalLabelPosition=bottom;verticalAlign=top;align=center;html=1;fontSize=12;fontStyle=0;aspect=fixed;pointerEvents=1;shape=mxgraph.aws4.endpoint;fontColor=#ffffff;" parent="1" vertex="1">
          <mxGeometry x="690" y="621" width="18" height="18" as="geometry" />
        </mxCell>
        <mxCell id="HEUI8vA9hFR7EpyzuyXa-48" style="edgeStyle=orthogonalEdgeStyle;rounded=0;orthogonalLoop=1;jettySize=auto;html=1;entryX=0.513;entryY=1.072;entryDx=0;entryDy=0;entryPerimeter=0;" parent="1" source="HEUI8vA9hFR7EpyzuyXa-23" target="HEUI8vA9hFR7EpyzuyXa-8" edge="1">
          <mxGeometry relative="1" as="geometry" />
        </mxCell>
        <mxCell id="HEUI8vA9hFR7EpyzuyXa-50" value="" style="sketch=0;outlineConnect=0;fontColor=#ffffff;fillColor=#0050ef;strokeColor=#001DBC;dashed=0;verticalLabelPosition=bottom;verticalAlign=top;align=center;html=1;fontSize=12;fontStyle=0;aspect=fixed;pointerEvents=1;shape=mxgraph.aws4.json_script;strokeWidth=5;" parent="1" vertex="1">
          <mxGeometry x="404" y="592" width="20.46" height="28" as="geometry" />
        </mxCell>
        <mxCell id="HEUI8vA9hFR7EpyzuyXa-51" style="edgeStyle=orthogonalEdgeStyle;rounded=0;orthogonalLoop=1;jettySize=auto;html=1;entryX=0;entryY=0.346;entryDx=0;entryDy=0;entryPerimeter=0;" parent="1" source="HEUI8vA9hFR7EpyzuyXa-2" target="HEUI8vA9hFR7EpyzuyXa-12" edge="1">
          <mxGeometry relative="1" as="geometry">
            <Array as="points">
              <mxPoint x="590" y="492" />
              <mxPoint x="590" y="620" />
            </Array>
          </mxGeometry>
        </mxCell>
        <mxCell id="HEUI8vA9hFR7EpyzuyXa-52" value="" style="sketch=0;points=[[0,0,0],[0.25,0,0],[0.5,0,0],[0.75,0,0],[1,0,0],[0,1,0],[0.25,1,0],[0.5,1,0],[0.75,1,0],[1,1,0],[0,0.25,0],[0,0.5,0],[0,0.75,0],[1,0.25,0],[1,0.5,0],[1,0.75,0]];outlineConnect=0;fontColor=#ffffff;fillColor=none;strokeColor=light-dark(#3700CC, #bec8d4);dashed=0;verticalLabelPosition=bottom;verticalAlign=top;align=center;html=1;fontSize=12;fontStyle=0;aspect=fixed;shape=mxgraph.aws4.resourceIcon;resIcon=mxgraph.aws4.games;" parent="1" vertex="1">
          <mxGeometry x="410" y="454" width="30" height="30" as="geometry" />
        </mxCell>
        <mxCell id="HEUI8vA9hFR7EpyzuyXa-58" value="/play/?g=rock-paper-siccors" style="text;html=1;whiteSpace=wrap;strokeColor=none;fillColor=none;align=center;verticalAlign=middle;rounded=0;" parent="1" vertex="1">
          <mxGeometry x="440" y="454" width="150" height="30" as="geometry" />
        </mxCell>
        <mxCell id="HEUI8vA9hFR7EpyzuyXa-59" value="/save/train_data" style="text;html=1;whiteSpace=wrap;strokeColor=none;fillColor=none;align=center;verticalAlign=middle;rounded=0;" parent="1" vertex="1">
          <mxGeometry x="425" y="592" width="95" height="30" as="geometry" />
        </mxCell>
        <mxCell id="HEUI8vA9hFR7EpyzuyXa-60" value="/login" style="text;html=1;whiteSpace=wrap;strokeColor=none;fillColor=none;align=center;verticalAlign=middle;rounded=0;" parent="1" vertex="1">
          <mxGeometry x="440" y="768.5" width="40" height="30" as="geometry" />
        </mxCell>
        <mxCell id="HEUI8vA9hFR7EpyzuyXa-61" value="User Authenticated" style="text;html=1;whiteSpace=wrap;strokeColor=none;fillColor=none;align=center;verticalAlign=middle;rounded=0;" parent="1" vertex="1">
          <mxGeometry x="650.5" y="880" width="100" height="30" as="geometry" />
        </mxCell>
        <mxCell id="HEUI8vA9hFR7EpyzuyXa-62" value="" style="sketch=0;outlineConnect=0;fontColor=#ffffff;fillColor=#0050ef;strokeColor=#001DBC;dashed=0;verticalLabelPosition=bottom;verticalAlign=top;align=center;html=1;fontSize=12;fontStyle=0;aspect=fixed;pointerEvents=1;shape=mxgraph.aws4.json_script;strokeWidth=5;" parent="1" vertex="1">
          <mxGeometry x="1310" y="725" width="20.46" height="28" as="geometry" />
        </mxCell>
        <mxCell id="HEUI8vA9hFR7EpyzuyXa-63" style="edgeStyle=orthogonalEdgeStyle;rounded=0;orthogonalLoop=1;jettySize=auto;html=1;" parent="1" source="HEUI8vA9hFR7EpyzuyXa-25" target="HEUI8vA9hFR7EpyzuyXa-18" edge="1">
          <mxGeometry relative="1" as="geometry" />
        </mxCell>
        <mxCell id="HEUI8vA9hFR7EpyzuyXa-64" value="/save/train_data" style="text;html=1;whiteSpace=wrap;strokeColor=none;fillColor=none;align=center;verticalAlign=middle;rounded=0;" parent="1" vertex="1">
          <mxGeometry x="1330.46" y="725" width="95" height="30" as="geometry" />
        </mxCell>
        <mxCell id="HEUI8vA9hFR7EpyzuyXa-77" value="" style="group;fillColor=none;fontColor=#ffffff;strokeColor=#001DBC;" parent="1" vertex="1" connectable="0">
          <mxGeometry x="1450" y="680" width="500" height="194.75" as="geometry" />
        </mxCell>
        <mxCell id="HEUI8vA9hFR7EpyzuyXa-27" value="" style="group" parent="HEUI8vA9hFR7EpyzuyXa-77" vertex="1" connectable="0">
          <mxGeometry width="124" height="120" as="geometry" />
        </mxCell>
        <mxCell id="HEUI8vA9hFR7EpyzuyXa-24" value="&lt;h1 style=&quot;margin-top: 0px;&quot;&gt;&lt;span style=&quot;font-size: 15px;&quot;&gt;Gesture Trainer&lt;/span&gt;&lt;/h1&gt;" style="text;html=1;whiteSpace=wrap;overflow=hidden;rounded=0;container=0;" parent="HEUI8vA9hFR7EpyzuyXa-27" vertex="1">
          <mxGeometry y="80" width="124" height="40" as="geometry" />
        </mxCell>
        <mxCell id="HEUI8vA9hFR7EpyzuyXa-18" value="" style="sketch=0;outlineConnect=0;fillColor=#0050ef;strokeColor=#001DBC;dashed=0;verticalLabelPosition=bottom;verticalAlign=top;align=center;html=1;fontSize=12;fontStyle=0;aspect=fixed;pointerEvents=1;shape=mxgraph.aws4.servers;container=0;fontColor=#ffffff;" parent="HEUI8vA9hFR7EpyzuyXa-27" vertex="1">
          <mxGeometry x="4" width="78" height="78" as="geometry" />
        </mxCell>
        <mxCell id="HEUI8vA9hFR7EpyzuyXa-19" value="" style="shape=image;verticalLabelPosition=bottom;labelBackgroundColor=default;verticalAlign=top;aspect=fixed;imageAspect=0;image=data:image/png,iVBORw0KGgoAAAANSUhEUgAAAyEAAAMoCAYAAADY4e87AAAACXBIWXMAACE3AAAhNwEzWJ96AAAgAElEQVR4nO3daXpU173v8bXv4/fWDCyPIPIILEZwyASMsE3vRhjHBoNBMp0xOIEk9G5QzgCOGMGFEVwxgiNmACNY96m1N7gRCDVV/9rN5/OS0qNAlUL4ptZvVZVzTgAAAFH+j2caAACIJEIAAIBQIgQAAAglQgAAgFAiBAAACCVCAACAUCIEAAAIJUIAAIBQIgQAAAglQgAAgFAiBAAACCVCAACAUCIEAAAIJUIAAIBQIgQAAAglQgAAgFAiBAAACCVCAACAUCIEAAAIJUIAAIBQIgQAAAglQgAAgFAiBAAACCVCAACAUCIEAAAIJUIAAIBQIgQAAAglQgAAgFAiBAAACCVCAACAUCIEAAAIJUIAAIBQIgQAAAglQgAAgFAiBAAACCVCAACAUCIEAAAIJUIAAIBQIgQAAAglQgAAgFAiBAAACCVCAACAUCIEAAAIJUIAAIBQIgQAAAglQgAAgFAiBAAACCVCAACAUCIEAAAIJUIAAIBQIgQAAAglQgAAgFAiBAAACCVCAACAUCIEAAAIJUIAAIBQIgQAAAglQgAAgFAiBAAACCVCAACAUCIEAAAIJUIAAIBQIgQAAAglQgAAgFAiBAAACCVCAACAUCIEAAAIJUIAAIBQIgQAAAglQgAAgFAiBAAACCVCAACAUCIEAAAIJUIAAIBQIgQAAAglQgAAgFAiBAAACCVCAACAUCIEAAAIJUIAAIBQIgQAAAglQgAAgFAiBAAACCVCAACAUCIEAAAIJUIAAIBQIgQAAAglQgAAgFAiBAAACCVCAACAUCIEAAAIJUIAAIBQIgQAAAglQgAAgFAiBAAACCVCAACAUCIEAAAIJUIAAIBQIgQAAAglQgAAgFAiBAAACCVCAACAUCIEAAAIJUIAAIBQIgQAAAglQgAAgFAiBAAACCVCAACAUCIEAAAIJUIAAIBQIgQAAAglQgAAgFAiBAAACCVCAACAUCIEAAAIJUIAAIBQIgQAAAglQgAAgFAiBAAACCVCAACAUCIEAAAIJUIAAIBQIgQAAAglQgAAgFAiBAAACCVCAACAUCIEAAAIJUIAAIBQIgQAAAglQgAAgFAiBAAACCVCAACAUCIEAAAIJUIAAIBQIgQAAAglQgAAgFAiBAAACCVCAACAUCIEAAAIJUIAAIBQIgQAAAglQgAAgFAiBAAACCVCAACAUCIEAAAIJUIAAIBQIgQAAAglQgAAgFAiBAAACCVCAACAUCIEAAAIJUIAAIBQIgQAAAglQgAAgFAiBAAACCVCAACAUCIEAAAIJUIAAIBQIgQAAAglQgAAgFAiBAAACCVCAACAUCIEAAAIJUIAAIBQIgQAAAglQgAAgFAiBAAACCVCAACAUCIEAAAIJUIAAIBQIgQAAAglQgAAgFAiBAAACCVCAACAUCIEAAAIJUIAAIBQIgSAjX6o5jb82k5crWY9uwD8mQgB4DdXqtl0pXqQUvp/Y3pW/jddrR6ka9XMhkcAGCwRAsAoPmbSlWoppbSWUto35mdk9P3W07Xy/QFAhAAM3pVqoYmPcymltyf0dLxdvv+1ahQjezc8CsCgvOXlBhioK9V8Smn07sT7gU/AOyml/0nXqscppcX0ZV7b8BUA9J4IARiaK2UsvjSBY1fb8X7ZnVyrVlKVFtOJ/MzPIcBwOI4FMBTfVzPp+4ntPnaq3ov8aC8CMCQiBGAIvg/ZfexUvRf5sRrFiL0IwAA4jgXQZ99PZfexU/Ve5MdmL3LCXgSgr0QIQB9934rdx07Ve5Efq5UmRuxFAHrGcSyAPrncyt3HTtV7kb/biwD0jQgB6IvLrd597FS9F/l7NYoRexGAnnAcC6DrLndq97FT9V7k781e5At7EYAuEyEAXXW507uPnar3In9v9iJf2IsAdJHjWABdM9p9XO7N7mOn7EUAOkyEAHRJP3cfO/XbXuQf9iIAXeI4FkAXXGp2H1Wvdx87Ve9F/tHsRY7biwC0nQgBaLNLg9x97FS9F/lHsxc5bi8C0FaOYwG00aVqJl0a/O5jp+q9yD/sRQDaSoQAtM0lu48xqPci/7AXAWgjx7EA2uKi3ccE1HuR681eZNFeBKANRAjAtF20+whQ70WuN3uRRXsRgGlyHAtgWi5WM+mi3Uewei9y3V4EYJpECMA0XLT7mKJ6L3K9GsWIvQjAFDiOBRDpxe4j2X20gL0IwJSIEIAIF6rZVNl9tFS9F7nR7EU+txcBmDTHsQAm6UI1ky7YfXREvRe5YS8CMGkiBGBSLth9dFC9F7lRjWLEXgRgQhzHAhi3C3YfPVDvRW40e5HP7UUAxkmEAIzLebuPHqr3Iv9s9iKf2YsAjIPjWAC7db6aSeftPnqu3ov8014EYBxECMBunLf7GJB6L/LPahQj9iIAu+A4FsBOnLf7GLB6L/LPZi/ymb0IwHaJEIDtGO0+kt0Hhb0IwA45jgWwFXYfvJ69CMA2iRCAN/nO7oM3qvci/6rW07/sRQDexHEsgNf5zu6Dbav3Iv9q9iKf2osAvIoIAfiz7+w+2LV6L/KvZi/yqb0IwO85jgXwwnfVTPrO7oOxqvci/7IXAfg9EQIwsmz3wcTUe5F/V+vp3/YiAMlxLGDwlu0+CFPvRf7d7EU+sRcBhkuEAMO0bPfB1NR7kX83e5FP7EWA4XEcCxiW5WomLdt90Ar1XuTf9iLA8IgQYDjsPmgfexFgkBzHAvpvqZpPld0HrfbbXqRKi+mYvQjQbyIE6K8luw86p96L3Gz2IsfsRYB+chwL6J+laiYt2X3QafVe5Ka9CNBPIgTolyW7D3qj3ovcrEYxYi8C9IrjWEA/LPm8D3qr3ovcbPYiR+1FgO4TIUC3nWt2H5VjV/RevRe51exFjtqLAN3lOBbQTeeqmXTO7oNBqvcit+xFgO4SIUD3nLP7YPDqvcitahQj9iJA5ziOBXTHObsP+JN6L3Kretwc0bIXATpBhADtd87nfcAb/LYXGY3Xj9iLAO3mOBbQXmermXTW7gO2od6L3LYXAdpNhADtdNbuA3ao3ovcrkYxYi8CtJLjWEC7nLX7gDGp9yK3m73IEXsRoD1ECNAOZ+0+YELqvcjt5vNF7EWAFnAcC5iub+0+IEi9F7ljLwJMnwgBpudbuw8IVu9F7lSjGLEXAabGcSwg3rd2HzBl9V7kTrMXOWwvAsQSIUCcb+0+oGXqvcidZi9y2F4EiOE4FjB5o93Ht3Yf0GL2IkAoEQJMlt0HdMVve5G79iLAZDmOBUzGmWb3Udl9QMfUe5G7zV7kkL0IMH4iBBivM3Yf0BP1XuRusxc5ZC8CjI/jWMB4nKlm0hm7D+ihei9y114EGB8RAuzeGbsP6Ll6L3K3Wk/37EWA3XMcC9i503YfMDD1XuResxc5aC8C7IwIAbbvtN0HDFy9F7nX7EUO2osA2+M4FrB1p6uZdNruA3ip3ovcsxcBtkeEAFtz2u4DeKV6L3LPXgTYOsexgM292H0kuw9gU/YiwJaJEODVvqlmU2X3AWxbvRe53+xFDtiLABs5jgX80TfVTPrG7gPYtXovct9eBNhIhAC/+cbuAxirei9yvxrFiL0I8JLjWMAoPuw+gEmq9yL3m73IAXsRGDoRAkN2quw+rqeU/svPARCg3ov81OxFPrYXgaFyHAuG6FQ1k06Vc9r/K0CAKaj3Ij/Zi8BQiRAYmlNl97He7D4ApqXei/xUjWLEXgQGxnEsGIpTZfcxOnr1F6850CL1XuSnZi/ysb0IDIEIgb4b7T6S3QfQevYiMCCOY0Ffnaxm0km7D6Bz7EVgAEQI9NFJuw+g0+q9yM/VevrZXgT6yHEs6JOTdh9Ar9R7kZ+bvchH9iLQFyIE+uCk3QfQa/Ve5OdmL/KRvQh0neNY0GV2H8Cw1HuRn+1FoOtECHTV13YfwCDVe5FfqvX0i70IdJXjWNA1X9t9ALzci/zS7EU+tBeBLhEh0BVf230AvEK9F/ml2Yt8aC8CXeA4FrTd19VM+truA+AN6r3IL/Yi0AUiBNrsK7sPgG2wF4GOcBwL2ugruw+AXaj3Ir82e5H99iLQNiIE2uQruw+AMar3Ir82e5H99iLQFo5jQRt8Vc2kr+w+ACak3ov8ai8CbSFCYNrsPgAi1HuRX6tRjNiLwJQ5jgXTYvcBMA2/7UWqtJgW7EVgGkQIRPtbs/uoHLsCmKJ6L/Kg2Yss2ItAJMexIMrfqpn0N7sPgJap9yIP7EUgkgiBCH+z+wBosXov8qAaxYi9CARwHAsm6W92HwAdUu9FHjR7kX32IjApIgQm4Uu7D4AOq/ciK81eZJ+9CIyb41gwTl9WM+lLuw+Anqj3Iiv2IjBuIgTG5Uu7D4AeqvciK9UoRuxFYEwcx4Ld+tLuA2AA6r3ISvW4OaJlLwK7IEJgp17sPhy7AhgSexEYA8exYLtOVDPphN0HwMDVe5H/2IvATogQ2I4Tdh8AvFTvRf5TjWLEXgS2wXEs2IoTdh8AvFa9F/lPsxf5wF4E3kSEwGZO2H0AsGX1XuQ/zV7kA3sReB3HseBVvrD7AGDH6r3If9uLwOuIEHi1VbsPAHah3ov8d7XqSYSNRAgAwOTMeG5hIxECAACEEiEAAEAoEQIAAIQSIQAAQCgRAgAAhBIhAABAKBECAACEEiEAAEAoEQIAAIQSIQAAQCgRAgAAhBIhAABAKBECAACEEiEAAEAoEQIAAIQSIQAAQCgRAgAAhBIhAABAKBECAACEEiEAAEAoEQIAAIQSIQAAQCgRAgAAhBIhAABAKBECAACEEiEAAEAoEQIAAIQSIQAAQCgRAgAAhBIhAABAKBECAACEEiFA3z1PKT3xKtMhfl6B3hMhQJ+tpJTmUkqrXmU6ZPTz+m5K6bEXDegrEQL00ej/Sd6TlvJCWsrrXmE651heT8fyfPk5TumpFxDom7e8okCPjI5eLaal/MCLSi8cy49SSrPpZrWYUlpKKb3thQX6wDshQF8sl3+sCRD66Fi+Xn6+U7rh9QX6wDshQNeNzs07dkX/HcvPyjt9t6pRaI+i5H2vOtBVIgToqqclPpbLcRUYjqN5LaU0n25Ve5sYecerD3SN41hA14x2H8fTcp4VIAza0byajubZ5iji86E/HUC3iBCgS26Uc/HL5Xw8kEqMLDVXUa94PoCuECHwarOv/FWmZbT7eC8t58W0XM7FA793NK+no3mhudLX54sArWcTAq/mjHU7PC1D3OXswwZhK46WI4rz6Xa10Fzp6+8yoJW8EwK00fNyzv27PJu+EyCwbUfKVdVzzV4EoHVECNA2K+UfT9+Vc+7ATh3Jz9KR8t+jd1NKDz2PQJs4jgW0xeNyfOQ7N17BWB0pn6GzN92u5psrff/iCQamTYQA0/a0iQ+fdA6TdKQE/ly6Uy02e5G3Pd/AtDiOBUzTcnP0SoBAlMPliuvZ5sprgKkQIcA0PCzn1M/npXTelbsQ7nB+lg7nxWYv4kpfIJzjWECkJ+XK3fN2H9AKh8teZD7dKXuRB670BaJ4JwSIMLpy93g6n+cECLTQ4fwoHc6zzRHJ514iYNJECDBpN8r58/PlHDrQZofLlb6zzVXZABMjQoBJedzsPhbtPqBDRnuRQ3n0ievv2YsAkyJCgHEbXbm7J13I8+lCOW8OdNGhvJYO5dFWZH/z32uAsREhwLg8L+fJL+TZdMHuA3rjULlCe85eBBgnEQKMw0o5R36hnCcH+uZQOaK11MSIvQiwayIE2I3H5dz4hbyQLth9QO8dyuvpYNmL7Gmu3AbYEREC7MTTck78Yp5PF/OaZxAG5mB+lA7muWYv4ogWsG0iBNiO58258Ll0sZwTB4bsYPl74MXniwBsmQgBtmqliY+ldNHRK6BxMD9LB8te5F1X+gJb9ZZnCniD0bnvxXTRjVfAJg6WK7nn071qdK3v6B2Sd17/xcDQeScEeJ3nze5jToAAW1bvRUZHtI7biwCvI0KAV1ku57ztPoCdOpCvN3sRV/oCG4gQ4Pcel3Pdl/JSumT3AezSgfwsHShX+r5nLwL8nk0IkJordxfSJceugAk4UK7ynk/3q70ppev2IoB3QmDYnpdz25fyrAABJu5AXk0H8osrfe1FYMBECAzXjXJe+1I5tw0Q5+Nype+cvQgMlwiB4Xlczmdfzovpst0HMCUf5/X0cdmL7LEXgeGxCYHheFo+7+NyXvWaA63xcTkKOp9+qhaavcjbXhzoP++EQP89L+evL+dZAQK01sflSvAXexGg50QI9NtKOXd9uZy/Bmi3j/OzZi/ybkrpoVcL+stxLOin0fnqpfS9G6+ADhrtRVLam36u5psjWn/xMkK/eCcE+mW0+9ifvs/zAgTovI/yo/RRnitXibvSF3pFhEB/LJejV9+Xc9UA/fFRuUp8trlavGvm/CTCRiIEuu9hOT/9fR4dv3LlLtBPH+Vn6aO82OxFunSlr9u+4BVsQqC7npQrdx27Aobko7IXmU+/VHubvcg7Xn/oHu+EQPc8L+ejr+Q5AQIM1od5NX2YX1zpay8CHSNCoFtulHPRV8r5aAA+LFf6zjZXkgMdIUKgGx6Xc9BX8mK6YvcB8Acf5mfpwzz6xPX3OrYXgcESIdBuoyt396QreT5dKeegAXidD/Na+jDPl6vK678/gZYSIdBOz8s55x/y6OiV3QfAdnxYriqfsxeB9hIh0D4r5XzzD+WcMwA7MTqitb/8PTrXXGUOtIgreqE9Hpcrd3/Ia14TGLSZoT8BY7W/HGXdm36t5psrff/Soz8ddJZ3QmD6npbzyz/keQECpJQ+Tzer1XSzmvVkjNH+/Cjtz3PNXsQRLZgyEQLT87w5rzyXfijnlwFe+K+U0v+mm9VSull5Z2Sc9pe/b198vggwJSIEpmOliY+l9IMrd4HXOpdSWk83q4XXfQE7sP/lXuRdV/rCdIgQiPWkXLl7NS+kH1y5C2zJ2ymlX9PNai3dKrsGxmUhr6eFcqXvHlf6QiwRAjGel3PIV/NcuurKXWBHRoPq/5tuVavplr3IWC3kR2khj57T4/YiEEOEwOQtl/PHV+0+gLGo9yK3qqV0y15krBby9WYvstKjPxW0kgiByXlczhtfzUvpqt0HMHb1XuSWvchYLeRnaSGPntP37EVgckQIjN/Tcr74Wp5PV+0+gImq9yK37EXGbl9eS/vKXuSv9iIwfiIExud5OU98Lc+ma3YfQKjf9iK37UXGal9eTfvyiyt97UVgTEQIjMeNco74WjlPDDAt9V7kdrWUbtuLjNW+cqXvnL0IjIcIgd15XM4NX8uL6ZrdB9Aa9V7ktr3IWO3L62lf2YvssReB3REhsDNPyznh0e7jWl7zHAItVO9Fbldr6ba9yFjty4+avch+R7RgZ0QIbM/zci74x7L7WPXcAR1Q70Vu24uM3b5y9fqLvQiwDSIEtm6lnAf+sZwLBuiaei9yp1pKd+xFxuaD/Cx9UP534d2U0sOe/Klg4kQIvNnjcv73x7yQfnTlLtB59V7kjr3IWH2Q19MHeW+zF3nSoz8ZTIQIgdd7Ws77/pjn04+u3AV6pd6L3KnW0h17kbH6ID9KH+S5cmW7vQi8lgiBV1tujl49eOWjAP1Q70XuVKvpjr3IWH1Qrmyfba5wB/6kyjlv+EWAXlmqllJVjqBsrtrk0c0e2+rXbfbYOL/Hm75mq9/jq7zV3/HrXa3yG/8zN3tsO7/fzez2e2z2WNu+x+6ei9H/AXM9HXblODBZ3gkBAF6o9yJ37UWAyRIhAMDv1XuRu9VaumsvAkyGCAEAXqXei9ytVtNdexFgvEQIALCZ+vNF7lZL6a7PFwHGQ4QAAFtR70Xu2YsAuydCAICtqvci96q1dM9eBNg5EQIAbFe9F7lXraZ79iLA9okQAGCn6r3IvWop3bMXAbZOhAAAu2UvAmyLCAEAxsFeBNgyEQIAjFO9F7lfrab79iLAq4kQAGAS6r3I/Wop3bcXAf5IhAAAk1TvRe7biwC/ESEAwKTVe5H71Vq6by8CiBAAIE69F/mpWk0/2YvAkIkQACDaaC/ieBYMmAgBAABCiRAAACCUCAEAAEKJEAAAIJQIAQAAQokQAAAglAgBAABCiRAAACCUCAEAAEKJEAAAIJQIAQAAQokQAAAglAgBAABCiRAAACCUCAEAAEKJEABgGuY96zBcIgQAAAglQgAAgFAiBAAACCVCAACAUCIEAAAIJUIAAIBQIgQAAAglQgAAgFAiBAAACCVCAACAUCIEAAAIJUIAAIBQIgQAAAglQgAAgFAiBAAACCVCAACAUCIEAAAIJUIAAIBQIgQAAAglQgAAgFAiBAAACCVCAACAUCIEAAAIJUIAAIBQIgQAAAglQgAAgFAiBAAACCVCAACAUCIEAAAIJUIAAIBQIgQAAAglQgAAgFAiBAAACCVCAACAUCIEAAAIJUIAAIBQIgQA2uW51wPoOxECAO1yPaW0J6X01OsC9JUIAYC2OZYfpWN5NqV03DsjQB+JEABoq2N59K7IKEZWvEZAn4gQAGizY/lZOpYXUkrvpZQee62APhAhANAFx/JaOprnU0p/tRcBuk6EAECXHM2rKaW5lNKyvQjQVSIEALrmaH6WjualJkbsRYDOESEA0FVH83o6WvYioyt9n3gdga4QIQDQdUfzo3Q0j94V2e+IFtAFIgQA+uJoftBc6bvsNQXaTIQAQJ8cyc/SkbIXedeVvkBbiRAA6KMjeT0dKVf67nGlL9A2IgQA+uxIfpSO5NERreP2IkBbiBAAGIIj+XqzF3GlLzB1IgQAhmK0FzlcrvR9z14EmCYRAgBDczivpcNlL/JXexFgGkQIAAzV4bzafOr6sr0IEEmEAMCQHS5HtJaaGLEXAUKIEABgFCPrzV5kdKXvE88IMEkiBAD4zeH8KB3Ko3dF9juiBUyKCAEANjqUHzRX+i5veAxgl0QIAPBqh/KzdKjsRd51pS8wTiIEANjcobyeDpUrffe40hcYBxECAGzNofwoHcyjI1rH7UWA3RAhAMD2HMzXm73IDc8csBMiBADYvoP5WTqYF1NK79mLANslQgCAnTuY19LBshf5q70IsFUiBADYvYN5tdmLLNuLAG8iQgCA8TlYrvQdfdjhyhu+58yGXwEGQ4QAAON1MK+nA3mhudL3dXuRv2z4FWAwRAgAMBkH8qN0oOxF9juiBfyeCAEAJutAftBc6bvsmQaSCAEAQhzIz9KBshd5N6X00JMOw/bW0J8AACDQgbyeUtqbfqrmPO0wXN4JAQDifZzXPOswXCIEAAAIJUIAAIBQIgQAAAglQgAAgFAiBAAACCVCAACAUCIEAAAIJUIAAIBQIgQAAAglQgAAgFAiBAAACCVCAACAUCIEAAAIJUIAAIBQIgQAAAglQgAAgFAiBAAACCVCAACAUCIEAAAIJUIAAIBQIgQAAAglQgAAgFAiBAAACCVCAACAUCIEAAAIJUIAAIBQIgQAAAglQgAAgFAiBAAACCVCAACAUCIEAAAIJUIAAIBQIgQAAAglQgAAgFAiBAAACCVCAACAUCIEAAAIJUIAAIBQIgQAAAglQgAAgFAiBAAACCVCAACAUCIEAAAIJUIAAIBQIgQAAAglQgAAgFAiBAAACCVCAACAUCIEAAAIJUIAAIBQIgQAAAglQgAAgFAiBAAACCVCAACAUCIEAAAIJUIAAIBQIgQAAAglQgAAgFAiBAAACCVCAACAUCIEAAAIJUIAAIBQIgQAAAglQgAAgFAiBAAACCVCAACAUCIEAAAIJUIAAIBQIgQAAAglQgAAgFAiBAAACCVCAACAUCIEAAAIJUIAAIBQIgQAAAglQgAAgFAiBAAACCVCAACAUCIEAAAIJUIAAIBQIgQAAAglQgAAgFAiBAAACCVCAACAUCIEAAAIJUIAAIBQIgQAAAglQgAAgFAiBAAACCVCAACAUCIEAAAIJUIAAIBQIgQYggcppYdeaTpgJaV03QsF9J0IAfpvKa+nc3lvSmlPSumJV5wWepxSei99khfSsfzMCwT0nQgBhuNcfpTO5bmU0v6U0nOvPC3wtPw8fpLn0yd5zQsCDIUIAYbnXB4dz5pNKd3w6jNFyymlufRJ+XkEGJQq5+wVB4ZruZptNiPvp2qTZ2Gzx7b6dZs9Ns7v8aav2er3+Cpv9Xf8eler/Mb/zM0e287vdzO7/R6bPbb97zHaJy2mT/L6hq8BGAjvhADDdq7sReZTSn9tjsbApDwpu6RP8l4BAgydCAFIJUZW09k82xyRsRdhnEY/T8fTJ3l09OqRZxZAhAD80dm8VM7p11elwm7dKPujT7NrdwF+R4QA/NnZvJ7O5oXmSt/HGx6HN6uv3P00L6ZPXbkL8GciBOB1zuZH6WzZi7jSl616WvZFn+b59KkrdwFeR4QAvMnZl1f6Lr/hKxmu5y+v3P00r/o5ANicK3oBtuP87670fRVX9P7RMK7oHe2HltJnbrwC2Kq3PFMA2/Bt+YfmfDpfzTcx8o6nb7CelM/7+MyNVwDb5TgWwE58mx+lb8uVvsftRQbnedkJfZbnBAjAzogQgN34tly9OutK38Gor9z9rOyEANghmxCAcTlfzaUqXd/RXmSrX7fZY1v9GpuQV9vsa6py5e6C3QfAeHgnBGBcvs1r6czLK32fel574Wn5vJjP8rwAARgfEQIwbmfKUZ255spWe5Fuqq/c/TzPps/tPgDGTYQATMKZ/CydyUtNjDz0HHfKStl9fF5ePwAmQIQATNKZvJ7O5L3lSE99pSvt9bi8Tp/nhfR5fuZ1ApgcEQIQ4Ux+lE7nOVf6ttLTsuP5PM87egUQQ4QARDr98krfG573VlguR+YWXbkLEMkVvQDTcrGabT51/Y9X+m5+VeybuaJ3o42PPyyfdr7oxiuAaXjLsw4wJafLP4Dn08VqtBkZvUPyjpdi4p6Wz/tYdOwKYJocxwKYttN5NZ3Os670najnZY+zmGNH2bgAAAX2SURBVGcFCMD0iRCAtjj98krfFa/JWN0oO5zFsscBoAVsQgDa6FI1+uT1pW3tRbb6NcPZhDwuu4/jeW3DIwBMlQgBaLNL1UKzF3m7/C5f/Y/tPxIhT5v4WN3wdQC0guNYAG32Tbk69sVehM09f3nlrgABaDXvhAB0xaVqNlWvuNL3z4b5TshKOb523JW7AF3gil6ArvimudL3ctmLPHClb/GkOXrlxiuADnEcC6BrTuVH6VS50vf4gK/0Hf2596cv8lz6QoAAdI0IAeiqU+XK2dkBXulbX7n7RdnLANBBNiEAfXC5mmtu0Xq/x5uQx+XTzr+w+wDoOu+EAPTBqbyWTuX5ckSpvqK2T0Z/nj3pizwvQAD6QYQA9MmpckRprrmqtut7kfrK3S/yrN0HQL+IEIC+OZmfpZN5qYmRhx39062U3ceJ8ucAoGdECEBfnczr6WTeW44y1VfZdsHj8vs9kRfSifzMzyZAP4kQgL47mR+lk3mu5Vf6Pi17lhN5Pp1w9Aqg70QIwFCcfHml742W/YmXy9GxE67cBRgKV/QCDNGVarb51PX3X/mnj7mi92H5tPMv3XgFMDRvecUBBujr8g//+XSl2tt8vsg7gU/C0/J5H186dgUwVI5jAQzZ13k1fZ1ng670fV52KV/mWQECMGwiBIBRjLy40ndlQs/GjbJH+bLsUgAYOMexAKjVR7QW0pVqtBUZ1+dzPG52H2sbHgFgsAzTAQCAUI5jAQAAoUQIAAAQSoQAAAChRAgAABBKhAAAAKFECAAAEEqEAAAAoUQIAAAQSoQAAAChRAgAABBKhAAAAKFECAAAEEqEAAAAoUQIAAAQSoQAAAChRAgAABBKhAAAAKFECAAAEEqEAAAAoUQIAAAQSoQAAAChRAgAABBKhAAAAKFECAAAEEqEAAAAoUQIAAAQSoQAAAChRAgAABBKhAAAAKFECAAAEEqEAAAAoUQIAAAQSoQAAAChRAgAABBKhAAAAKFECAAAEEqEAAAAoUQIAAAQSoQAAAChRAgAABBKhAAAAKFECAAAEEqEAAAAoUQIAAAQSoQAAAChRAgAABBKhAAAAKFECAAAEEqEAAAAoUQIAAAQSoQAAAChRAgAABBKhAAAAKFECAAAEEqEAAAAoUQIAAAQSoQAAAChRAgAABBKhAAAAKFECAAAEEqEAAAAoUQIAAAQSoQAAAChRAgAABBKhAAAAKFECAAAEEqEAAAAoUQIAAAQSoQAAAChRAgAABBKhAAAAKFECAAAEEqEAAAAoUQIAAAQSoQAAAChRAgAABBKhAAAAKFECAAAEEqEAAAAoUQIAAAQSoQAAAChRAgAABBKhAAAAKFECAAAEEqEAAAAoUQIAAAQSoQAAAChRAgAABBKhAAAAKFECAAAEEqEAAAAoUQIAAAQSoQAAAChRAgAABBKhAAAAKFECAAAEEqEAAAAoUQIAAAQSoQAAAChRAgAABBKhAAAAKFECAAAEEqEAAAAoUQIAAAQSoQAAAChRAgAABBKhAAAAKFECAAAEEqEAAAAoUQIAAAQSoQAAAChRAgAABBKhAAAAKFECAAAEEqEAAAAoUQIAAAQSoQAAAChRAgAABBKhAAAAKFECAAAEEqEAAAAoUQIAAAQSoQAAAChRAgAABBKhAAAAKFECAAAEEqEAAAAoUQIAAAQSoQAAAChRAgAABBKhAAAAKFECAAAEEqEAAAAoUQIAAAQSoQAAAChRAgAABBKhAAAAKFECAAAEEqEAAAAoUQIAAAQSoQAAAChRAgAABBKhAAAAKFECAAAEEqEAAAAoUQIAAAQSoQAAAChRAgAABBKhAAAAKFECAAAEEqEAAAAoUQIAAAQSoQAAAChRAgAABBKhAAAAKFECAAAEEqEAAAAoUQIAAAQSoQAAAChRAgAABBKhAAAAKFECAAAEEqEAAAAoUQIAAAQSoQAAAChRAgAABBKhAAAAKFECAAAEEqEAAAAoUQIAAAQSoQAAAChRAgAABBKhAAAAKFECAAAEEqEAAAAoUQIAAAQJ6X0/wGNBE9AQgbU/wAAAABJRU5ErkJggg==;container=0;" parent="HEUI8vA9hFR7EpyzuyXa-27" vertex="1">
          <mxGeometry x="66.66000000000008" y="58" width="33.34" height="33.63" as="geometry" />
        </mxCell>
        <mxCell id="HEUI8vA9hFR7EpyzuyXa-57" value="" style="group" parent="HEUI8vA9hFR7EpyzuyXa-77" vertex="1" connectable="0">
          <mxGeometry x="390" y="9" width="110" height="100" as="geometry" />
        </mxCell>
        <mxCell id="HEUI8vA9hFR7EpyzuyXa-55" value="" style="sketch=0;points=[[0,0,0],[0.25,0,0],[0.5,0,0],[0.75,0,0],[1,0,0],[0,1,0],[0.25,1,0],[0.5,1,0],[0.75,1,0],[1,1,0],[0,0.25,0],[0,0.5,0],[0,0.75,0],[1,0.25,0],[1,0.5,0],[1,0.75,0]];outlineConnect=0;fontColor=#ffffff;fillColor=none;strokeColor=#2D7600;dashed=0;verticalLabelPosition=bottom;verticalAlign=top;align=center;html=1;fontSize=12;fontStyle=0;aspect=fixed;shape=mxgraph.aws4.resourceIcon;resIcon=mxgraph.aws4.s3;" parent="HEUI8vA9hFR7EpyzuyXa-57" vertex="1">
          <mxGeometry x="10" width="70" height="70" as="geometry" />
        </mxCell>
        <mxCell id="HEUI8vA9hFR7EpyzuyXa-56" value="&lt;h1 style=&quot;margin-top: 0px;&quot;&gt;&lt;span style=&quot;font-size: 15px;&quot;&gt;Dataset Store&lt;/span&gt;&lt;/h1&gt;" style="text;html=1;whiteSpace=wrap;overflow=hidden;rounded=0;container=0;" parent="HEUI8vA9hFR7EpyzuyXa-57" vertex="1">
          <mxGeometry y="60" width="110" height="40" as="geometry" />
        </mxCell>
        <mxCell id="HEUI8vA9hFR7EpyzuyXa-71" value="" style="group" parent="HEUI8vA9hFR7EpyzuyXa-77" vertex="1" connectable="0">
          <mxGeometry x="160" y="22.25" width="95" height="62.5" as="geometry" />
        </mxCell>
        <mxCell id="HEUI8vA9hFR7EpyzuyXa-66" value="" style="sketch=0;points=[[0,0,0],[0.25,0,0],[0.5,0,0],[0.75,0,0],[1,0,0],[0,1,0],[0.25,1,0],[0.5,1,0],[0.75,1,0],[1,1,0],[0,0.25,0],[0,0.5,0],[0,0.75,0],[1,0.25,0],[1,0.5,0],[1,0.75,0]];outlineConnect=0;fontColor=#ffffff;fillColor=#0050ef;strokeColor=light-dark(#001DBC,#FFFDFB);dashed=0;verticalLabelPosition=bottom;verticalAlign=top;align=center;html=1;fontSize=12;fontStyle=0;aspect=fixed;shape=mxgraph.aws4.resourceIcon;resIcon=mxgraph.aws4.developer_tools;" parent="HEUI8vA9hFR7EpyzuyXa-71" vertex="1">
          <mxGeometry x="31.5" width="32" height="32" as="geometry" />
        </mxCell>
        <mxCell id="HEUI8vA9hFR7EpyzuyXa-69" value="Process and compress" style="text;html=1;whiteSpace=wrap;strokeColor=none;fillColor=none;align=center;verticalAlign=middle;rounded=0;" parent="HEUI8vA9hFR7EpyzuyXa-71" vertex="1">
          <mxGeometry y="32.5" width="95" height="30" as="geometry" />
        </mxCell>
        <mxCell id="HEUI8vA9hFR7EpyzuyXa-73" style="edgeStyle=orthogonalEdgeStyle;rounded=0;orthogonalLoop=1;jettySize=auto;html=1;entryX=0;entryY=0.5;entryDx=0;entryDy=0;entryPerimeter=0;" parent="HEUI8vA9hFR7EpyzuyXa-77" source="HEUI8vA9hFR7EpyzuyXa-18" target="HEUI8vA9hFR7EpyzuyXa-66" edge="1">
          <mxGeometry relative="1" as="geometry" />
        </mxCell>
        <mxCell id="HEUI8vA9hFR7EpyzuyXa-74" value="" style="sketch=0;outlineConnect=0;fontColor=#ffffff;fillColor=#0050ef;strokeColor=#001DBC;dashed=0;verticalLabelPosition=bottom;verticalAlign=top;align=center;html=1;fontSize=12;fontStyle=0;aspect=fixed;pointerEvents=1;shape=mxgraph.aws4.json_script;strokeWidth=5;" parent="HEUI8vA9hFR7EpyzuyXa-77" vertex="1">
          <mxGeometry x="124" y="9" width="20.46" height="28" as="geometry" />
        </mxCell>
        <mxCell id="HEUI8vA9hFR7EpyzuyXa-75" style="edgeStyle=orthogonalEdgeStyle;rounded=0;orthogonalLoop=1;jettySize=auto;html=1;" parent="HEUI8vA9hFR7EpyzuyXa-77" source="HEUI8vA9hFR7EpyzuyXa-66" target="HEUI8vA9hFR7EpyzuyXa-55" edge="1">
          <mxGeometry relative="1" as="geometry" />
        </mxCell>
        <mxCell id="HEUI8vA9hFR7EpyzuyXa-78" style="edgeStyle=orthogonalEdgeStyle;rounded=0;orthogonalLoop=1;jettySize=auto;html=1;" parent="HEUI8vA9hFR7EpyzuyXa-77" source="HEUI8vA9hFR7EpyzuyXa-19" target="HEUI8vA9hFR7EpyzuyXa-68" edge="1">
          <mxGeometry relative="1" as="geometry">
            <Array as="points">
              <mxPoint x="83" y="130" />
            </Array>
          </mxGeometry>
        </mxCell>
        <mxCell id="HEUI8vA9hFR7EpyzuyXa-79" value="" style="group" parent="HEUI8vA9hFR7EpyzuyXa-77" vertex="1" connectable="0">
          <mxGeometry x="160" y="114.75" width="101.5" height="80" as="geometry" />
        </mxCell>
        <mxCell id="HEUI8vA9hFR7EpyzuyXa-68" value="" style="sketch=0;outlineConnect=0;fontColor=#ffffff;fillColor=#0050ef;strokeColor=#001DBC;dashed=0;verticalLabelPosition=bottom;verticalAlign=top;align=center;html=1;fontSize=12;fontStyle=0;aspect=fixed;pointerEvents=1;shape=mxgraph.aws4.eventbridge_scheduler;" parent="HEUI8vA9hFR7EpyzuyXa-79" vertex="1">
          <mxGeometry x="28.5" width="35" height="35" as="geometry" />
        </mxCell>
        <mxCell id="HEUI8vA9hFR7EpyzuyXa-70" value="Scheduled for training every day" style="text;html=1;whiteSpace=wrap;strokeColor=none;fillColor=none;align=center;verticalAlign=middle;rounded=0;" parent="HEUI8vA9hFR7EpyzuyXa-79" vertex="1">
          <mxGeometry y="38" width="101.5" height="42" as="geometry" />
        </mxCell>
        <mxCell id="mfwh5kABBrFmWJEVmBH0-2" value="" style="shape=image;verticalLabelPosition=bottom;labelBackgroundColor=default;verticalAlign=top;aspect=fixed;imageAspect=0;editableCssRules=.*;image=data:image/svg+xml,PHN2ZyB4bWxuczp4bGluaz0iaHR0cDovL3d3dy53My5vcmcvMTk5OS94bGluayIgeG1sbnM9Imh0dHA6Ly93d3cudzMub3JnLzIwMDAvc3ZnIiB4bWw6c3BhY2U9InByZXNlcnZlIiB2aWV3Qm94PSIyIDIgMjggMjgiIHZlcnNpb249IjEuMSIgc3R5bGU9ImNvbG9yLXNjaGVtZTogbGlnaHQgZGFyazsiIGlkPSJDYW1hZGFfMSIgd2lkdGg9IjI4IiBoZWlnaHQ9IjI4Ij48c3R5bGUgdHlwZT0idGV4dC9jc3MiPi5zdDAgeyBmaWxsOiBsaWdodC1kYXJrKHJnYigyNTUsIDI1NSwgMjU1KSwgcmdiKDUxLCAyNTUsIDI1NSkpOyB9IDwvc3R5bGU+PHBhdGggZD0iTTYsMmgyMGMyLjIsMCw0LDEuOCw0LDR2MjBjMCwyLjItMS44LDQtNCw0SDZjLTIuMiwwLTQtMS44LTQtNFY2QzIsMy44LDMuOCwyLDYsMnoiLz48Zz48cGF0aCBkPSJNMjcuNSwxNmMwLTEuNi0xLjktMi45LTQuNy0zLjhjMC43LTIuOSwwLjQtNS4yLTAuOS01LjlDMjEuNSw2LjEsMjEuMiw2LDIwLjgsNmMtMS4zLDAtMi45LDAuOS00LjUsMi41ICAgQzE0LjYsNi45LDEzLDYsMTEuNyw2Yy0wLjQsMC0wLjgsMC4xLTEuMSwwLjNDOS4zLDcsOSw5LjMsOS43LDEyLjJDNi45LDEzLjEsNSwxNC40LDUsMTZzMS45LDIuOSw0LjcsMy44Yy0wLjcsMi45LTAuNSw1LjIsMC45LDYgICBjMC4zLDAuMiwwLjcsMC4zLDEuMSwwLjNjMS4zLDAsMi45LTAuOSw0LjUtMi41YzEuNiwxLjYsMy4zLDIuNSw0LjUsMi41YzAuNCwwLDAuOC0wLjEsMS4xLTAuM2MxLjMtMC44LDEuNi0zLjEsMC45LTYgICBDMjUuNiwxOC45LDI3LjUsMTcuNSwyNy41LDE2eiBNMjAuOCw3LjFjMC4yLDAsMC40LDAsMC41LDAuMWMwLjYsMC40LDAuOSwxLjcsMC43LDMuNGMtMC4xLDAuNC0wLjEsMC45LTAuMiwxLjMgICBjLTAuOS0wLjItMS45LTAuNC0yLjktMC41Yy0wLjYtMC44LTEuMi0xLjYtMS44LTIuMkMxOC41LDcuOCwxOS45LDcuMSwyMC44LDcuMXogTTE5LjMsMTcuOGMtMC4zLDAuNi0wLjcsMS4xLTEsMS43ICAgYy0wLjcsMC0xLjMsMC4xLTIsMC4xcy0xLjQsMC0yLTAuMWMtMC40LTAuNS0wLjctMS4xLTEtMS43Yy0wLjMtMC42LTAuNi0xLjItMC45LTEuOGMwLjMtMC42LDAuNi0xLjIsMC45LTEuOCAgIGMwLjMtMC42LDAuNy0xLjIsMS4xLTEuN2MwLjYsMCwxLjMtMC4xLDItMC4xczEuMywwLDIsMC4xYzAuNCwwLjUsMC43LDEuMSwxLjEsMS43YzAuMywwLjYsMC42LDEuMiwwLjksMS44ICAgQzIwLDE2LjYsMTkuNiwxNy4yLDE5LjMsMTcuOHogTTIwLjgsMTcuM2MwLjIsMC42LDAuNCwxLjEsMC42LDEuN2MtMC42LDAuMS0xLjIsMC4yLTEuOCwwLjNjMC4yLTAuMywwLjQtMC42LDAuNi0xICAgQzIwLjQsMTgsMjAuNiwxNy42LDIwLjgsMTcuM0wyMC44LDE3LjN6IE0xNi4yLDIyYy0wLjQtMC40LTAuOC0wLjktMS4yLTEuNGMwLjQsMCwwLjgsMCwxLjIsMGMwLjQsMCwwLjgsMCwxLjIsMCAgIEMxNywyMS4xLDE2LjYsMjEuNiwxNi4yLDIyeiBNMTIuOCwxOS4zYy0wLjYtMC4xLTEuMi0wLjItMS44LTAuM2MwLjItMC42LDAuNC0xLjEsMC42LTEuN2MwLjIsMC4zLDAuNCwwLjcsMC42LDEgICBDMTIuNCwxOC43LDEyLjYsMTksMTIuOCwxOS4zTDEyLjgsMTkuM3ogTTExLjcsMTQuN2MtMC4yLTAuNi0wLjQtMS4yLTAuNi0xLjdjMC42LTAuMSwxLjItMC4yLDEuOC0wLjNjLTAuMiwwLjMtMC40LDAuNy0wLjYsMSAgIEMxMiwxNCwxMS44LDE0LjQsMTEuNywxNC43eiBNMTYuMiwxMGMwLjQsMC40LDAuOCwwLjksMS4yLDEuNGMtMC40LDAtMC44LDAtMS4yLDBjLTAuNCwwLTAuOCwwLTEuMiwwQzE1LjQsMTAuOSwxNS44LDEwLjQsMTYuMiwxMCAgIHogTTIwLjIsMTMuN2MtMC4yLTAuNC0wLjQtMC43LTAuNi0xYzAuNiwwLjEsMS4yLDAuMiwxLjgsMC4zYy0wLjIsMC42LTAuNCwxLjItMC42LDEuN0MyMC42LDE0LjQsMjAuNCwxNCwyMC4yLDEzLjd6IE0xMC41LDEwLjYgICBjLTAuMi0xLjcsMC0zLDAuNy0zLjRjMC4xLTAuMSwwLjMtMC4xLDAuNS0wLjFjMC45LDAsMi4zLDAuNywzLjgsMi4yYy0wLjYsMC43LTEuMiwxLjQtMS44LDIuMmMtMSwwLjEtMiwwLjMtMi45LDAuNSAgIEMxMC42LDExLjUsMTAuNSwxMSwxMC41LDEwLjZ6IE04LjcsMTguMmMtMS42LTAuNy0yLjYtMS41LTIuNi0yLjNjMC0wLjcsMS0xLjYsMi42LTIuM2MwLjQtMC4yLDAuOC0wLjMsMS4zLTAuNCAgIGMwLjMsMC45LDAuNiwxLjgsMSwyLjdjLTAuNCwwLjktMC44LDEuOC0xLDIuN0M5LjUsMTguNiw5LjEsMTguNCw4LjcsMTguMkw4LjcsMTguMnogTTExLjIsMjQuOGMtMC42LTAuNC0wLjktMS43LTAuNy0zLjQgICBjMC4xLTAuNCwwLjEtMC45LDAuMy0xLjRjMC45LDAuMiwxLjgsMC40LDIuOCwwLjVjMC42LDAuOCwxLjIsMS42LDEuOSwyLjNjLTEuNSwxLjQtMi45LDIuMi0zLjgsMi4yICAgQzExLjUsMjQuOSwxMS4zLDI0LjksMTEuMiwyNC44TDExLjIsMjQuOHogTTIyLDIxLjRjMC4yLDEuNywwLDMtMC43LDMuNGMtMC4xLDAuMS0wLjMsMC4xLTAuNSwwLjFjLTAuOSwwLTIuMy0wLjctMy44LTIuMiAgIGMwLjYtMC43LDEuMy0xLjQsMS45LTIuM2MxLTAuMSwyLTAuMiwyLjgtMC41QzIxLjgsMjAuNSwyMS45LDIxLDIyLDIxLjRMMjIsMjEuNHogTTIzLjgsMTguMmMtMC40LDAuMi0wLjgsMC4zLTEuMywwLjUgICBjLTAuMy0wLjktMC42LTEuOC0xLTIuN2MwLjQtMC45LDAuOC0xLjksMS0yLjdjMC41LDAuMSwwLjksMC4zLDEuMywwLjRjMS42LDAuNywyLjYsMS41LDIuNiwyLjNDMjYuNCwxNi43LDI1LjQsMTcuNiwyMy44LDE4LjIgICBMMjMuOCwxOC4yeiIgY2xhc3M9InN0MCIvPjxwYXRoIGQ9Ik0xNi4zLDE4LjFjMS4yLDAsMi4xLTAuOSwyLjEtMi4xcy0wLjktMi4xLTIuMS0yLjFzLTIuMSwwLjktMi4xLDIuMVMxNS4xLDE4LjEsMTYuMywxOC4xeiIgY2xhc3M9InN0MCIvPjwvZz48L3N2Zz4=;imageBackground=none;fillStyle=solid;imageBorder=none;backgroundOutline=0;" vertex="1" parent="1">
          <mxGeometry x="328" y="514" width="27" height="27" as="geometry" />
        </mxCell>
        <mxCell id="mfwh5kABBrFmWJEVmBH0-3" value="" style="shape=image;verticalLabelPosition=bottom;labelBackgroundColor=default;verticalAlign=top;aspect=fixed;imageAspect=0;editableCssRules=.*;image=data:image/svg+xml,PHN2ZyB4bWxuczp4bGluaz0iaHR0cDovL3d3dy53My5vcmcvMTk5OS94bGluayIgeG1sbnM9Imh0dHA6Ly93d3cudzMub3JnLzIwMDAvc3ZnIiB4bWw6c3BhY2U9InByZXNlcnZlIiB2aWV3Qm94PSIyIDIgMjggMjgiIHZlcnNpb249IjEuMSIgc3R5bGU9ImNvbG9yLXNjaGVtZTogbGlnaHQgZGFyazsiIGlkPSJDYW1hZGFfMSIgd2lkdGg9IjI4IiBoZWlnaHQ9IjI4Ij48c3R5bGUgdHlwZT0idGV4dC9jc3MiPi5zdDAgeyBmaWxsOiBsaWdodC1kYXJrKHJnYigyNTUsIDI1NSwgMjU1KSwgcmdiKDUxLCAyNTUsIDI1NSkpOyB9IDwvc3R5bGU+PHBhdGggZD0iTTYsMmgyMGMyLjIsMCw0LDEuOCw0LDR2MjBjMCwyLjItMS44LDQtNCw0SDZjLTIuMiwwLTQtMS44LTQtNFY2QzIsMy44LDMuOCwyLDYsMnoiLz48Zz48cGF0aCBkPSJNMjcuNSwxNmMwLTEuNi0xLjktMi45LTQuNy0zLjhjMC43LTIuOSwwLjQtNS4yLTAuOS01LjlDMjEuNSw2LjEsMjEuMiw2LDIwLjgsNmMtMS4zLDAtMi45LDAuOS00LjUsMi41ICAgQzE0LjYsNi45LDEzLDYsMTEuNyw2Yy0wLjQsMC0wLjgsMC4xLTEuMSwwLjNDOS4zLDcsOSw5LjMsOS43LDEyLjJDNi45LDEzLjEsNSwxNC40LDUsMTZzMS45LDIuOSw0LjcsMy44Yy0wLjcsMi45LTAuNSw1LjIsMC45LDYgICBjMC4zLDAuMiwwLjcsMC4zLDEuMSwwLjNjMS4zLDAsMi45LTAuOSw0LjUtMi41YzEuNiwxLjYsMy4zLDIuNSw0LjUsMi41YzAuNCwwLDAuOC0wLjEsMS4xLTAuM2MxLjMtMC44LDEuNi0zLjEsMC45LTYgICBDMjUuNiwxOC45LDI3LjUsMTcuNSwyNy41LDE2eiBNMjAuOCw3LjFjMC4yLDAsMC40LDAsMC41LDAuMWMwLjYsMC40LDAuOSwxLjcsMC43LDMuNGMtMC4xLDAuNC0wLjEsMC45LTAuMiwxLjMgICBjLTAuOS0wLjItMS45LTAuNC0yLjktMC41Yy0wLjYtMC44LTEuMi0xLjYtMS44LTIuMkMxOC41LDcuOCwxOS45LDcuMSwyMC44LDcuMXogTTE5LjMsMTcuOGMtMC4zLDAuNi0wLjcsMS4xLTEsMS43ICAgYy0wLjcsMC0xLjMsMC4xLTIsMC4xcy0xLjQsMC0yLTAuMWMtMC40LTAuNS0wLjctMS4xLTEtMS43Yy0wLjMtMC42LTAuNi0xLjItMC45LTEuOGMwLjMtMC42LDAuNi0xLjIsMC45LTEuOCAgIGMwLjMtMC42LDAuNy0xLjIsMS4xLTEuN2MwLjYsMCwxLjMtMC4xLDItMC4xczEuMywwLDIsMC4xYzAuNCwwLjUsMC43LDEuMSwxLjEsMS43YzAuMywwLjYsMC42LDEuMiwwLjksMS44ICAgQzIwLDE2LjYsMTkuNiwxNy4yLDE5LjMsMTcuOHogTTIwLjgsMTcuM2MwLjIsMC42LDAuNCwxLjEsMC42LDEuN2MtMC42LDAuMS0xLjIsMC4yLTEuOCwwLjNjMC4yLTAuMywwLjQtMC42LDAuNi0xICAgQzIwLjQsMTgsMjAuNiwxNy42LDIwLjgsMTcuM0wyMC44LDE3LjN6IE0xNi4yLDIyYy0wLjQtMC40LTAuOC0wLjktMS4yLTEuNGMwLjQsMCwwLjgsMCwxLjIsMGMwLjQsMCwwLjgsMCwxLjIsMCAgIEMxNywyMS4xLDE2LjYsMjEuNiwxNi4yLDIyeiBNMTIuOCwxOS4zYy0wLjYtMC4xLTEuMi0wLjItMS44LTAuM2MwLjItMC42LDAuNC0xLjEsMC42LTEuN2MwLjIsMC4zLDAuNCwwLjcsMC42LDEgICBDMTIuNCwxOC43LDEyLjYsMTksMTIuOCwxOS4zTDEyLjgsMTkuM3ogTTExLjcsMTQuN2MtMC4yLTAuNi0wLjQtMS4yLTAuNi0xLjdjMC42LTAuMSwxLjItMC4yLDEuOC0wLjNjLTAuMiwwLjMtMC40LDAuNy0wLjYsMSAgIEMxMiwxNCwxMS44LDE0LjQsMTEuNywxNC43eiBNMTYuMiwxMGMwLjQsMC40LDAuOCwwLjksMS4yLDEuNGMtMC40LDAtMC44LDAtMS4yLDBjLTAuNCwwLTAuOCwwLTEuMiwwQzE1LjQsMTAuOSwxNS44LDEwLjQsMTYuMiwxMCAgIHogTTIwLjIsMTMuN2MtMC4yLTAuNC0wLjQtMC43LTAuNi0xYzAuNiwwLjEsMS4yLDAuMiwxLjgsMC4zYy0wLjIsMC42LTAuNCwxLjItMC42LDEuN0MyMC42LDE0LjQsMjAuNCwxNCwyMC4yLDEzLjd6IE0xMC41LDEwLjYgICBjLTAuMi0xLjcsMC0zLDAuNy0zLjRjMC4xLTAuMSwwLjMtMC4xLDAuNS0wLjFjMC45LDAsMi4zLDAuNywzLjgsMi4yYy0wLjYsMC43LTEuMiwxLjQtMS44LDIuMmMtMSwwLjEtMiwwLjMtMi45LDAuNSAgIEMxMC42LDExLjUsMTAuNSwxMSwxMC41LDEwLjZ6IE04LjcsMTguMmMtMS42LTAuNy0yLjYtMS41LTIuNi0yLjNjMC0wLjcsMS0xLjYsMi42LTIuM2MwLjQtMC4yLDAuOC0wLjMsMS4zLTAuNCAgIGMwLjMsMC45LDAuNiwxLjgsMSwyLjdjLTAuNCwwLjktMC44LDEuOC0xLDIuN0M5LjUsMTguNiw5LjEsMTguNCw4LjcsMTguMkw4LjcsMTguMnogTTExLjIsMjQuOGMtMC42LTAuNC0wLjktMS43LTAuNy0zLjQgICBjMC4xLTAuNCwwLjEtMC45LDAuMy0xLjRjMC45LDAuMiwxLjgsMC40LDIuOCwwLjVjMC42LDAuOCwxLjIsMS42LDEuOSwyLjNjLTEuNSwxLjQtMi45LDIuMi0zLjgsMi4yICAgQzExLjUsMjQuOSwxMS4zLDI0LjksMTEuMiwyNC44TDExLjIsMjQuOHogTTIyLDIxLjRjMC4yLDEuNywwLDMtMC43LDMuNGMtMC4xLDAuMS0wLjMsMC4xLTAuNSwwLjFjLTAuOSwwLTIuMy0wLjctMy44LTIuMiAgIGMwLjYtMC43LDEuMy0xLjQsMS45LTIuM2MxLTAuMSwyLTAuMiwyLjgtMC41QzIxLjgsMjAuNSwyMS45LDIxLDIyLDIxLjRMMjIsMjEuNHogTTIzLjgsMTguMmMtMC40LDAuMi0wLjgsMC4zLTEuMywwLjUgICBjLTAuMy0wLjktMC42LTEuOC0xLTIuN2MwLjQtMC45LDAuOC0xLjksMS0yLjdjMC41LDAuMSwwLjksMC4zLDEuMywwLjRjMS42LDAuNywyLjYsMS41LDIuNiwyLjNDMjYuNCwxNi43LDI1LjQsMTcuNiwyMy44LDE4LjIgICBMMjMuOCwxOC4yeiIgY2xhc3M9InN0MCIvPjxwYXRoIGQ9Ik0xNi4zLDE4LjFjMS4yLDAsMi4xLTAuOSwyLjEtMi4xcy0wLjktMi4xLTIuMS0yLjFzLTIuMSwwLjktMi4xLDIuMVMxNS4xLDE4LjEsMTYuMywxOC4xeiIgY2xhc3M9InN0MCIvPjwvZz48L3N2Zz4=;imageBackground=none;fillStyle=solid;imageBorder=none;backgroundOutline=0;" vertex="1" parent="1">
          <mxGeometry x="318" y="657" width="27" height="27" as="geometry" />
        </mxCell>
        <mxCell id="mfwh5kABBrFmWJEVmBH0-4" value="" style="shape=image;verticalLabelPosition=bottom;labelBackgroundColor=default;verticalAlign=top;aspect=fixed;imageAspect=0;editableCssRules=.*;image=data:image/svg+xml,PHN2ZyB4bWxuczp4bGluaz0iaHR0cDovL3d3dy53My5vcmcvMTk5OS94bGluayIgeG1sbnM9Imh0dHA6Ly93d3cudzMub3JnLzIwMDAvc3ZnIiB4bWw6c3BhY2U9InByZXNlcnZlIiB2aWV3Qm94PSIyIDIgMjggMjgiIHZlcnNpb249IjEuMSIgc3R5bGU9ImNvbG9yLXNjaGVtZTogbGlnaHQgZGFyazsiIGlkPSJDYW1hZGFfMSIgd2lkdGg9IjI4IiBoZWlnaHQ9IjI4Ij48c3R5bGUgdHlwZT0idGV4dC9jc3MiPi5zdDAgeyBmaWxsOiBsaWdodC1kYXJrKHJnYigyNTUsIDI1NSwgMjU1KSwgcmdiKDUxLCAyNTUsIDI1NSkpOyB9IDwvc3R5bGU+PHBhdGggZD0iTTYsMmgyMGMyLjIsMCw0LDEuOCw0LDR2MjBjMCwyLjItMS44LDQtNCw0SDZjLTIuMiwwLTQtMS44LTQtNFY2QzIsMy44LDMuOCwyLDYsMnoiLz48Zz48cGF0aCBkPSJNMjcuNSwxNmMwLTEuNi0xLjktMi45LTQuNy0zLjhjMC43LTIuOSwwLjQtNS4yLTAuOS01LjlDMjEuNSw2LjEsMjEuMiw2LDIwLjgsNmMtMS4zLDAtMi45LDAuOS00LjUsMi41ICAgQzE0LjYsNi45LDEzLDYsMTEuNyw2Yy0wLjQsMC0wLjgsMC4xLTEuMSwwLjNDOS4zLDcsOSw5LjMsOS43LDEyLjJDNi45LDEzLjEsNSwxNC40LDUsMTZzMS45LDIuOSw0LjcsMy44Yy0wLjcsMi45LTAuNSw1LjIsMC45LDYgICBjMC4zLDAuMiwwLjcsMC4zLDEuMSwwLjNjMS4zLDAsMi45LTAuOSw0LjUtMi41YzEuNiwxLjYsMy4zLDIuNSw0LjUsMi41YzAuNCwwLDAuOC0wLjEsMS4xLTAuM2MxLjMtMC44LDEuNi0zLjEsMC45LTYgICBDMjUuNiwxOC45LDI3LjUsMTcuNSwyNy41LDE2eiBNMjAuOCw3LjFjMC4yLDAsMC40LDAsMC41LDAuMWMwLjYsMC40LDAuOSwxLjcsMC43LDMuNGMtMC4xLDAuNC0wLjEsMC45LTAuMiwxLjMgICBjLTAuOS0wLjItMS45LTAuNC0yLjktMC41Yy0wLjYtMC44LTEuMi0xLjYtMS44LTIuMkMxOC41LDcuOCwxOS45LDcuMSwyMC44LDcuMXogTTE5LjMsMTcuOGMtMC4zLDAuNi0wLjcsMS4xLTEsMS43ICAgYy0wLjcsMC0xLjMsMC4xLTIsMC4xcy0xLjQsMC0yLTAuMWMtMC40LTAuNS0wLjctMS4xLTEtMS43Yy0wLjMtMC42LTAuNi0xLjItMC45LTEuOGMwLjMtMC42LDAuNi0xLjIsMC45LTEuOCAgIGMwLjMtMC42LDAuNy0xLjIsMS4xLTEuN2MwLjYsMCwxLjMtMC4xLDItMC4xczEuMywwLDIsMC4xYzAuNCwwLjUsMC43LDEuMSwxLjEsMS43YzAuMywwLjYsMC42LDEuMiwwLjksMS44ICAgQzIwLDE2LjYsMTkuNiwxNy4yLDE5LjMsMTcuOHogTTIwLjgsMTcuM2MwLjIsMC42LDAuNCwxLjEsMC42LDEuN2MtMC42LDAuMS0xLjIsMC4yLTEuOCwwLjNjMC4yLTAuMywwLjQtMC42LDAuNi0xICAgQzIwLjQsMTgsMjAuNiwxNy42LDIwLjgsMTcuM0wyMC44LDE3LjN6IE0xNi4yLDIyYy0wLjQtMC40LTAuOC0wLjktMS4yLTEuNGMwLjQsMCwwLjgsMCwxLjIsMGMwLjQsMCwwLjgsMCwxLjIsMCAgIEMxNywyMS4xLDE2LjYsMjEuNiwxNi4yLDIyeiBNMTIuOCwxOS4zYy0wLjYtMC4xLTEuMi0wLjItMS44LTAuM2MwLjItMC42LDAuNC0xLjEsMC42LTEuN2MwLjIsMC4zLDAuNCwwLjcsMC42LDEgICBDMTIuNCwxOC43LDEyLjYsMTksMTIuOCwxOS4zTDEyLjgsMTkuM3ogTTExLjcsMTQuN2MtMC4yLTAuNi0wLjQtMS4yLTAuNi0xLjdjMC42LTAuMSwxLjItMC4yLDEuOC0wLjNjLTAuMiwwLjMtMC40LDAuNy0wLjYsMSAgIEMxMiwxNCwxMS44LDE0LjQsMTEuNywxNC43eiBNMTYuMiwxMGMwLjQsMC40LDAuOCwwLjksMS4yLDEuNGMtMC40LDAtMC44LDAtMS4yLDBjLTAuNCwwLTAuOCwwLTEuMiwwQzE1LjQsMTAuOSwxNS44LDEwLjQsMTYuMiwxMCAgIHogTTIwLjIsMTMuN2MtMC4yLTAuNC0wLjQtMC43LTAuNi0xYzAuNiwwLjEsMS4yLDAuMiwxLjgsMC4zYy0wLjIsMC42LTAuNCwxLjItMC42LDEuN0MyMC42LDE0LjQsMjAuNCwxNCwyMC4yLDEzLjd6IE0xMC41LDEwLjYgICBjLTAuMi0xLjcsMC0zLDAuNy0zLjRjMC4xLTAuMSwwLjMtMC4xLDAuNS0wLjFjMC45LDAsMi4zLDAuNywzLjgsMi4yYy0wLjYsMC43LTEuMiwxLjQtMS44LDIuMmMtMSwwLjEtMiwwLjMtMi45LDAuNSAgIEMxMC42LDExLjUsMTAuNSwxMSwxMC41LDEwLjZ6IE04LjcsMTguMmMtMS42LTAuNy0yLjYtMS41LTIuNi0yLjNjMC0wLjcsMS0xLjYsMi42LTIuM2MwLjQtMC4yLDAuOC0wLjMsMS4zLTAuNCAgIGMwLjMsMC45LDAuNiwxLjgsMSwyLjdjLTAuNCwwLjktMC44LDEuOC0xLDIuN0M5LjUsMTguNiw5LjEsMTguNCw4LjcsMTguMkw4LjcsMTguMnogTTExLjIsMjQuOGMtMC42LTAuNC0wLjktMS43LTAuNy0zLjQgICBjMC4xLTAuNCwwLjEtMC45LDAuMy0xLjRjMC45LDAuMiwxLjgsMC40LDIuOCwwLjVjMC42LDAuOCwxLjIsMS42LDEuOSwyLjNjLTEuNSwxLjQtMi45LDIuMi0zLjgsMi4yICAgQzExLjUsMjQuOSwxMS4zLDI0LjksMTEuMiwyNC44TDExLjIsMjQuOHogTTIyLDIxLjRjMC4yLDEuNywwLDMtMC43LDMuNGMtMC4xLDAuMS0wLjMsMC4xLTAuNSwwLjFjLTAuOSwwLTIuMy0wLjctMy44LTIuMiAgIGMwLjYtMC43LDEuMy0xLjQsMS45LTIuM2MxLTAuMSwyLTAuMiwyLjgtMC41QzIxLjgsMjAuNSwyMS45LDIxLDIyLDIxLjRMMjIsMjEuNHogTTIzLjgsMTguMmMtMC40LDAuMi0wLjgsMC4zLTEuMywwLjUgICBjLTAuMy0wLjktMC42LTEuOC0xLTIuN2MwLjQtMC45LDAuOC0xLjksMS0yLjdjMC41LDAuMSwwLjksMC4zLDEuMywwLjRjMS42LDAuNywyLjYsMS41LDIuNiwyLjNDMjYuNCwxNi43LDI1LjQsMTcuNiwyMy44LDE4LjIgICBMMjMuOCwxOC4yeiIgY2xhc3M9InN0MCIvPjxwYXRoIGQ9Ik0xNi4zLDE4LjFjMS4yLDAsMi4xLTAuOSwyLjEtMi4xcy0wLjktMi4xLTIuMS0yLjFzLTIuMSwwLjktMi4xLDIuMVMxNS4xLDE4LjEsMTYuMywxOC4xeiIgY2xhc3M9InN0MCIvPjwvZz48L3N2Zz4=;imageBackground=none;fillStyle=solid;imageBorder=none;backgroundOutline=0;" vertex="1" parent="1">
          <mxGeometry x="301" y="798.5" width="27" height="27" as="geometry" />
        </mxCell>
      </root>
    </mxGraphModel>
  </diagram>
</mxfile>
